<ttFont>
    <TTGlyph name="A" xMin="14" yMin="0" xMax="660" yMax="710">
      <contour>
        <pt x="316" y="710" on="1"/>
        <pt x="360" y="710" on="1"/>
        <pt x="660" y="0" on="1"/>
        <pt x="606" y="0" on="1"/>
        <pt x="507" y="234" on="1"/>
        <pt x="168" y="234" on="1"/>
        <pt x="69" y="0" on="1"/>
        <pt x="14" y="0" on="1"/>
      </contour>
      <contour>
        <pt x="493" y="276" on="1"/>
        <pt x="338" y="648" on="1"/>
        <pt x="180" y="276" on="1"/>
      </contour>
    </TTGlyph>
    <TTGlyph name="A.sc" xMin="21" yMin="0" xMax="561" yMax="545">
      <contour>
        <pt x="21" y="0" on="1"/>
        <pt x="272" y="545" on="1"/>
        <pt x="311" y="545" on="1"/>
        <pt x="561" y="0" on="1"/>
        <pt x="511" y="0" on="1"/>
        <pt x="431" y="175" on="1"/>
        <pt x="153" y="175" on="1"/>
        <pt x="72" y="0" on="1"/>
      </contour>
      <contour>
        <pt x="292" y="486" on="1"/>
        <pt x="165" y="216" on="1"/>
        <pt x="417" y="216" on="1"/>
      </contour>
    </TTGlyph>
    <TTGlyph name="AE" xMin="-27" yMin="0" xMax="917" yMax="710">
      <contour>
        <pt x="434" y="710" on="1"/>
        <pt x="908" y="710" on="1"/>
        <pt x="908" y="664" on="1"/>
        <pt x="498" y="664" on="1"/>
        <pt x="498" y="386" on="1"/>
        <pt x="854" y="386" on="1"/>
        <pt x="854" y="339" on="1"/>
        <pt x="498" y="339" on="1"/>
        <pt x="498" y="46" on="1"/>
        <pt x="917" y="46" on="1"/>
        <pt x="917" y="0" on="1"/>
        <pt x="448" y="0" on="1"/>
        <pt x="448" y="234" on="1"/>
        <pt x="181" y="234" on="1"/>
        <pt x="30" y="0" on="1"/>
        <pt x="-27" y="0" on="1"/>
      </contour>
      <contour>
        <pt x="445" y="280" on="1"/>
        <pt x="445" y="646" on="1"/>
        <pt x="205" y="280" on="1"/>
      </contour>
    </TTGlyph>
    <TTGlyph name="AEacute" xMin="-27" yMin="0" xMax="917" yMax="917">
      <contour>
        <pt x="493" y="816" on="1"/>
        <pt x="458" y="832" on="1"/>
        <pt x="519" y="917" on="1"/>
        <pt x="577" y="917" on="1"/>
      </contour>
      <contour>
        <pt x="434" y="710" on="1"/>
        <pt x="908" y="710" on="1"/>
        <pt x="908" y="664" on="1"/>
        <pt x="498" y="664" on="1"/>
        <pt x="498" y="386" on="1"/>
        <pt x="854" y="386" on="1"/>
        <pt x="854" y="339" on="1"/>
        <pt x="498" y="339" on="1"/>
        <pt x="498" y="46" on="1"/>
        <pt x="917" y="46" on="1"/>
        <pt x="917" y="0" on="1"/>
        <pt x="448" y="0" on="1"/>
        <pt x="448" y="234" on="1"/>
        <pt x="181" y="234" on="1"/>
        <pt x="30" y="0" on="1"/>
        <pt x="-27" y="0" on="1"/>
      </contour>
      <contour>
        <pt x="445" y="280" on="1"/>
        <pt x="445" y="646" on="1"/>
        <pt x="205" y="280" on="1"/>
      </contour>
    </TTGlyph>
    <TTGlyph name="Aacute" xMin="14" yMin="0" xMax="660" yMax="917">
      <contour>
        <pt x="316" y="710" on="1"/>
        <pt x="360" y="710" on="1"/>
        <pt x="660" y="0" on="1"/>
        <pt x="606" y="0" on="1"/>
        <pt x="507" y="234" on="1"/>
        <pt x="168" y="234" on="1"/>
        <pt x="69" y="0" on="1"/>
        <pt x="14" y="0" on="1"/>
      </contour>
      <contour>
        <pt x="493" y="276" on="1"/>
        <pt x="338" y="648" on="1"/>
        <pt x="180" y="276" on="1"/>
      </contour>
      <contour>
        <pt x="337" y="816" on="1"/>
        <pt x="302" y="832" on="1"/>
        <pt x="363" y="917" on="1"/>
        <pt x="421" y="917" on="1"/>
      </contour>
    </TTGlyph>
    <TTGlyph name="Abreve" xMin="14" yMin="0" xMax="660" yMax="917">
      <contour>
        <pt x="316" y="710" on="1"/>
        <pt x="360" y="710" on="1"/>
        <pt x="660" y="0" on="1"/>
        <pt x="606" y="0" on="1"/>
        <pt x="507" y="234" on="1"/>
        <pt x="168" y="234" on="1"/>
        <pt x="69" y="0" on="1"/>
        <pt x="14" y="0" on="1"/>
      </contour>
      <contour>
        <pt x="493" y="276" on="1"/>
        <pt x="338" y="648" on="1"/>
        <pt x="180" y="276" on="1"/>
      </contour>
      <contour>
        <pt x="338" y="853" on="1"/>
        <pt x="358" y="853" on="0"/>
        <pt x="391" y="890" on="0"/>
        <pt x="394" y="917" on="1"/>
        <pt x="427" y="917" on="1"/>
        <pt x="427" y="898" on="0"/>
        <pt x="413" y="864" on="0"/>
        <pt x="388" y="839" on="0"/>
        <pt x="356" y="825" on="0"/>
        <pt x="338" y="825" on="1"/>
        <pt x="320" y="825" on="0"/>
        <pt x="287" y="839" on="0"/>
        <pt x="263" y="864" on="0"/>
        <pt x="249" y="898" on="0"/>
        <pt x="249" y="917" on="1"/>
        <pt x="282" y="917" on="1"/>
        <pt x="282" y="892" on="0"/>
        <pt x="316" y="853" on="0"/>
      </contour>
    </TTGlyph>
    <TTGlyph name="Acircumflex" xMin="14" yMin="0" xMax="660" yMax="917">
      <contour>
        <pt x="316" y="710" on="1"/>
        <pt x="360" y="710" on="1"/>
        <pt x="660" y="0" on="1"/>
        <pt x="606" y="0" on="1"/>
        <pt x="507" y="234" on="1"/>
        <pt x="168" y="234" on="1"/>
        <pt x="69" y="0" on="1"/>
        <pt x="14" y="0" on="1"/>
      </contour>
      <contour>
        <pt x="493" y="276" on="1"/>
        <pt x="338" y="648" on="1"/>
        <pt x="180" y="276" on="1"/>
      </contour>
      <contour>
        <pt x="223" y="836" on="1"/>
        <pt x="319" y="917" on="1"/>
        <pt x="356" y="917" on="1"/>
        <pt x="453" y="836" on="1"/>
        <pt x="423" y="819" on="1"/>
        <pt x="338" y="882" on="1"/>
        <pt x="253" y="819" on="1"/>
      </contour>
    </TTGlyph>
    <TTGlyph name="Adblgrave" xMin="14" yMin="0" xMax="660" yMax="918">
      <contour>
        <pt x="316" y="710" on="1"/>
        <pt x="360" y="710" on="1"/>
        <pt x="660" y="0" on="1"/>
        <pt x="606" y="0" on="1"/>
        <pt x="507" y="234" on="1"/>
        <pt x="168" y="234" on="1"/>
        <pt x="69" y="0" on="1"/>
        <pt x="14" y="0" on="1"/>
      </contour>
      <contour>
        <pt x="493" y="276" on="1"/>
        <pt x="338" y="648" on="1"/>
        <pt x="180" y="276" on="1"/>
      </contour>
      <contour>
        <pt x="304" y="918" on="1"/>
        <pt x="356" y="918" on="1"/>
        <pt x="416" y="833" on="1"/>
        <pt x="387" y="817" on="1"/>
      </contour>
      <contour>
        <pt x="188" y="918" on="1"/>
        <pt x="241" y="918" on="1"/>
        <pt x="300" y="833" on="1"/>
        <pt x="271" y="817" on="1"/>
      </contour>
    </TTGlyph>
    <TTGlyph name="Adieresis" xMin="14" yMin="0" xMax="660" yMax="916">
      <contour>
        <pt x="316" y="710" on="1"/>
        <pt x="360" y="710" on="1"/>
        <pt x="660" y="0" on="1"/>
        <pt x="606" y="0" on="1"/>
        <pt x="507" y="234" on="1"/>
        <pt x="168" y="234" on="1"/>
        <pt x="69" y="0" on="1"/>
        <pt x="14" y="0" on="1"/>
      </contour>
      <contour>
        <pt x="493" y="276" on="1"/>
        <pt x="338" y="648" on="1"/>
        <pt x="180" y="276" on="1"/>
      </contour>
      <contour>
        <pt x="248" y="828" on="1"/>
        <pt x="248" y="916" on="1"/>
        <pt x="292" y="916" on="1"/>
        <pt x="292" y="828" on="1"/>
      </contour>
      <contour>
        <pt x="384" y="828" on="1"/>
        <pt x="384" y="916" on="1"/>
        <pt x="428" y="916" on="1"/>
        <pt x="428" y="828" on="1"/>
      </contour>
    </TTGlyph>
    <TTGlyph name="Agrave" xMin="14" yMin="0" xMax="660" yMax="918">
      <contour>
        <pt x="316" y="710" on="1"/>
        <pt x="360" y="710" on="1"/>
        <pt x="660" y="0" on="1"/>
        <pt x="606" y="0" on="1"/>
        <pt x="507" y="234" on="1"/>
        <pt x="168" y="234" on="1"/>
        <pt x="69" y="0" on="1"/>
        <pt x="14" y="0" on="1"/>
      </contour>
      <contour>
        <pt x="493" y="276" on="1"/>
        <pt x="338" y="648" on="1"/>
        <pt x="180" y="276" on="1"/>
      </contour>
      <contour>
        <pt x="254" y="918" on="1"/>
        <pt x="311" y="918" on="1"/>
        <pt x="373" y="833" on="1"/>
        <pt x="339" y="817" on="1"/>
      </contour>
    </TTGlyph>
    <TTGlyph name="Ainvertedbreve" xMin="14" yMin="0" xMax="660" yMax="917">
      <contour>
        <pt x="316" y="710" on="1"/>
        <pt x="360" y="710" on="1"/>
        <pt x="660" y="0" on="1"/>
        <pt x="606" y="0" on="1"/>
        <pt x="507" y="234" on="1"/>
        <pt x="168" y="234" on="1"/>
        <pt x="69" y="0" on="1"/>
        <pt x="14" y="0" on="1"/>
      </contour>
      <contour>
        <pt x="493" y="276" on="1"/>
        <pt x="338" y="648" on="1"/>
        <pt x="180" y="276" on="1"/>
      </contour>
      <contour>
        <pt x="338" y="889" on="1"/>
        <pt x="316" y="889" on="0"/>
        <pt x="282" y="850" on="0"/>
        <pt x="282" y="825" on="1"/>
        <pt x="249" y="825" on="1"/>
        <pt x="249" y="844" on="0"/>
        <pt x="263" y="878" on="0"/>
        <pt x="287" y="903" on="0"/>
        <pt x="320" y="917" on="0"/>
        <pt x="338" y="917" on="1"/>
        <pt x="356" y="917" on="0"/>
        <pt x="388" y="903" on="0"/>
        <pt x="413" y="878" on="0"/>
        <pt x="427" y="844" on="0"/>
        <pt x="427" y="825" on="1"/>
        <pt x="394" y="825" on="1"/>
        <pt x="391" y="852" on="0"/>
        <pt x="358" y="889" on="0"/>
      </contour>
    </TTGlyph>
    <TTGlyph name="Amacron" xMin="14" yMin="0" xMax="660" yMax="896">
      <contour>
        <pt x="316" y="710" on="1"/>
        <pt x="360" y="710" on="1"/>
        <pt x="660" y="0" on="1"/>
        <pt x="606" y="0" on="1"/>
        <pt x="507" y="234" on="1"/>
        <pt x="168" y="234" on="1"/>
        <pt x="69" y="0" on="1"/>
        <pt x="14" y="0" on="1"/>
      </contour>
      <contour>
        <pt x="493" y="276" on="1"/>
        <pt x="338" y="648" on="1"/>
        <pt x="180" y="276" on="1"/>
      </contour>
      <contour>
        <pt x="196" y="859" on="1"/>
        <pt x="196" y="896" on="1"/>
        <pt x="481" y="896" on="1"/>
        <pt x="481" y="859" on="1"/>
      </contour>
    </TTGlyph>
    <TTGlyph name="Aogonek" xMin="13" yMin="-169" xMax="659" yMax="710">
      <contour>
        <pt x="610" y="-169" on="1"/>
        <pt x="578" y="-162" on="0"/>
        <pt x="543" y="-126" on="0"/>
        <pt x="543" y="-101" on="1"/>
        <pt x="543" y="-76" on="0"/>
        <pt x="578" y="-27" on="0"/>
        <pt x="616" y="0" on="1"/>
        <pt x="605" y="0" on="1"/>
        <pt x="506" y="234" on="1"/>
        <pt x="167" y="234" on="1"/>
        <pt x="68" y="0" on="1"/>
        <pt x="13" y="0" on="1"/>
        <pt x="315" y="710" on="1"/>
        <pt x="359" y="710" on="1"/>
        <pt x="659" y="0" on="1"/>
        <pt x="614" y="-29" on="0"/>
        <pt x="577" y="-71" on="0"/>
        <pt x="577" y="-94" on="1"/>
        <pt x="577" y="-132" on="0"/>
        <pt x="626" y="-139" on="1"/>
      </contour>
      <contour>
        <pt x="492" y="276" on="1"/>
        <pt x="337" y="648" on="1"/>
        <pt x="179" y="276" on="1"/>
      </contour>
    </TTGlyph>
    <TTGlyph name="Aring" xMin="14" yMin="0" xMax="660" yMax="917">
      <contour>
        <pt x="316" y="710" on="1"/>
        <pt x="360" y="710" on="1"/>
        <pt x="660" y="0" on="1"/>
        <pt x="606" y="0" on="1"/>
        <pt x="507" y="234" on="1"/>
        <pt x="168" y="234" on="1"/>
        <pt x="69" y="0" on="1"/>
        <pt x="14" y="0" on="1"/>
      </contour>
      <contour>
        <pt x="493" y="276" on="1"/>
        <pt x="338" y="648" on="1"/>
        <pt x="180" y="276" on="1"/>
      </contour>
      <contour>
        <pt x="269" y="855" on="1"/>
        <pt x="269" y="882" on="0"/>
        <pt x="308" y="917" on="0"/>
        <pt x="337" y="917" on="1"/>
        <pt x="366" y="917" on="0"/>
        <pt x="405" y="882" on="0"/>
        <pt x="405" y="855" on="1"/>
        <pt x="405" y="827" on="0"/>
        <pt x="366" y="792" on="0"/>
        <pt x="337" y="792" on="1"/>
        <pt x="308" y="792" on="0"/>
        <pt x="269" y="827" on="0"/>
      </contour>
      <contour>
        <pt x="337" y="894" on="1"/>
        <pt x="320" y="894" on="0"/>
        <pt x="297" y="873" on="0"/>
        <pt x="297" y="855" on="1"/>
        <pt x="297" y="838" on="0"/>
        <pt x="320" y="815" on="0"/>
        <pt x="337" y="815" on="1"/>
        <pt x="353" y="815" on="0"/>
        <pt x="378" y="838" on="0"/>
        <pt x="378" y="855" on="1"/>
        <pt x="378" y="873" on="0"/>
        <pt x="354" y="894" on="0"/>
      </contour>
    </TTGlyph>
    <TTGlyph name="Aringacute" xMin="14" yMin="0" xMax="660" yMax="918">
      <contour>
        <pt x="269" y="750" on="1"/>
        <pt x="269" y="777" on="0"/>
        <pt x="308" y="812" on="0"/>
        <pt x="337" y="812" on="1"/>
        <pt x="366" y="812" on="0"/>
        <pt x="405" y="777" on="0"/>
        <pt x="405" y="750" on="1"/>
        <pt x="405" y="730" on="0"/>
        <pt x="384" y="700" on="0"/>
        <pt x="367" y="693" on="1"/>
        <pt x="660" y="0" on="1"/>
        <pt x="606" y="0" on="1"/>
        <pt x="507" y="234" on="1"/>
        <pt x="168" y="234" on="1"/>
        <pt x="69" y="0" on="1"/>
        <pt x="14" y="0" on="1"/>
        <pt x="308" y="692" on="1"/>
        <pt x="290" y="699" on="0"/>
        <pt x="269" y="730" on="0"/>
      </contour>
      <contour>
        <pt x="493" y="276" on="1"/>
        <pt x="338" y="648" on="1"/>
        <pt x="180" y="276" on="1"/>
      </contour>
      <contour>
        <pt x="337" y="789" on="1"/>
        <pt x="320" y="789" on="0"/>
        <pt x="297" y="768" on="0"/>
        <pt x="297" y="750" on="1"/>
        <pt x="297" y="733" on="0"/>
        <pt x="320" y="710" on="0"/>
        <pt x="337" y="710" on="1"/>
        <pt x="353" y="710" on="0"/>
        <pt x="378" y="733" on="0"/>
        <pt x="378" y="750" on="1"/>
        <pt x="378" y="768" on="0"/>
        <pt x="354" y="789" on="0"/>
      </contour>
      <contour>
        <pt x="340" y="819" on="1"/>
        <pt x="305" y="835" on="1"/>
        <pt x="366" y="918" on="1"/>
        <pt x="424" y="918" on="1"/>
      </contour>
    </TTGlyph>
    <TTGlyph name="Atilde" xMin="14" yMin="0" xMax="660" yMax="917">
      <contour>
        <pt x="316" y="710" on="1"/>
        <pt x="360" y="710" on="1"/>
        <pt x="660" y="0" on="1"/>
        <pt x="606" y="0" on="1"/>
        <pt x="507" y="234" on="1"/>
        <pt x="168" y="234" on="1"/>
        <pt x="69" y="0" on="1"/>
        <pt x="14" y="0" on="1"/>
      </contour>
      <contour>
        <pt x="493" y="276" on="1"/>
        <pt x="338" y="648" on="1"/>
        <pt x="180" y="276" on="1"/>
      </contour>
      <contour>
        <pt x="399" y="834" on="1"/>
        <pt x="377" y="834" on="0"/>
        <pt x="343" y="846" on="0"/>
        <pt x="315" y="861" on="0"/>
        <pt x="288" y="874" on="0"/>
        <pt x="273" y="874" on="1"/>
        <pt x="256" y="874" on="0"/>
        <pt x="236" y="860" on="0"/>
        <pt x="226" y="843" on="0"/>
        <pt x="222" y="828" on="0"/>
        <pt x="222" y="826" on="1"/>
        <pt x="188" y="826" on="1"/>
        <pt x="188" y="830" on="0"/>
        <pt x="194" y="857" on="0"/>
        <pt x="213" y="886" on="0"/>
        <pt x="246" y="909" on="0"/>
        <pt x="273" y="909" on="1"/>
        <pt x="293" y="909" on="0"/>
        <pt x="324" y="896" on="0"/>
        <pt x="352" y="881" on="0"/>
        <pt x="381" y="869" on="0"/>
        <pt x="400" y="869" on="1"/>
        <pt x="420" y="869" on="0"/>
        <pt x="443" y="883" on="0"/>
        <pt x="454" y="900" on="0"/>
        <pt x="457" y="915" on="0"/>
        <pt x="457" y="917" on="1"/>
        <pt x="491" y="917" on="1"/>
        <pt x="491" y="912" on="0"/>
        <pt x="484" y="885" on="0"/>
        <pt x="465" y="857" on="0"/>
        <pt x="429" y="834" on="0"/>
      </contour>
    </TTGlyph>
    <TTGlyph name="B" xMin="93" yMin="0" xMax="616" yMax="710">
      <contour>
        <pt x="616" y="184" on="1"/>
        <pt x="616" y="145" on="0"/>
        <pt x="586" y="78" on="0"/>
        <pt x="534" y="28" on="0"/>
        <pt x="464" y="0" on="0"/>
        <pt x="425" y="0" on="1"/>
        <pt x="93" y="0" on="1"/>
        <pt x="93" y="710" on="1"/>
        <pt x="424" y="710" on="1"/>
        <pt x="461" y="710" on="0"/>
        <pt x="521" y="678" on="0"/>
        <pt x="563" y="627" on="0"/>
        <pt x="586" y="562" on="0"/>
        <pt x="586" y="529" on="1"/>
        <pt x="586" y="475" on="0"/>
        <pt x="532" y="385" on="0"/>
        <pt x="484" y="364" on="1"/>
        <pt x="545" y="346" on="0"/>
        <pt x="616" y="247" on="0"/>
      </contour>
      <contour>
        <pt x="565" y="191" on="1"/>
        <pt x="565" y="219" on="0"/>
        <pt x="545" y="272" on="0"/>
        <pt x="509" y="313" on="0"/>
        <pt x="460" y="337" on="0"/>
        <pt x="432" y="337" on="1"/>
        <pt x="144" y="337" on="1"/>
        <pt x="144" y="46" on="1"/>
        <pt x="425" y="46" on="1"/>
        <pt x="455" y="46" on="0"/>
        <pt x="506" y="70" on="0"/>
        <pt x="543" y="111" on="0"/>
        <pt x="565" y="163" on="0"/>
      </contour>
      <contour>
        <pt x="144" y="664" on="1"/>
        <pt x="144" y="380" on="1"/>
        <pt x="404" y="380" on="1"/>
        <pt x="433" y="380" on="0"/>
        <pt x="481" y="404" on="0"/>
        <pt x="516" y="443" on="0"/>
        <pt x="536" y="495" on="0"/>
        <pt x="536" y="522" on="1"/>
        <pt x="536" y="551" on="0"/>
        <pt x="517" y="602" on="0"/>
        <pt x="484" y="641" on="0"/>
        <pt x="438" y="664" on="0"/>
        <pt x="410" y="664" on="1"/>
      </contour>
    </TTGlyph>
    <TTGlyph name="B.sc" xMin="88" yMin="0" xMax="525" yMax="545">
      <contour>
        <pt x="525" y="141" on="1"/>
        <pt x="525" y="111" on="0"/>
        <pt x="500" y="59" on="0"/>
        <pt x="456" y="21" on="0"/>
        <pt x="398" y="0" on="0"/>
        <pt x="365" y="0" on="1"/>
        <pt x="88" y="0" on="1"/>
        <pt x="88" y="545" on="1"/>
        <pt x="366" y="545" on="1"/>
        <pt x="397" y="545" on="0"/>
        <pt x="447" y="521" on="0"/>
        <pt x="481" y="481" on="0"/>
        <pt x="500" y="431" on="0"/>
        <pt x="500" y="406" on="1"/>
        <pt x="500" y="364" on="0"/>
        <pt x="455" y="296" on="0"/>
        <pt x="416" y="280" on="1"/>
        <pt x="467" y="266" on="0"/>
        <pt x="525" y="190" on="0"/>
      </contour>
      <contour>
        <pt x="478" y="148" on="1"/>
        <pt x="478" y="169" on="0"/>
        <pt x="462" y="208" on="0"/>
        <pt x="433" y="237" on="0"/>
        <pt x="394" y="255" on="0"/>
        <pt x="371" y="255" on="1"/>
        <pt x="134" y="255" on="1"/>
        <pt x="134" y="41" on="1"/>
        <pt x="365" y="41" on="1"/>
        <pt x="389" y="41" on="0"/>
        <pt x="430" y="59" on="0"/>
        <pt x="460" y="89" on="0"/>
        <pt x="478" y="127" on="0"/>
      </contour>
      <contour>
        <pt x="134" y="503" on="1"/>
        <pt x="134" y="295" on="1"/>
        <pt x="348" y="295" on="1"/>
        <pt x="371" y="295" on="0"/>
        <pt x="410" y="312" on="0"/>
        <pt x="438" y="341" on="0"/>
        <pt x="454" y="379" on="0"/>
        <pt x="454" y="399" on="1"/>
        <pt x="454" y="442" on="0"/>
        <pt x="398" y="503" on="0"/>
        <pt x="353" y="503" on="1"/>
      </contour>
    </TTGlyph>
    <TTGlyph name="C" xMin="44" yMin="-6" xMax="657" yMax="714">
      <contour>
        <pt x="44" y="360" on="1"/>
        <pt x="44" y="424" on="0"/>
        <pt x="89" y="551" on="0"/>
        <pt x="175" y="651" on="0"/>
        <pt x="300" y="714" on="0"/>
        <pt x="380" y="714" on="1"/>
        <pt x="475" y="714" on="0"/>
        <pt x="609" y="627" on="0"/>
        <pt x="642" y="559" on="1"/>
        <pt x="600" y="535" on="1"/>
        <pt x="581" y="572" on="0"/>
        <pt x="530" y="622" on="0"/>
        <pt x="471" y="653" on="0"/>
        <pt x="407" y="667" on="0"/>
        <pt x="376" y="667" on="1"/>
        <pt x="308" y="667" on="0"/>
        <pt x="204" y="612" on="0"/>
        <pt x="132" y="524" on="0"/>
        <pt x="95" y="413" on="0"/>
        <pt x="95" y="357" on="1"/>
        <pt x="95" y="294" on="0"/>
        <pt x="139" y="180" on="0"/>
        <pt x="215" y="93" on="0"/>
        <pt x="319" y="41" on="0"/>
        <pt x="379" y="41" on="1"/>
        <pt x="411" y="41" on="0"/>
        <pt x="479" y="57" on="0"/>
        <pt x="541" y="91" on="0"/>
        <pt x="595" y="144" on="0"/>
        <pt x="613" y="180" on="1"/>
        <pt x="657" y="159" on="1"/>
        <pt x="639" y="119" on="0"/>
        <pt x="577" y="57" on="0"/>
        <pt x="501" y="15" on="0"/>
        <pt x="416" y="-6" on="0"/>
        <pt x="375" y="-6" on="1"/>
        <pt x="302" y="-6" on="0"/>
        <pt x="181" y="58" on="0"/>
        <pt x="93" y="161" on="0"/>
        <pt x="44" y="292" on="0"/>
      </contour>
    </TTGlyph>
    <TTGlyph name="C.sc" xMin="47" yMin="-5" xMax="558" yMax="548">
      <contour>
        <pt x="47" y="277" on="1"/>
        <pt x="47" y="326" on="0"/>
        <pt x="84" y="423" on="0"/>
        <pt x="156" y="500" on="0"/>
        <pt x="260" y="548" on="0"/>
        <pt x="327" y="548" on="1"/>
        <pt x="406" y="548" on="0"/>
        <pt x="518" y="481" on="0"/>
        <pt x="546" y="429" on="1"/>
        <pt x="507" y="406" on="1"/>
        <pt x="492" y="434" on="0"/>
        <pt x="450" y="472" on="0"/>
        <pt x="402" y="495" on="0"/>
        <pt x="349" y="505" on="0"/>
        <pt x="324" y="505" on="1"/>
        <pt x="268" y="505" on="0"/>
        <pt x="183" y="464" on="0"/>
        <pt x="124" y="398" on="0"/>
        <pt x="94" y="315" on="0"/>
        <pt x="94" y="273" on="1"/>
        <pt x="94" y="226" on="0"/>
        <pt x="130" y="141" on="0"/>
        <pt x="192" y="77" on="0"/>
        <pt x="277" y="38" on="0"/>
        <pt x="326" y="38" on="1"/>
        <pt x="352" y="38" on="0"/>
        <pt x="408" y="50" on="0"/>
        <pt x="459" y="75" on="0"/>
        <pt x="503" y="115" on="0"/>
        <pt x="518" y="142" on="1"/>
        <pt x="558" y="122" on="1"/>
        <pt x="543" y="91" on="0"/>
        <pt x="491" y="44" on="0"/>
        <pt x="428" y="12" on="0"/>
        <pt x="357" y="-5" on="0"/>
        <pt x="323" y="-5" on="1"/>
        <pt x="262" y="-5" on="0"/>
        <pt x="161" y="44" on="0"/>
        <pt x="88" y="124" on="0"/>
        <pt x="47" y="225" on="0"/>
      </contour>
    </TTGlyph>
    <TTGlyph name="Cacute" xMin="44" yMin="-6" xMax="657" yMax="917">
      <contour>
        <pt x="378" y="816" on="1"/>
        <pt x="343" y="832" on="1"/>
        <pt x="404" y="917" on="1"/>
        <pt x="462" y="917" on="1"/>
      </contour>
      <contour>
        <pt x="44" y="360" on="1"/>
        <pt x="44" y="424" on="0"/>
        <pt x="89" y="551" on="0"/>
        <pt x="175" y="651" on="0"/>
        <pt x="300" y="714" on="0"/>
        <pt x="380" y="714" on="1"/>
        <pt x="475" y="714" on="0"/>
        <pt x="609" y="627" on="0"/>
        <pt x="642" y="559" on="1"/>
        <pt x="600" y="535" on="1"/>
        <pt x="581" y="572" on="0"/>
        <pt x="530" y="622" on="0"/>
        <pt x="471" y="653" on="0"/>
        <pt x="407" y="667" on="0"/>
        <pt x="376" y="667" on="1"/>
        <pt x="308" y="667" on="0"/>
        <pt x="204" y="612" on="0"/>
        <pt x="132" y="524" on="0"/>
        <pt x="95" y="413" on="0"/>
        <pt x="95" y="357" on="1"/>
        <pt x="95" y="294" on="0"/>
        <pt x="139" y="180" on="0"/>
        <pt x="215" y="93" on="0"/>
        <pt x="319" y="41" on="0"/>
        <pt x="379" y="41" on="1"/>
        <pt x="411" y="41" on="0"/>
        <pt x="479" y="57" on="0"/>
        <pt x="541" y="91" on="0"/>
        <pt x="595" y="144" on="0"/>
        <pt x="613" y="180" on="1"/>
        <pt x="657" y="159" on="1"/>
        <pt x="639" y="119" on="0"/>
        <pt x="577" y="57" on="0"/>
        <pt x="501" y="15" on="0"/>
        <pt x="416" y="-6" on="0"/>
        <pt x="375" y="-6" on="1"/>
        <pt x="302" y="-6" on="0"/>
        <pt x="181" y="58" on="0"/>
        <pt x="93" y="161" on="0"/>
        <pt x="44" y="292" on="0"/>
      </contour>
    </TTGlyph>
    <TTGlyph name="Ccaron" xMin="44" yMin="-6" xMax="657" yMax="917">
      <contour>
        <pt x="294" y="917" on="1"/>
        <pt x="379" y="854" on="1"/>
        <pt x="464" y="917" on="1"/>
        <pt x="494" y="900" on="1"/>
        <pt x="397" y="819" on="1"/>
        <pt x="360" y="819" on="1"/>
        <pt x="264" y="900" on="1"/>
      </contour>
      <contour>
        <pt x="44" y="360" on="1"/>
        <pt x="44" y="424" on="0"/>
        <pt x="89" y="551" on="0"/>
        <pt x="175" y="651" on="0"/>
        <pt x="300" y="714" on="0"/>
        <pt x="380" y="714" on="1"/>
        <pt x="475" y="714" on="0"/>
        <pt x="609" y="627" on="0"/>
        <pt x="642" y="559" on="1"/>
        <pt x="600" y="535" on="1"/>
        <pt x="581" y="572" on="0"/>
        <pt x="530" y="622" on="0"/>
        <pt x="471" y="653" on="0"/>
        <pt x="407" y="667" on="0"/>
        <pt x="376" y="667" on="1"/>
        <pt x="308" y="667" on="0"/>
        <pt x="204" y="612" on="0"/>
        <pt x="132" y="524" on="0"/>
        <pt x="95" y="413" on="0"/>
        <pt x="95" y="357" on="1"/>
        <pt x="95" y="294" on="0"/>
        <pt x="139" y="180" on="0"/>
        <pt x="215" y="93" on="0"/>
        <pt x="319" y="41" on="0"/>
        <pt x="379" y="41" on="1"/>
        <pt x="411" y="41" on="0"/>
        <pt x="479" y="57" on="0"/>
        <pt x="541" y="91" on="0"/>
        <pt x="595" y="144" on="0"/>
        <pt x="613" y="180" on="1"/>
        <pt x="657" y="159" on="1"/>
        <pt x="639" y="119" on="0"/>
        <pt x="577" y="57" on="0"/>
        <pt x="501" y="15" on="0"/>
        <pt x="416" y="-6" on="0"/>
        <pt x="375" y="-6" on="1"/>
        <pt x="302" y="-6" on="0"/>
        <pt x="181" y="58" on="0"/>
        <pt x="93" y="161" on="0"/>
        <pt x="44" y="292" on="0"/>
      </contour>
    </TTGlyph>
    <TTGlyph name="Ccedilla" xMin="40" yMin="-171" xMax="653" yMax="714">
      <contour>
        <pt x="296" y="-125" on="1"/>
        <pt x="310" y="-132" on="0"/>
        <pt x="357" y="-144" on="0"/>
        <pt x="383" y="-144" on="1"/>
        <pt x="441" y="-144" on="0"/>
        <pt x="441" y="-107" on="1"/>
        <pt x="441" y="-87" on="0"/>
        <pt x="414" y="-71" on="0"/>
        <pt x="392" y="-71" on="1"/>
        <pt x="371" y="-71" on="0"/>
        <pt x="325" y="-81" on="0"/>
        <pt x="311" y="-85" on="1"/>
        <pt x="355" y="-5" on="1"/>
        <pt x="285" y="-2" on="0"/>
        <pt x="169" y="64" on="0"/>
        <pt x="86" y="166" on="0"/>
        <pt x="40" y="294" on="0"/>
        <pt x="40" y="360" on="1"/>
        <pt x="40" y="424" on="0"/>
        <pt x="85" y="551" on="0"/>
        <pt x="171" y="651" on="0"/>
        <pt x="296" y="714" on="0"/>
        <pt x="376" y="714" on="1"/>
        <pt x="471" y="714" on="0"/>
        <pt x="605" y="627" on="0"/>
        <pt x="638" y="559" on="1"/>
        <pt x="596" y="535" on="1"/>
        <pt x="577" y="572" on="0"/>
        <pt x="526" y="622" on="0"/>
        <pt x="467" y="653" on="0"/>
        <pt x="403" y="667" on="0"/>
        <pt x="372" y="667" on="1"/>
        <pt x="304" y="667" on="0"/>
        <pt x="200" y="612" on="0"/>
        <pt x="128" y="524" on="0"/>
        <pt x="91" y="413" on="0"/>
        <pt x="91" y="357" on="1"/>
        <pt x="91" y="294" on="0"/>
        <pt x="135" y="180" on="0"/>
        <pt x="211" y="93" on="0"/>
        <pt x="315" y="41" on="0"/>
        <pt x="375" y="41" on="1"/>
        <pt x="407" y="41" on="0"/>
        <pt x="475" y="57" on="0"/>
        <pt x="537" y="91" on="0"/>
        <pt x="591" y="144" on="0"/>
        <pt x="609" y="180" on="1"/>
        <pt x="653" y="159" on="1"/>
        <pt x="636" y="121" on="0"/>
        <pt x="579" y="62" on="0"/>
        <pt x="508" y="20" on="0"/>
        <pt x="428" y="-3" on="0"/>
        <pt x="389" y="-5" on="1"/>
        <pt x="360" y="-53" on="1"/>
        <pt x="369" y="-49" on="0"/>
        <pt x="392" y="-47" on="0"/>
        <pt x="400" y="-47" on="1"/>
        <pt x="434" y="-47" on="0"/>
        <pt x="472" y="-77" on="0"/>
        <pt x="472" y="-106" on="1"/>
        <pt x="472" y="-138" on="0"/>
        <pt x="424" y="-171" on="0"/>
        <pt x="379" y="-171" on="1"/>
        <pt x="350" y="-171" on="0"/>
        <pt x="301" y="-160" on="0"/>
        <pt x="282" y="-152" on="1"/>
      </contour>
    </TTGlyph>
    <TTGlyph name="Ccircumflex" xMin="44" yMin="-6" xMax="657" yMax="917">
      <contour>
        <pt x="264" y="836" on="1"/>
        <pt x="360" y="917" on="1"/>
        <pt x="397" y="917" on="1"/>
        <pt x="494" y="836" on="1"/>
        <pt x="464" y="819" on="1"/>
        <pt x="379" y="882" on="1"/>
        <pt x="294" y="819" on="1"/>
      </contour>
      <contour>
        <pt x="44" y="360" on="1"/>
        <pt x="44" y="424" on="0"/>
        <pt x="89" y="551" on="0"/>
        <pt x="175" y="651" on="0"/>
        <pt x="300" y="714" on="0"/>
        <pt x="380" y="714" on="1"/>
        <pt x="475" y="714" on="0"/>
        <pt x="609" y="627" on="0"/>
        <pt x="642" y="559" on="1"/>
        <pt x="600" y="535" on="1"/>
        <pt x="581" y="572" on="0"/>
        <pt x="530" y="622" on="0"/>
        <pt x="471" y="653" on="0"/>
        <pt x="407" y="667" on="0"/>
        <pt x="376" y="667" on="1"/>
        <pt x="308" y="667" on="0"/>
        <pt x="204" y="612" on="0"/>
        <pt x="132" y="524" on="0"/>
        <pt x="95" y="413" on="0"/>
        <pt x="95" y="357" on="1"/>
        <pt x="95" y="294" on="0"/>
        <pt x="139" y="180" on="0"/>
        <pt x="215" y="93" on="0"/>
        <pt x="319" y="41" on="0"/>
        <pt x="379" y="41" on="1"/>
        <pt x="411" y="41" on="0"/>
        <pt x="479" y="57" on="0"/>
        <pt x="541" y="91" on="0"/>
        <pt x="595" y="144" on="0"/>
        <pt x="613" y="180" on="1"/>
        <pt x="657" y="159" on="1"/>
        <pt x="639" y="119" on="0"/>
        <pt x="577" y="57" on="0"/>
        <pt x="501" y="15" on="0"/>
        <pt x="416" y="-6" on="0"/>
        <pt x="375" y="-6" on="1"/>
        <pt x="302" y="-6" on="0"/>
        <pt x="181" y="58" on="0"/>
        <pt x="93" y="161" on="0"/>
        <pt x="44" y="292" on="0"/>
      </contour>
    </TTGlyph>
    <TTGlyph name="Cdotaccent" xMin="44" yMin="-6" xMax="657" yMax="917">
      <contour>
        <pt x="44" y="360" on="1"/>
        <pt x="44" y="424" on="0"/>
        <pt x="89" y="551" on="0"/>
        <pt x="175" y="651" on="0"/>
        <pt x="300" y="714" on="0"/>
        <pt x="380" y="714" on="1"/>
        <pt x="475" y="714" on="0"/>
        <pt x="609" y="627" on="0"/>
        <pt x="642" y="559" on="1"/>
        <pt x="600" y="535" on="1"/>
        <pt x="581" y="572" on="0"/>
        <pt x="530" y="622" on="0"/>
        <pt x="471" y="653" on="0"/>
        <pt x="407" y="667" on="0"/>
        <pt x="376" y="667" on="1"/>
        <pt x="308" y="667" on="0"/>
        <pt x="204" y="612" on="0"/>
        <pt x="132" y="524" on="0"/>
        <pt x="95" y="413" on="0"/>
        <pt x="95" y="357" on="1"/>
        <pt x="95" y="294" on="0"/>
        <pt x="139" y="180" on="0"/>
        <pt x="215" y="93" on="0"/>
        <pt x="319" y="41" on="0"/>
        <pt x="379" y="41" on="1"/>
        <pt x="411" y="41" on="0"/>
        <pt x="479" y="57" on="0"/>
        <pt x="541" y="91" on="0"/>
        <pt x="595" y="144" on="0"/>
        <pt x="613" y="180" on="1"/>
        <pt x="657" y="159" on="1"/>
        <pt x="639" y="119" on="0"/>
        <pt x="577" y="57" on="0"/>
        <pt x="501" y="15" on="0"/>
        <pt x="416" y="-6" on="0"/>
        <pt x="375" y="-6" on="1"/>
        <pt x="302" y="-6" on="0"/>
        <pt x="181" y="58" on="0"/>
        <pt x="93" y="161" on="0"/>
        <pt x="44" y="292" on="0"/>
      </contour>
      <contour>
        <pt x="356" y="827" on="1"/>
        <pt x="356" y="917" on="1"/>
        <pt x="402" y="917" on="1"/>
        <pt x="402" y="827" on="1"/>
      </contour>
    </TTGlyph>
    <TTGlyph name="D" xMin="93" yMin="0" xMax="666" yMax="710">
      <contour>
        <pt x="93" y="0" on="1"/>
        <pt x="93" y="710" on="1"/>
        <pt x="329" y="710" on="1"/>
        <pt x="413" y="710" on="0"/>
        <pt x="540" y="654" on="0"/>
        <pt x="624" y="558" on="0"/>
        <pt x="666" y="429" on="0"/>
        <pt x="666" y="356" on="1"/>
        <pt x="666" y="275" on="0"/>
        <pt x="619" y="144" on="0"/>
        <pt x="531" y="51" on="0"/>
        <pt x="406" y="0" on="0"/>
        <pt x="329" y="0" on="1"/>
      </contour>
      <contour>
        <pt x="615" y="356" on="1"/>
        <pt x="615" y="423" on="0"/>
        <pt x="577" y="536" on="0"/>
        <pt x="504" y="618" on="0"/>
        <pt x="398" y="664" on="0"/>
        <pt x="329" y="664" on="1"/>
        <pt x="144" y="664" on="1"/>
        <pt x="144" y="46" on="1"/>
        <pt x="329" y="46" on="1"/>
        <pt x="399" y="46" on="0"/>
        <pt x="506" y="93" on="0"/>
        <pt x="578" y="177" on="0"/>
        <pt x="615" y="290" on="0"/>
      </contour>
    </TTGlyph>
    <TTGlyph name="D.sc" xMin="88" yMin="0" xMax="568" yMax="545">
      <contour>
        <pt x="88" y="0" on="1"/>
        <pt x="88" y="545" on="1"/>
        <pt x="286" y="545" on="1"/>
        <pt x="356" y="545" on="0"/>
        <pt x="462" y="502" on="0"/>
        <pt x="533" y="429" on="0"/>
        <pt x="568" y="330" on="0"/>
        <pt x="568" y="274" on="1"/>
        <pt x="568" y="212" on="0"/>
        <pt x="528" y="111" on="0"/>
        <pt x="455" y="39" on="0"/>
        <pt x="350" y="0" on="0"/>
        <pt x="286" y="0" on="1"/>
      </contour>
      <contour>
        <pt x="521" y="274" on="1"/>
        <pt x="521" y="324" on="0"/>
        <pt x="490" y="408" on="0"/>
        <pt x="430" y="468" on="0"/>
        <pt x="343" y="502" on="0"/>
        <pt x="286" y="502" on="1"/>
        <pt x="134" y="502" on="1"/>
        <pt x="134" y="42" on="1"/>
        <pt x="286" y="42" on="1"/>
        <pt x="344" y="42" on="0"/>
        <pt x="432" y="77" on="0"/>
        <pt x="491" y="140" on="0"/>
        <pt x="521" y="224" on="0"/>
      </contour>
    </TTGlyph>
    <TTGlyph name="Dcaron" xMin="93" yMin="0" xMax="666" yMax="917">
      <contour>
        <pt x="262" y="917" on="1"/>
        <pt x="347" y="854" on="1"/>
        <pt x="432" y="917" on="1"/>
        <pt x="462" y="900" on="1"/>
        <pt x="365" y="819" on="1"/>
        <pt x="328" y="819" on="1"/>
        <pt x="232" y="900" on="1"/>
      </contour>
      <contour>
        <pt x="93" y="0" on="1"/>
        <pt x="93" y="710" on="1"/>
        <pt x="329" y="710" on="1"/>
        <pt x="413" y="710" on="0"/>
        <pt x="540" y="654" on="0"/>
        <pt x="624" y="558" on="0"/>
        <pt x="666" y="429" on="0"/>
        <pt x="666" y="356" on="1"/>
        <pt x="666" y="275" on="0"/>
        <pt x="619" y="144" on="0"/>
        <pt x="531" y="51" on="0"/>
        <pt x="406" y="0" on="0"/>
        <pt x="329" y="0" on="1"/>
      </contour>
      <contour>
        <pt x="615" y="356" on="1"/>
        <pt x="615" y="423" on="0"/>
        <pt x="577" y="536" on="0"/>
        <pt x="504" y="618" on="0"/>
        <pt x="398" y="664" on="0"/>
        <pt x="329" y="664" on="1"/>
        <pt x="144" y="664" on="1"/>
        <pt x="144" y="46" on="1"/>
        <pt x="329" y="46" on="1"/>
        <pt x="399" y="46" on="0"/>
        <pt x="506" y="93" on="0"/>
        <pt x="578" y="177" on="0"/>
        <pt x="615" y="290" on="0"/>
      </contour>
    </TTGlyph>
    <TTGlyph name="Dcroat" xMin="35" yMin="0" xMax="673" yMax="710">
      <contour>
        <pt x="100" y="0" on="1"/>
        <pt x="100" y="336" on="1"/>
        <pt x="35" y="336" on="1"/>
        <pt x="35" y="378" on="1"/>
        <pt x="100" y="378" on="1"/>
        <pt x="100" y="710" on="1"/>
        <pt x="336" y="710" on="1"/>
        <pt x="420" y="710" on="0"/>
        <pt x="547" y="654" on="0"/>
        <pt x="631" y="558" on="0"/>
        <pt x="673" y="429" on="0"/>
        <pt x="673" y="356" on="1"/>
        <pt x="673" y="275" on="0"/>
        <pt x="626" y="144" on="0"/>
        <pt x="538" y="51" on="0"/>
        <pt x="413" y="0" on="0"/>
        <pt x="336" y="0" on="1"/>
      </contour>
      <contour>
        <pt x="622" y="356" on="1"/>
        <pt x="622" y="423" on="0"/>
        <pt x="584" y="536" on="0"/>
        <pt x="511" y="618" on="0"/>
        <pt x="405" y="664" on="0"/>
        <pt x="336" y="664" on="1"/>
        <pt x="151" y="664" on="1"/>
        <pt x="151" y="378" on="1"/>
        <pt x="329" y="378" on="1"/>
        <pt x="329" y="336" on="1"/>
        <pt x="151" y="336" on="1"/>
        <pt x="151" y="46" on="1"/>
        <pt x="336" y="46" on="1"/>
        <pt x="406" y="46" on="0"/>
        <pt x="513" y="93" on="0"/>
        <pt x="585" y="177" on="0"/>
        <pt x="622" y="290" on="0"/>
      </contour>
    </TTGlyph>
    <TTGlyph name="Ddotbelow" xMin="93" yMin="-151" xMax="666" yMax="710">
      <contour>
        <pt x="315" y="-151" on="1"/>
        <pt x="315" y="-61" on="1"/>
        <pt x="361" y="-61" on="1"/>
        <pt x="361" y="-151" on="1"/>
      </contour>
      <contour>
        <pt x="93" y="0" on="1"/>
        <pt x="93" y="710" on="1"/>
        <pt x="329" y="710" on="1"/>
        <pt x="413" y="710" on="0"/>
        <pt x="540" y="654" on="0"/>
        <pt x="624" y="558" on="0"/>
        <pt x="666" y="429" on="0"/>
        <pt x="666" y="356" on="1"/>
        <pt x="666" y="275" on="0"/>
        <pt x="619" y="144" on="0"/>
        <pt x="531" y="51" on="0"/>
        <pt x="406" y="0" on="0"/>
        <pt x="329" y="0" on="1"/>
      </contour>
      <contour>
        <pt x="615" y="356" on="1"/>
        <pt x="615" y="423" on="0"/>
        <pt x="577" y="536" on="0"/>
        <pt x="504" y="618" on="0"/>
        <pt x="398" y="664" on="0"/>
        <pt x="329" y="664" on="1"/>
        <pt x="144" y="664" on="1"/>
        <pt x="144" y="46" on="1"/>
        <pt x="329" y="46" on="1"/>
        <pt x="399" y="46" on="0"/>
        <pt x="506" y="93" on="0"/>
        <pt x="578" y="177" on="0"/>
        <pt x="615" y="290" on="0"/>
      </contour>
    </TTGlyph>
    <TTGlyph name="Delta" xMin="5" yMin="0" xMax="606" yMax="710">
      <contour>
        <pt x="606" y="41" on="1"/>
        <pt x="606" y="0" on="1"/>
        <pt x="5" y="0" on="1"/>
        <pt x="5" y="41" on="1"/>
        <pt x="285" y="710" on="1"/>
        <pt x="327" y="710" on="1"/>
      </contour>
      <contour>
        <pt x="550" y="46" on="1"/>
        <pt x="306" y="648" on="1"/>
        <pt x="62" y="46" on="1"/>
      </contour>
    </TTGlyph>
    <TTGlyph name="E" xMin="93" yMin="0" xMax="566" yMax="710">
      <contour>
        <pt x="566" y="46" on="1"/>
        <pt x="566" y="0" on="1"/>
        <pt x="93" y="0" on="1"/>
        <pt x="93" y="710" on="1"/>
        <pt x="557" y="710" on="1"/>
        <pt x="557" y="664" on="1"/>
        <pt x="144" y="664" on="1"/>
        <pt x="144" y="385" on="1"/>
        <pt x="505" y="385" on="1"/>
        <pt x="505" y="341" on="1"/>
        <pt x="144" y="341" on="1"/>
        <pt x="144" y="46" on="1"/>
      </contour>
    </TTGlyph>
    <TTGlyph name="E.sc" xMin="88" yMin="0" xMax="484" yMax="545">
      <contour>
        <pt x="484" y="42" on="1"/>
        <pt x="484" y="0" on="1"/>
        <pt x="88" y="0" on="1"/>
        <pt x="88" y="545" on="1"/>
        <pt x="476" y="545" on="1"/>
        <pt x="476" y="502" on="1"/>
        <pt x="134" y="502" on="1"/>
        <pt x="134" y="298" on="1"/>
        <pt x="433" y="298" on="1"/>
        <pt x="433" y="258" on="1"/>
        <pt x="134" y="258" on="1"/>
        <pt x="134" y="42" on="1"/>
      </contour>
    </TTGlyph>
    <TTGlyph name="Eacute" xMin="93" yMin="0" xMax="566" yMax="917">
      <contour>
        <pt x="339" y="816" on="1"/>
        <pt x="304" y="832" on="1"/>
        <pt x="365" y="917" on="1"/>
        <pt x="423" y="917" on="1"/>
      </contour>
      <contour>
        <pt x="566" y="46" on="1"/>
        <pt x="566" y="0" on="1"/>
        <pt x="93" y="0" on="1"/>
        <pt x="93" y="710" on="1"/>
        <pt x="557" y="710" on="1"/>
        <pt x="557" y="664" on="1"/>
        <pt x="144" y="664" on="1"/>
        <pt x="144" y="385" on="1"/>
        <pt x="505" y="385" on="1"/>
        <pt x="505" y="341" on="1"/>
        <pt x="144" y="341" on="1"/>
        <pt x="144" y="46" on="1"/>
      </contour>
    </TTGlyph>
    <TTGlyph name="Ebreve" xMin="93" yMin="0" xMax="566" yMax="917">
      <contour>
        <pt x="566" y="46" on="1"/>
        <pt x="566" y="0" on="1"/>
        <pt x="93" y="0" on="1"/>
        <pt x="93" y="710" on="1"/>
        <pt x="557" y="710" on="1"/>
        <pt x="557" y="664" on="1"/>
        <pt x="144" y="664" on="1"/>
        <pt x="144" y="385" on="1"/>
        <pt x="505" y="385" on="1"/>
        <pt x="505" y="341" on="1"/>
        <pt x="144" y="341" on="1"/>
        <pt x="144" y="46" on="1"/>
      </contour>
      <contour>
        <pt x="340" y="853" on="1"/>
        <pt x="360" y="853" on="0"/>
        <pt x="393" y="890" on="0"/>
        <pt x="396" y="917" on="1"/>
        <pt x="429" y="917" on="1"/>
        <pt x="429" y="898" on="0"/>
        <pt x="415" y="864" on="0"/>
        <pt x="390" y="839" on="0"/>
        <pt x="358" y="825" on="0"/>
        <pt x="340" y="825" on="1"/>
        <pt x="322" y="825" on="0"/>
        <pt x="289" y="839" on="0"/>
        <pt x="265" y="864" on="0"/>
        <pt x="251" y="898" on="0"/>
        <pt x="251" y="917" on="1"/>
        <pt x="284" y="917" on="1"/>
        <pt x="284" y="892" on="0"/>
        <pt x="318" y="853" on="0"/>
      </contour>
    </TTGlyph>
    <TTGlyph name="Ecaron" xMin="93" yMin="0" xMax="566" yMax="917">
      <contour>
        <pt x="255" y="917" on="1"/>
        <pt x="340" y="854" on="1"/>
        <pt x="425" y="917" on="1"/>
        <pt x="455" y="900" on="1"/>
        <pt x="358" y="819" on="1"/>
        <pt x="321" y="819" on="1"/>
        <pt x="225" y="900" on="1"/>
      </contour>
      <contour>
        <pt x="566" y="46" on="1"/>
        <pt x="566" y="0" on="1"/>
        <pt x="93" y="0" on="1"/>
        <pt x="93" y="710" on="1"/>
        <pt x="557" y="710" on="1"/>
        <pt x="557" y="664" on="1"/>
        <pt x="144" y="664" on="1"/>
        <pt x="144" y="385" on="1"/>
        <pt x="505" y="385" on="1"/>
        <pt x="505" y="341" on="1"/>
        <pt x="144" y="341" on="1"/>
        <pt x="144" y="46" on="1"/>
      </contour>
    </TTGlyph>
    <TTGlyph name="Ecircumflex" xMin="93" yMin="0" xMax="566" yMax="917">
      <contour>
        <pt x="225" y="836" on="1"/>
        <pt x="321" y="917" on="1"/>
        <pt x="358" y="917" on="1"/>
        <pt x="455" y="836" on="1"/>
        <pt x="425" y="819" on="1"/>
        <pt x="340" y="882" on="1"/>
        <pt x="255" y="819" on="1"/>
      </contour>
      <contour>
        <pt x="566" y="46" on="1"/>
        <pt x="566" y="0" on="1"/>
        <pt x="93" y="0" on="1"/>
        <pt x="93" y="710" on="1"/>
        <pt x="557" y="710" on="1"/>
        <pt x="557" y="664" on="1"/>
        <pt x="144" y="664" on="1"/>
        <pt x="144" y="385" on="1"/>
        <pt x="505" y="385" on="1"/>
        <pt x="505" y="341" on="1"/>
        <pt x="144" y="341" on="1"/>
        <pt x="144" y="46" on="1"/>
      </contour>
    </TTGlyph>
    <TTGlyph name="Edblgrave" xMin="93" yMin="0" xMax="566" yMax="918">
      <contour>
        <pt x="305" y="918" on="1"/>
        <pt x="357" y="918" on="1"/>
        <pt x="417" y="833" on="1"/>
        <pt x="388" y="817" on="1"/>
      </contour>
      <contour>
        <pt x="189" y="918" on="1"/>
        <pt x="242" y="918" on="1"/>
        <pt x="301" y="833" on="1"/>
        <pt x="272" y="817" on="1"/>
      </contour>
      <contour>
        <pt x="566" y="46" on="1"/>
        <pt x="566" y="0" on="1"/>
        <pt x="93" y="0" on="1"/>
        <pt x="93" y="710" on="1"/>
        <pt x="557" y="710" on="1"/>
        <pt x="557" y="664" on="1"/>
        <pt x="144" y="664" on="1"/>
        <pt x="144" y="385" on="1"/>
        <pt x="505" y="385" on="1"/>
        <pt x="505" y="341" on="1"/>
        <pt x="144" y="341" on="1"/>
        <pt x="144" y="46" on="1"/>
      </contour>
    </TTGlyph>
    <TTGlyph name="Edieresis" xMin="93" yMin="0" xMax="566" yMax="916">
      <contour>
        <pt x="249" y="828" on="1"/>
        <pt x="249" y="916" on="1"/>
        <pt x="293" y="916" on="1"/>
        <pt x="293" y="828" on="1"/>
      </contour>
      <contour>
        <pt x="385" y="828" on="1"/>
        <pt x="385" y="916" on="1"/>
        <pt x="429" y="916" on="1"/>
        <pt x="429" y="828" on="1"/>
      </contour>
      <contour>
        <pt x="566" y="46" on="1"/>
        <pt x="566" y="0" on="1"/>
        <pt x="93" y="0" on="1"/>
        <pt x="93" y="710" on="1"/>
        <pt x="557" y="710" on="1"/>
        <pt x="557" y="664" on="1"/>
        <pt x="144" y="664" on="1"/>
        <pt x="144" y="385" on="1"/>
        <pt x="505" y="385" on="1"/>
        <pt x="505" y="341" on="1"/>
        <pt x="144" y="341" on="1"/>
        <pt x="144" y="46" on="1"/>
      </contour>
    </TTGlyph>
    <TTGlyph name="Edotaccent" xMin="93" yMin="0" xMax="566" yMax="917">
      <contour>
        <pt x="566" y="46" on="1"/>
        <pt x="566" y="0" on="1"/>
        <pt x="93" y="0" on="1"/>
        <pt x="93" y="710" on="1"/>
        <pt x="557" y="710" on="1"/>
        <pt x="557" y="664" on="1"/>
        <pt x="144" y="664" on="1"/>
        <pt x="144" y="385" on="1"/>
        <pt x="505" y="385" on="1"/>
        <pt x="505" y="341" on="1"/>
        <pt x="144" y="341" on="1"/>
        <pt x="144" y="46" on="1"/>
      </contour>
      <contour>
        <pt x="316" y="827" on="1"/>
        <pt x="316" y="917" on="1"/>
        <pt x="362" y="917" on="1"/>
        <pt x="362" y="827" on="1"/>
      </contour>
    </TTGlyph>
    <TTGlyph name="Edotbelow" xMin="93" yMin="-151" xMax="566" yMax="710">
      <contour>
        <pt x="566" y="46" on="1"/>
        <pt x="566" y="0" on="1"/>
        <pt x="93" y="0" on="1"/>
        <pt x="93" y="710" on="1"/>
        <pt x="557" y="710" on="1"/>
        <pt x="557" y="664" on="1"/>
        <pt x="144" y="664" on="1"/>
        <pt x="144" y="385" on="1"/>
        <pt x="505" y="385" on="1"/>
        <pt x="505" y="341" on="1"/>
        <pt x="144" y="341" on="1"/>
        <pt x="144" y="46" on="1"/>
      </contour>
      <contour>
        <pt x="308" y="-151" on="1"/>
        <pt x="308" y="-61" on="1"/>
        <pt x="354" y="-61" on="1"/>
        <pt x="354" y="-151" on="1"/>
      </contour>
    </TTGlyph>
    <TTGlyph name="Egrave" xMin="93" yMin="0" xMax="566" yMax="918">
      <contour>
        <pt x="566" y="46" on="1"/>
        <pt x="566" y="0" on="1"/>
        <pt x="93" y="0" on="1"/>
        <pt x="93" y="710" on="1"/>
        <pt x="557" y="710" on="1"/>
        <pt x="557" y="664" on="1"/>
        <pt x="144" y="664" on="1"/>
        <pt x="144" y="385" on="1"/>
        <pt x="505" y="385" on="1"/>
        <pt x="505" y="341" on="1"/>
        <pt x="144" y="341" on="1"/>
        <pt x="144" y="46" on="1"/>
      </contour>
      <contour>
        <pt x="256" y="918" on="1"/>
        <pt x="313" y="918" on="1"/>
        <pt x="375" y="833" on="1"/>
        <pt x="341" y="817" on="1"/>
      </contour>
    </TTGlyph>
    <TTGlyph name="Einvertedbreve" xMin="93" yMin="0" xMax="566" yMax="917">
      <contour>
        <pt x="331" y="889" on="1"/>
        <pt x="309" y="889" on="0"/>
        <pt x="275" y="850" on="0"/>
        <pt x="275" y="825" on="1"/>
        <pt x="242" y="825" on="1"/>
        <pt x="242" y="844" on="0"/>
        <pt x="256" y="878" on="0"/>
        <pt x="280" y="903" on="0"/>
        <pt x="313" y="917" on="0"/>
        <pt x="331" y="917" on="1"/>
        <pt x="349" y="917" on="0"/>
        <pt x="381" y="903" on="0"/>
        <pt x="406" y="878" on="0"/>
        <pt x="420" y="844" on="0"/>
        <pt x="420" y="825" on="1"/>
        <pt x="387" y="825" on="1"/>
        <pt x="384" y="852" on="0"/>
        <pt x="351" y="889" on="0"/>
      </contour>
      <contour>
        <pt x="566" y="46" on="1"/>
        <pt x="566" y="0" on="1"/>
        <pt x="93" y="0" on="1"/>
        <pt x="93" y="710" on="1"/>
        <pt x="557" y="710" on="1"/>
        <pt x="557" y="664" on="1"/>
        <pt x="144" y="664" on="1"/>
        <pt x="144" y="385" on="1"/>
        <pt x="505" y="385" on="1"/>
        <pt x="505" y="341" on="1"/>
        <pt x="144" y="341" on="1"/>
        <pt x="144" y="46" on="1"/>
      </contour>
    </TTGlyph>
    <TTGlyph name="Emacron" xMin="93" yMin="0" xMax="566" yMax="896">
      <contour>
        <pt x="566" y="46" on="1"/>
        <pt x="566" y="0" on="1"/>
        <pt x="93" y="0" on="1"/>
        <pt x="93" y="710" on="1"/>
        <pt x="557" y="710" on="1"/>
        <pt x="557" y="664" on="1"/>
        <pt x="144" y="664" on="1"/>
        <pt x="144" y="385" on="1"/>
        <pt x="505" y="385" on="1"/>
        <pt x="505" y="341" on="1"/>
        <pt x="144" y="341" on="1"/>
        <pt x="144" y="46" on="1"/>
      </contour>
      <contour>
        <pt x="198" y="859" on="1"/>
        <pt x="198" y="896" on="1"/>
        <pt x="483" y="896" on="1"/>
        <pt x="483" y="859" on="1"/>
      </contour>
    </TTGlyph>
    <TTGlyph name="Eng" xMin="93" yMin="-177" xMax="677" yMax="710">
      <contour>
        <pt x="144" y="613" on="1"/>
        <pt x="144" y="0" on="1"/>
        <pt x="93" y="0" on="1"/>
        <pt x="93" y="710" on="1"/>
        <pt x="132" y="710" on="1"/>
        <pt x="626" y="87" on="1"/>
        <pt x="626" y="709" on="1"/>
        <pt x="677" y="709" on="1"/>
        <pt x="677" y="-29" on="1"/>
        <pt x="677" y="-62" on="0"/>
        <pt x="651" y="-116" on="0"/>
        <pt x="610" y="-155" on="0"/>
        <pt x="558" y="-177" on="0"/>
        <pt x="531" y="-177" on="1"/>
        <pt x="499" y="-177" on="0"/>
        <pt x="444" y="-160" on="0"/>
        <pt x="422" y="-140" on="1"/>
        <pt x="449" y="-107" on="1"/>
        <pt x="466" y="-121" on="0"/>
        <pt x="506" y="-131" on="0"/>
        <pt x="526" y="-131" on="1"/>
        <pt x="544" y="-131" on="0"/>
        <pt x="581" y="-116" on="0"/>
        <pt x="609" y="-89" on="0"/>
        <pt x="627" y="-52" on="0"/>
        <pt x="627" y="-30" on="1"/>
        <pt x="627" y="4" on="1"/>
      </contour>
    </TTGlyph>
    <TTGlyph name="Eogonek" xMin="93" yMin="-169" xMax="566" yMax="710">
      <contour>
        <pt x="566" y="46" on="1"/>
        <pt x="566" y="0" on="1"/>
        <pt x="521" y="-29" on="0"/>
        <pt x="484" y="-71" on="0"/>
        <pt x="484" y="-94" on="1"/>
        <pt x="484" y="-132" on="0"/>
        <pt x="533" y="-139" on="1"/>
        <pt x="517" y="-169" on="1"/>
        <pt x="485" y="-162" on="0"/>
        <pt x="450" y="-126" on="0"/>
        <pt x="450" y="-101" on="1"/>
        <pt x="450" y="-76" on="0"/>
        <pt x="485" y="-27" on="0"/>
        <pt x="523" y="0" on="1"/>
        <pt x="93" y="0" on="1"/>
        <pt x="93" y="710" on="1"/>
        <pt x="557" y="710" on="1"/>
        <pt x="557" y="664" on="1"/>
        <pt x="144" y="664" on="1"/>
        <pt x="144" y="385" on="1"/>
        <pt x="505" y="385" on="1"/>
        <pt x="505" y="341" on="1"/>
        <pt x="144" y="341" on="1"/>
        <pt x="144" y="46" on="1"/>
      </contour>
    </TTGlyph>
    <TTGlyph name="Eth" xMin="35" yMin="0" xMax="673" yMax="710">
      <contour>
        <pt x="100" y="0" on="1"/>
        <pt x="100" y="336" on="1"/>
        <pt x="35" y="336" on="1"/>
        <pt x="35" y="378" on="1"/>
        <pt x="100" y="378" on="1"/>
        <pt x="100" y="710" on="1"/>
        <pt x="336" y="710" on="1"/>
        <pt x="420" y="710" on="0"/>
        <pt x="547" y="654" on="0"/>
        <pt x="631" y="558" on="0"/>
        <pt x="673" y="429" on="0"/>
        <pt x="673" y="356" on="1"/>
        <pt x="673" y="275" on="0"/>
        <pt x="626" y="144" on="0"/>
        <pt x="538" y="51" on="0"/>
        <pt x="413" y="0" on="0"/>
        <pt x="336" y="0" on="1"/>
      </contour>
      <contour>
        <pt x="622" y="356" on="1"/>
        <pt x="622" y="423" on="0"/>
        <pt x="584" y="536" on="0"/>
        <pt x="511" y="618" on="0"/>
        <pt x="405" y="664" on="0"/>
        <pt x="336" y="664" on="1"/>
        <pt x="151" y="664" on="1"/>
        <pt x="151" y="378" on="1"/>
        <pt x="329" y="378" on="1"/>
        <pt x="329" y="336" on="1"/>
        <pt x="151" y="336" on="1"/>
        <pt x="151" y="46" on="1"/>
        <pt x="336" y="46" on="1"/>
        <pt x="406" y="46" on="0"/>
        <pt x="513" y="93" on="0"/>
        <pt x="585" y="177" on="0"/>
        <pt x="622" y="290" on="0"/>
      </contour>
    </TTGlyph>
    <TTGlyph name="Etilde" xMin="93" yMin="0" xMax="566" yMax="917">
      <contour>
        <pt x="566" y="46" on="1"/>
        <pt x="566" y="0" on="1"/>
        <pt x="93" y="0" on="1"/>
        <pt x="93" y="710" on="1"/>
        <pt x="557" y="710" on="1"/>
        <pt x="557" y="664" on="1"/>
        <pt x="144" y="664" on="1"/>
        <pt x="144" y="385" on="1"/>
        <pt x="505" y="385" on="1"/>
        <pt x="505" y="341" on="1"/>
        <pt x="144" y="341" on="1"/>
        <pt x="144" y="46" on="1"/>
      </contour>
      <contour>
        <pt x="401" y="834" on="1"/>
        <pt x="379" y="834" on="0"/>
        <pt x="345" y="846" on="0"/>
        <pt x="317" y="861" on="0"/>
        <pt x="290" y="874" on="0"/>
        <pt x="275" y="874" on="1"/>
        <pt x="258" y="874" on="0"/>
        <pt x="238" y="860" on="0"/>
        <pt x="228" y="843" on="0"/>
        <pt x="224" y="828" on="0"/>
        <pt x="224" y="826" on="1"/>
        <pt x="190" y="826" on="1"/>
        <pt x="190" y="830" on="0"/>
        <pt x="196" y="857" on="0"/>
        <pt x="215" y="886" on="0"/>
        <pt x="248" y="909" on="0"/>
        <pt x="275" y="909" on="1"/>
        <pt x="295" y="909" on="0"/>
        <pt x="326" y="896" on="0"/>
        <pt x="354" y="881" on="0"/>
        <pt x="383" y="869" on="0"/>
        <pt x="402" y="869" on="1"/>
        <pt x="422" y="869" on="0"/>
        <pt x="445" y="883" on="0"/>
        <pt x="456" y="900" on="0"/>
        <pt x="459" y="915" on="0"/>
        <pt x="459" y="917" on="1"/>
        <pt x="493" y="917" on="1"/>
        <pt x="493" y="912" on="0"/>
        <pt x="486" y="885" on="0"/>
        <pt x="467" y="857" on="0"/>
        <pt x="431" y="834" on="0"/>
      </contour>
    </TTGlyph>
    <TTGlyph name="Euro" xMin="33" yMin="-6" xMax="754" yMax="714">
      <contour>
        <pt x="144" y="410" on="1"/>
        <pt x="152" y="468" on="0"/>
        <pt x="204" y="578" on="0"/>
        <pt x="289" y="663" on="0"/>
        <pt x="405" y="714" on="0"/>
        <pt x="477" y="714" on="1"/>
        <pt x="572" y="714" on="0"/>
        <pt x="706" y="627" on="0"/>
        <pt x="739" y="559" on="1"/>
        <pt x="697" y="535" on="1"/>
        <pt x="678" y="572" on="0"/>
        <pt x="627" y="622" on="0"/>
        <pt x="568" y="653" on="0"/>
        <pt x="504" y="667" on="0"/>
        <pt x="473" y="667" on="1"/>
        <pt x="413" y="667" on="0"/>
        <pt x="318" y="624" on="0"/>
        <pt x="247" y="552" on="0"/>
        <pt x="203" y="459" on="0"/>
        <pt x="196" y="410" on="1"/>
        <pt x="555" y="410" on="1"/>
        <pt x="540" y="376" on="1"/>
        <pt x="192" y="376" on="1"/>
        <pt x="192" y="357" on="1"/>
        <pt x="192" y="333" on="0"/>
        <pt x="195" y="311" on="1"/>
        <pt x="518" y="311" on="1"/>
        <pt x="502" y="277" on="1"/>
        <pt x="201" y="277" on="1"/>
        <pt x="213" y="227" on="0"/>
        <pt x="264" y="141" on="0"/>
        <pt x="336" y="78" on="0"/>
        <pt x="426" y="41" on="0"/>
        <pt x="476" y="41" on="1"/>
        <pt x="508" y="41" on="0"/>
        <pt x="576" y="57" on="0"/>
        <pt x="638" y="91" on="0"/>
        <pt x="692" y="144" on="0"/>
        <pt x="710" y="180" on="1"/>
        <pt x="754" y="159" on="1"/>
        <pt x="736" y="119" on="0"/>
        <pt x="674" y="57" on="0"/>
        <pt x="598" y="15" on="0"/>
        <pt x="513" y="-6" on="0"/>
        <pt x="472" y="-6" on="1"/>
        <pt x="410" y="-6" on="0"/>
        <pt x="304" y="40" on="0"/>
        <pt x="220" y="118" on="0"/>
        <pt x="163" y="221" on="0"/>
        <pt x="150" y="277" on="1"/>
        <pt x="33" y="277" on="1"/>
        <pt x="48" y="311" on="1"/>
        <pt x="144" y="311" on="1"/>
        <pt x="141" y="335" on="0"/>
        <pt x="141" y="360" on="1"/>
        <pt x="141" y="376" on="1"/>
        <pt x="66" y="376" on="1"/>
        <pt x="81" y="410" on="1"/>
      </contour>
    </TTGlyph>
    <TTGlyph name="F" xMin="93" yMin="0" xMax="555" yMax="710">
      <contour>
        <pt x="93" y="0" on="1"/>
        <pt x="93" y="710" on="1"/>
        <pt x="555" y="710" on="1"/>
        <pt x="555" y="664" on="1"/>
        <pt x="144" y="664" on="1"/>
        <pt x="144" y="382" on="1"/>
        <pt x="493" y="382" on="1"/>
        <pt x="493" y="338" on="1"/>
        <pt x="144" y="338" on="1"/>
        <pt x="144" y="0" on="1"/>
      </contour>
    </TTGlyph>
    <TTGlyph name="F.sc" xMin="88" yMin="0" xMax="474" yMax="545">
      <contour>
        <pt x="88" y="0" on="1"/>
        <pt x="88" y="545" on="1"/>
        <pt x="474" y="545" on="1"/>
        <pt x="474" y="502" on="1"/>
        <pt x="134" y="502" on="1"/>
        <pt x="134" y="296" on="1"/>
        <pt x="423" y="296" on="1"/>
        <pt x="423" y="255" on="1"/>
        <pt x="134" y="255" on="1"/>
        <pt x="134" y="0" on="1"/>
      </contour>
    </TTGlyph>
    <TTGlyph name="G" xMin="44" yMin="-5" xMax="660" yMax="715">
      <contour>
        <pt x="616" y="111" on="1"/>
        <pt x="513" y="-5" on="0"/>
        <pt x="377" y="-5" on="1"/>
        <pt x="305" y="-5" on="0"/>
        <pt x="182" y="57" on="0"/>
        <pt x="94" y="159" on="0"/>
        <pt x="44" y="289" on="0"/>
        <pt x="44" y="356" on="1"/>
        <pt x="44" y="426" on="0"/>
        <pt x="93" y="556" on="0"/>
        <pt x="180" y="656" on="0"/>
        <pt x="300" y="715" on="0"/>
        <pt x="371" y="715" on="1"/>
        <pt x="424" y="715" on="0"/>
        <pt x="509" y="692" on="0"/>
        <pt x="576" y="651" on="0"/>
        <pt x="625" y="594" on="0"/>
        <pt x="642" y="560" on="1"/>
        <pt x="600" y="535" on="1"/>
        <pt x="564" y="605" on="0"/>
        <pt x="445" y="668" on="0"/>
        <pt x="370" y="668" on="1"/>
        <pt x="307" y="668" on="0"/>
        <pt x="205" y="614" on="0"/>
        <pt x="133" y="526" on="0"/>
        <pt x="95" y="414" on="0"/>
        <pt x="95" y="355" on="1"/>
        <pt x="95" y="292" on="0"/>
        <pt x="139" y="179" on="0"/>
        <pt x="216" y="93" on="0"/>
        <pt x="320" y="42" on="0"/>
        <pt x="380" y="42" on="1"/>
        <pt x="445" y="42" on="0"/>
        <pt x="562" y="102" on="0"/>
        <pt x="616" y="167" on="1"/>
        <pt x="616" y="304" on="1"/>
        <pt x="455" y="304" on="1"/>
        <pt x="455" y="345" on="1"/>
        <pt x="660" y="345" on="1"/>
        <pt x="660" y="0" on="1"/>
        <pt x="616" y="0" on="1"/>
      </contour>
    </TTGlyph>
    <TTGlyph name="G.alt" xMin="44" yMin="-5" xMax="706" yMax="715">
      <contour>
        <pt x="379" y="-5" on="1"/>
        <pt x="306" y="-5" on="0"/>
        <pt x="183" y="56" on="0"/>
        <pt x="94" y="157" on="0"/>
        <pt x="44" y="288" on="0"/>
        <pt x="44" y="357" on="1"/>
        <pt x="44" y="427" on="0"/>
        <pt x="94" y="557" on="0"/>
        <pt x="184" y="656" on="0"/>
        <pt x="307" y="715" on="0"/>
        <pt x="379" y="715" on="1"/>
        <pt x="468" y="715" on="0"/>
        <pt x="607" y="629" on="0"/>
        <pt x="649" y="560" on="1"/>
        <pt x="610" y="527" on="1"/>
        <pt x="593" y="555" on="0"/>
        <pt x="545" y="607" on="0"/>
        <pt x="486" y="645" on="0"/>
        <pt x="416" y="668" on="0"/>
        <pt x="376" y="668" on="1"/>
        <pt x="313" y="668" on="0"/>
        <pt x="209" y="614" on="0"/>
        <pt x="136" y="525" on="0"/>
        <pt x="96" y="412" on="0"/>
        <pt x="96" y="353" on="1"/>
        <pt x="96" y="294" on="0"/>
        <pt x="137" y="182" on="0"/>
        <pt x="211" y="95" on="0"/>
        <pt x="314" y="42" on="0"/>
        <pt x="377" y="42" on="1"/>
        <pt x="432" y="42" on="0"/>
        <pt x="526" y="84" on="0"/>
        <pt x="598" y="155" on="0"/>
        <pt x="643" y="246" on="0"/>
        <pt x="651" y="295" on="1"/>
        <pt x="429" y="295" on="1"/>
        <pt x="429" y="341" on="1"/>
        <pt x="706" y="341" on="1"/>
        <pt x="706" y="337" on="0"/>
        <pt x="705" y="314" on="0"/>
        <pt x="705" y="308" on="1"/>
        <pt x="698" y="246" on="0"/>
        <pt x="644" y="133" on="0"/>
        <pt x="559" y="46" on="0"/>
        <pt x="445" y="-5" on="0"/>
      </contour>
    </TTGlyph>
    <TTGlyph name="G.sc" xMin="47" yMin="-4" xMax="560" yMax="548">
      <contour>
        <pt x="519" y="81" on="1"/>
        <pt x="435" y="-4" on="0"/>
        <pt x="323" y="-4" on="1"/>
        <pt x="263" y="-4" on="0"/>
        <pt x="162" y="44" on="0"/>
        <pt x="88" y="122" on="0"/>
        <pt x="47" y="222" on="0"/>
        <pt x="47" y="274" on="1"/>
        <pt x="47" y="328" on="0"/>
        <pt x="88" y="427" on="0"/>
        <pt x="160" y="503" on="0"/>
        <pt x="260" y="548" on="0"/>
        <pt x="319" y="548" on="1"/>
        <pt x="407" y="548" on="0"/>
        <pt x="516" y="482" on="0"/>
        <pt x="544" y="430" on="1"/>
        <pt x="506" y="406" on="1"/>
        <pt x="477" y="458" on="0"/>
        <pt x="379" y="506" on="0"/>
        <pt x="317" y="506" on="1"/>
        <pt x="266" y="506" on="0"/>
        <pt x="183" y="466" on="0"/>
        <pt x="125" y="400" on="0"/>
        <pt x="94" y="316" on="0"/>
        <pt x="94" y="272" on="1"/>
        <pt x="94" y="225" on="0"/>
        <pt x="130" y="141" on="0"/>
        <pt x="193" y="77" on="0"/>
        <pt x="278" y="39" on="0"/>
        <pt x="327" y="39" on="1"/>
        <pt x="379" y="39" on="0"/>
        <pt x="474" y="83" on="0"/>
        <pt x="519" y="131" on="1"/>
        <pt x="519" y="229" on="1"/>
        <pt x="386" y="229" on="1"/>
        <pt x="386" y="266" on="1"/>
        <pt x="560" y="266" on="1"/>
        <pt x="560" y="0" on="1"/>
        <pt x="519" y="0" on="1"/>
      </contour>
    </TTGlyph>
    <TTGlyph name="Gacute" xMin="44" yMin="-5" xMax="660" yMax="917">
      <contour>
        <pt x="371" y="816" on="1"/>
        <pt x="336" y="832" on="1"/>
        <pt x="397" y="917" on="1"/>
        <pt x="455" y="917" on="1"/>
      </contour>
      <contour>
        <pt x="616" y="111" on="1"/>
        <pt x="513" y="-5" on="0"/>
        <pt x="377" y="-5" on="1"/>
        <pt x="305" y="-5" on="0"/>
        <pt x="182" y="57" on="0"/>
        <pt x="94" y="159" on="0"/>
        <pt x="44" y="289" on="0"/>
        <pt x="44" y="356" on="1"/>
        <pt x="44" y="426" on="0"/>
        <pt x="93" y="556" on="0"/>
        <pt x="180" y="656" on="0"/>
        <pt x="300" y="715" on="0"/>
        <pt x="371" y="715" on="1"/>
        <pt x="424" y="715" on="0"/>
        <pt x="509" y="692" on="0"/>
        <pt x="576" y="651" on="0"/>
        <pt x="625" y="594" on="0"/>
        <pt x="642" y="560" on="1"/>
        <pt x="600" y="535" on="1"/>
        <pt x="564" y="605" on="0"/>
        <pt x="445" y="668" on="0"/>
        <pt x="370" y="668" on="1"/>
        <pt x="307" y="668" on="0"/>
        <pt x="205" y="614" on="0"/>
        <pt x="133" y="526" on="0"/>
        <pt x="95" y="414" on="0"/>
        <pt x="95" y="355" on="1"/>
        <pt x="95" y="292" on="0"/>
        <pt x="139" y="179" on="0"/>
        <pt x="216" y="93" on="0"/>
        <pt x="320" y="42" on="0"/>
        <pt x="380" y="42" on="1"/>
        <pt x="445" y="42" on="0"/>
        <pt x="562" y="102" on="0"/>
        <pt x="616" y="167" on="1"/>
        <pt x="616" y="304" on="1"/>
        <pt x="455" y="304" on="1"/>
        <pt x="455" y="345" on="1"/>
        <pt x="660" y="345" on="1"/>
        <pt x="660" y="0" on="1"/>
        <pt x="616" y="0" on="1"/>
      </contour>
    </TTGlyph>
    <TTGlyph name="Gbreve" xMin="44" yMin="-5" xMax="660" yMax="917">
      <contour>
        <pt x="616" y="111" on="1"/>
        <pt x="513" y="-5" on="0"/>
        <pt x="377" y="-5" on="1"/>
        <pt x="305" y="-5" on="0"/>
        <pt x="182" y="57" on="0"/>
        <pt x="94" y="159" on="0"/>
        <pt x="44" y="289" on="0"/>
        <pt x="44" y="356" on="1"/>
        <pt x="44" y="426" on="0"/>
        <pt x="93" y="556" on="0"/>
        <pt x="180" y="656" on="0"/>
        <pt x="300" y="715" on="0"/>
        <pt x="371" y="715" on="1"/>
        <pt x="424" y="715" on="0"/>
        <pt x="509" y="692" on="0"/>
        <pt x="576" y="651" on="0"/>
        <pt x="625" y="594" on="0"/>
        <pt x="642" y="560" on="1"/>
        <pt x="600" y="535" on="1"/>
        <pt x="564" y="605" on="0"/>
        <pt x="445" y="668" on="0"/>
        <pt x="370" y="668" on="1"/>
        <pt x="307" y="668" on="0"/>
        <pt x="205" y="614" on="0"/>
        <pt x="133" y="526" on="0"/>
        <pt x="95" y="414" on="0"/>
        <pt x="95" y="355" on="1"/>
        <pt x="95" y="292" on="0"/>
        <pt x="139" y="179" on="0"/>
        <pt x="216" y="93" on="0"/>
        <pt x="320" y="42" on="0"/>
        <pt x="380" y="42" on="1"/>
        <pt x="445" y="42" on="0"/>
        <pt x="562" y="102" on="0"/>
        <pt x="616" y="167" on="1"/>
        <pt x="616" y="304" on="1"/>
        <pt x="455" y="304" on="1"/>
        <pt x="455" y="345" on="1"/>
        <pt x="660" y="345" on="1"/>
        <pt x="660" y="0" on="1"/>
        <pt x="616" y="0" on="1"/>
      </contour>
      <contour>
        <pt x="370" y="853" on="1"/>
        <pt x="390" y="853" on="0"/>
        <pt x="423" y="890" on="0"/>
        <pt x="426" y="917" on="1"/>
        <pt x="459" y="917" on="1"/>
        <pt x="459" y="898" on="0"/>
        <pt x="445" y="864" on="0"/>
        <pt x="420" y="839" on="0"/>
        <pt x="388" y="825" on="0"/>
        <pt x="370" y="825" on="1"/>
        <pt x="352" y="825" on="0"/>
        <pt x="319" y="839" on="0"/>
        <pt x="295" y="864" on="0"/>
        <pt x="281" y="898" on="0"/>
        <pt x="281" y="917" on="1"/>
        <pt x="314" y="917" on="1"/>
        <pt x="314" y="892" on="0"/>
        <pt x="348" y="853" on="0"/>
      </contour>
    </TTGlyph>
    <TTGlyph name="Gcircumflex" xMin="44" yMin="-5" xMax="660" yMax="917">
      <contour>
        <pt x="255" y="836" on="1"/>
        <pt x="351" y="917" on="1"/>
        <pt x="388" y="917" on="1"/>
        <pt x="485" y="836" on="1"/>
        <pt x="455" y="819" on="1"/>
        <pt x="370" y="882" on="1"/>
        <pt x="285" y="819" on="1"/>
      </contour>
      <contour>
        <pt x="616" y="111" on="1"/>
        <pt x="513" y="-5" on="0"/>
        <pt x="377" y="-5" on="1"/>
        <pt x="305" y="-5" on="0"/>
        <pt x="182" y="57" on="0"/>
        <pt x="94" y="159" on="0"/>
        <pt x="44" y="289" on="0"/>
        <pt x="44" y="356" on="1"/>
        <pt x="44" y="426" on="0"/>
        <pt x="93" y="556" on="0"/>
        <pt x="180" y="656" on="0"/>
        <pt x="300" y="715" on="0"/>
        <pt x="371" y="715" on="1"/>
        <pt x="424" y="715" on="0"/>
        <pt x="509" y="692" on="0"/>
        <pt x="576" y="651" on="0"/>
        <pt x="625" y="594" on="0"/>
        <pt x="642" y="560" on="1"/>
        <pt x="600" y="535" on="1"/>
        <pt x="564" y="605" on="0"/>
        <pt x="445" y="668" on="0"/>
        <pt x="370" y="668" on="1"/>
        <pt x="307" y="668" on="0"/>
        <pt x="205" y="614" on="0"/>
        <pt x="133" y="526" on="0"/>
        <pt x="95" y="414" on="0"/>
        <pt x="95" y="355" on="1"/>
        <pt x="95" y="292" on="0"/>
        <pt x="139" y="179" on="0"/>
        <pt x="216" y="93" on="0"/>
        <pt x="320" y="42" on="0"/>
        <pt x="380" y="42" on="1"/>
        <pt x="445" y="42" on="0"/>
        <pt x="562" y="102" on="0"/>
        <pt x="616" y="167" on="1"/>
        <pt x="616" y="304" on="1"/>
        <pt x="455" y="304" on="1"/>
        <pt x="455" y="345" on="1"/>
        <pt x="660" y="345" on="1"/>
        <pt x="660" y="0" on="1"/>
        <pt x="616" y="0" on="1"/>
      </contour>
    </TTGlyph>
    <TTGlyph name="Gcommaaccent" xMin="44" yMin="-187" xMax="660" yMax="715">
      <contour>
        <pt x="352" y="-187" on="1"/>
        <pt x="367" y="-119" on="1"/>
        <pt x="351" y="-119" on="1"/>
        <pt x="351" y="-49" on="1"/>
        <pt x="400" y="-49" on="1"/>
        <pt x="400" y="-119" on="1"/>
        <pt x="379" y="-187" on="1"/>
      </contour>
      <contour>
        <pt x="616" y="111" on="1"/>
        <pt x="513" y="-5" on="0"/>
        <pt x="377" y="-5" on="1"/>
        <pt x="305" y="-5" on="0"/>
        <pt x="182" y="57" on="0"/>
        <pt x="94" y="159" on="0"/>
        <pt x="44" y="289" on="0"/>
        <pt x="44" y="356" on="1"/>
        <pt x="44" y="426" on="0"/>
        <pt x="93" y="556" on="0"/>
        <pt x="180" y="656" on="0"/>
        <pt x="300" y="715" on="0"/>
        <pt x="371" y="715" on="1"/>
        <pt x="424" y="715" on="0"/>
        <pt x="509" y="692" on="0"/>
        <pt x="576" y="651" on="0"/>
        <pt x="625" y="594" on="0"/>
        <pt x="642" y="560" on="1"/>
        <pt x="600" y="535" on="1"/>
        <pt x="564" y="605" on="0"/>
        <pt x="445" y="668" on="0"/>
        <pt x="370" y="668" on="1"/>
        <pt x="307" y="668" on="0"/>
        <pt x="205" y="614" on="0"/>
        <pt x="133" y="526" on="0"/>
        <pt x="95" y="414" on="0"/>
        <pt x="95" y="355" on="1"/>
        <pt x="95" y="292" on="0"/>
        <pt x="139" y="179" on="0"/>
        <pt x="216" y="93" on="0"/>
        <pt x="320" y="42" on="0"/>
        <pt x="380" y="42" on="1"/>
        <pt x="445" y="42" on="0"/>
        <pt x="562" y="102" on="0"/>
        <pt x="616" y="167" on="1"/>
        <pt x="616" y="304" on="1"/>
        <pt x="455" y="304" on="1"/>
        <pt x="455" y="345" on="1"/>
        <pt x="660" y="345" on="1"/>
        <pt x="660" y="0" on="1"/>
        <pt x="616" y="0" on="1"/>
      </contour>
    </TTGlyph>
    <TTGlyph name="Gdotaccent" xMin="44" yMin="-5" xMax="660" yMax="917">
      <contour>
        <pt x="616" y="111" on="1"/>
        <pt x="513" y="-5" on="0"/>
        <pt x="377" y="-5" on="1"/>
        <pt x="305" y="-5" on="0"/>
        <pt x="182" y="57" on="0"/>
        <pt x="94" y="159" on="0"/>
        <pt x="44" y="289" on="0"/>
        <pt x="44" y="356" on="1"/>
        <pt x="44" y="426" on="0"/>
        <pt x="93" y="556" on="0"/>
        <pt x="180" y="656" on="0"/>
        <pt x="300" y="715" on="0"/>
        <pt x="371" y="715" on="1"/>
        <pt x="424" y="715" on="0"/>
        <pt x="509" y="692" on="0"/>
        <pt x="576" y="651" on="0"/>
        <pt x="625" y="594" on="0"/>
        <pt x="642" y="560" on="1"/>
        <pt x="600" y="535" on="1"/>
        <pt x="564" y="605" on="0"/>
        <pt x="445" y="668" on="0"/>
        <pt x="370" y="668" on="1"/>
        <pt x="307" y="668" on="0"/>
        <pt x="205" y="614" on="0"/>
        <pt x="133" y="526" on="0"/>
        <pt x="95" y="414" on="0"/>
        <pt x="95" y="355" on="1"/>
        <pt x="95" y="292" on="0"/>
        <pt x="139" y="179" on="0"/>
        <pt x="216" y="93" on="0"/>
        <pt x="320" y="42" on="0"/>
        <pt x="380" y="42" on="1"/>
        <pt x="445" y="42" on="0"/>
        <pt x="562" y="102" on="0"/>
        <pt x="616" y="167" on="1"/>
        <pt x="616" y="304" on="1"/>
        <pt x="455" y="304" on="1"/>
        <pt x="455" y="345" on="1"/>
        <pt x="660" y="345" on="1"/>
        <pt x="660" y="0" on="1"/>
        <pt x="616" y="0" on="1"/>
      </contour>
      <contour>
        <pt x="346" y="827" on="1"/>
        <pt x="346" y="917" on="1"/>
        <pt x="392" y="917" on="1"/>
        <pt x="392" y="827" on="1"/>
      </contour>
    </TTGlyph>
    <TTGlyph name="H" xMin="93" yMin="0" xMax="643" yMax="710">
      <contour>
        <pt x="643" y="710" on="1"/>
        <pt x="643" y="0" on="1"/>
        <pt x="592" y="0" on="1"/>
        <pt x="592" y="340" on="1"/>
        <pt x="144" y="340" on="1"/>
        <pt x="144" y="0" on="1"/>
        <pt x="93" y="0" on="1"/>
        <pt x="93" y="710" on="1"/>
        <pt x="144" y="710" on="1"/>
        <pt x="144" y="386" on="1"/>
        <pt x="592" y="386" on="1"/>
        <pt x="592" y="710" on="1"/>
      </contour>
    </TTGlyph>
    <TTGlyph name="H.sc" xMin="88" yMin="0" xMax="549" yMax="545">
      <contour>
        <pt x="549" y="545" on="1"/>
        <pt x="549" y="0" on="1"/>
        <pt x="502" y="0" on="1"/>
        <pt x="502" y="257" on="1"/>
        <pt x="134" y="257" on="1"/>
        <pt x="134" y="0" on="1"/>
        <pt x="88" y="0" on="1"/>
        <pt x="88" y="545" on="1"/>
        <pt x="134" y="545" on="1"/>
        <pt x="134" y="300" on="1"/>
        <pt x="502" y="300" on="1"/>
        <pt x="502" y="545" on="1"/>
      </contour>
    </TTGlyph>
    <TTGlyph name="Hbar" xMin="48" yMin="0" xMax="698" yMax="710">
      <contour>
        <pt x="648" y="710" on="1"/>
        <pt x="648" y="583" on="1"/>
        <pt x="698" y="583" on="1"/>
        <pt x="698" y="551" on="1"/>
        <pt x="648" y="551" on="1"/>
        <pt x="648" y="0" on="1"/>
        <pt x="597" y="0" on="1"/>
        <pt x="597" y="340" on="1"/>
        <pt x="149" y="340" on="1"/>
        <pt x="149" y="0" on="1"/>
        <pt x="98" y="0" on="1"/>
        <pt x="98" y="551" on="1"/>
        <pt x="48" y="551" on="1"/>
        <pt x="48" y="583" on="1"/>
        <pt x="98" y="583" on="1"/>
        <pt x="98" y="710" on="1"/>
        <pt x="149" y="710" on="1"/>
        <pt x="149" y="583" on="1"/>
        <pt x="597" y="583" on="1"/>
        <pt x="597" y="710" on="1"/>
      </contour>
      <contour>
        <pt x="597" y="386" on="1"/>
        <pt x="597" y="551" on="1"/>
        <pt x="149" y="551" on="1"/>
        <pt x="149" y="386" on="1"/>
      </contour>
    </TTGlyph>
    <TTGlyph name="Hcircumflex" xMin="93" yMin="0" xMax="643" yMax="917">
      <contour>
        <pt x="255" y="836" on="1"/>
        <pt x="351" y="917" on="1"/>
        <pt x="388" y="917" on="1"/>
        <pt x="485" y="836" on="1"/>
        <pt x="455" y="819" on="1"/>
        <pt x="370" y="882" on="1"/>
        <pt x="285" y="819" on="1"/>
      </contour>
      <contour>
        <pt x="643" y="710" on="1"/>
        <pt x="643" y="0" on="1"/>
        <pt x="592" y="0" on="1"/>
        <pt x="592" y="340" on="1"/>
        <pt x="144" y="340" on="1"/>
        <pt x="144" y="0" on="1"/>
        <pt x="93" y="0" on="1"/>
        <pt x="93" y="710" on="1"/>
        <pt x="144" y="710" on="1"/>
        <pt x="144" y="386" on="1"/>
        <pt x="592" y="386" on="1"/>
        <pt x="592" y="710" on="1"/>
      </contour>
    </TTGlyph>
    <TTGlyph name="Hdotbelow" xMin="93" yMin="-151" xMax="643" yMax="710">
      <contour>
        <pt x="643" y="710" on="1"/>
        <pt x="643" y="0" on="1"/>
        <pt x="592" y="0" on="1"/>
        <pt x="592" y="340" on="1"/>
        <pt x="144" y="340" on="1"/>
        <pt x="144" y="0" on="1"/>
        <pt x="93" y="0" on="1"/>
        <pt x="93" y="710" on="1"/>
        <pt x="144" y="710" on="1"/>
        <pt x="144" y="386" on="1"/>
        <pt x="592" y="386" on="1"/>
        <pt x="592" y="710" on="1"/>
      </contour>
      <contour>
        <pt x="348" y="-151" on="1"/>
        <pt x="348" y="-61" on="1"/>
        <pt x="394" y="-61" on="1"/>
        <pt x="394" y="-151" on="1"/>
      </contour>
    </TTGlyph>
    <TTGlyph name="I" xMin="93" yMin="0" xMax="144" yMax="710">
      <contour>
        <pt x="93" y="0" on="1"/>
        <pt x="93" y="710" on="1"/>
        <pt x="144" y="710" on="1"/>
        <pt x="144" y="0" on="1"/>
      </contour>
    </TTGlyph>
    <TTGlyph name="I.sc" xMin="88" yMin="0" xMax="134" yMax="544">
      <contour>
        <pt x="88" y="0" on="1"/>
        <pt x="88" y="544" on="1"/>
        <pt x="134" y="544" on="1"/>
        <pt x="134" y="0" on="1"/>
      </contour>
    </TTGlyph>
    <TTGlyph name="IJ" xMin="93" yMin="-11" xMax="631" yMax="710">
      <contour>
        <pt x="93" y="0" on="1"/>
        <pt x="93" y="710" on="1"/>
        <pt x="144" y="710" on="1"/>
        <pt x="144" y="0" on="1"/>
      </contour>
      <contour>
        <pt x="269" y="74" on="1"/>
        <pt x="294" y="57" on="0"/>
        <pt x="364" y="36" on="0"/>
        <pt x="407" y="36" on="1"/>
        <pt x="465" y="36" on="0"/>
        <pt x="533" y="78" on="0"/>
        <pt x="569" y="158" on="0"/>
        <pt x="580" y="275" on="0"/>
        <pt x="580" y="349" on="1"/>
        <pt x="580" y="710" on="1"/>
        <pt x="631" y="710" on="1"/>
        <pt x="631" y="349" on="1"/>
        <pt x="631" y="268" on="0"/>
        <pt x="617" y="135" on="0"/>
        <pt x="570" y="41" on="0"/>
        <pt x="482" y="-11" on="0"/>
        <pt x="407" y="-11" on="1"/>
        <pt x="317" y="-11" on="0"/>
        <pt x="253" y="33" on="1"/>
      </contour>
    </TTGlyph>
    <TTGlyph name="Iacute" xMin="82" yMin="0" xMax="201" yMax="917">
      <contour>
        <pt x="93" y="0" on="1"/>
        <pt x="93" y="710" on="1"/>
        <pt x="144" y="710" on="1"/>
        <pt x="144" y="0" on="1"/>
      </contour>
      <contour>
        <pt x="117" y="816" on="1"/>
        <pt x="82" y="832" on="1"/>
        <pt x="143" y="917" on="1"/>
        <pt x="201" y="917" on="1"/>
      </contour>
    </TTGlyph>
    <TTGlyph name="Ibreve" xMin="30" yMin="0" xMax="208" yMax="917">
      <contour>
        <pt x="93" y="0" on="1"/>
        <pt x="93" y="710" on="1"/>
        <pt x="144" y="710" on="1"/>
        <pt x="144" y="0" on="1"/>
      </contour>
      <contour>
        <pt x="119" y="853" on="1"/>
        <pt x="139" y="853" on="0"/>
        <pt x="172" y="890" on="0"/>
        <pt x="175" y="917" on="1"/>
        <pt x="208" y="917" on="1"/>
        <pt x="208" y="898" on="0"/>
        <pt x="194" y="864" on="0"/>
        <pt x="169" y="839" on="0"/>
        <pt x="137" y="825" on="0"/>
        <pt x="119" y="825" on="1"/>
        <pt x="101" y="825" on="0"/>
        <pt x="68" y="839" on="0"/>
        <pt x="44" y="864" on="0"/>
        <pt x="30" y="898" on="0"/>
        <pt x="30" y="917" on="1"/>
        <pt x="63" y="917" on="1"/>
        <pt x="63" y="892" on="0"/>
        <pt x="97" y="853" on="0"/>
      </contour>
    </TTGlyph>
    <TTGlyph name="Icircumflex" xMin="3" yMin="0" xMax="233" yMax="917">
      <contour>
        <pt x="93" y="0" on="1"/>
        <pt x="93" y="710" on="1"/>
        <pt x="144" y="710" on="1"/>
        <pt x="144" y="0" on="1"/>
      </contour>
      <contour>
        <pt x="3" y="836" on="1"/>
        <pt x="99" y="917" on="1"/>
        <pt x="136" y="917" on="1"/>
        <pt x="233" y="836" on="1"/>
        <pt x="203" y="819" on="1"/>
        <pt x="118" y="882" on="1"/>
        <pt x="33" y="819" on="1"/>
      </contour>
    </TTGlyph>
    <TTGlyph name="Idblgrave" xMin="-21" yMin="0" xMax="207" yMax="918">
      <contour>
        <pt x="93" y="0" on="1"/>
        <pt x="93" y="710" on="1"/>
        <pt x="144" y="710" on="1"/>
        <pt x="144" y="0" on="1"/>
      </contour>
      <contour>
        <pt x="95" y="918" on="1"/>
        <pt x="147" y="918" on="1"/>
        <pt x="207" y="833" on="1"/>
        <pt x="178" y="817" on="1"/>
      </contour>
      <contour>
        <pt x="-21" y="918" on="1"/>
        <pt x="32" y="918" on="1"/>
        <pt x="91" y="833" on="1"/>
        <pt x="62" y="817" on="1"/>
      </contour>
    </TTGlyph>
    <TTGlyph name="Idieresis" xMin="28" yMin="0" xMax="208" yMax="916">
      <contour>
        <pt x="93" y="0" on="1"/>
        <pt x="93" y="710" on="1"/>
        <pt x="144" y="710" on="1"/>
        <pt x="144" y="0" on="1"/>
      </contour>
      <contour>
        <pt x="28" y="828" on="1"/>
        <pt x="28" y="916" on="1"/>
        <pt x="72" y="916" on="1"/>
        <pt x="72" y="828" on="1"/>
      </contour>
      <contour>
        <pt x="164" y="828" on="1"/>
        <pt x="164" y="916" on="1"/>
        <pt x="208" y="916" on="1"/>
        <pt x="208" y="828" on="1"/>
      </contour>
    </TTGlyph>
    <TTGlyph name="Idotaccent" xMin="93" yMin="0" xMax="144" yMax="917">
      <contour>
        <pt x="93" y="0" on="1"/>
        <pt x="93" y="710" on="1"/>
        <pt x="144" y="710" on="1"/>
        <pt x="144" y="0" on="1"/>
      </contour>
      <contour>
        <pt x="95" y="827" on="1"/>
        <pt x="95" y="917" on="1"/>
        <pt x="141" y="917" on="1"/>
        <pt x="141" y="827" on="1"/>
      </contour>
    </TTGlyph>
    <TTGlyph name="Idotbelow" xMin="93" yMin="-151" xMax="144" yMax="710">
      <contour>
        <pt x="93" y="0" on="1"/>
        <pt x="93" y="710" on="1"/>
        <pt x="144" y="710" on="1"/>
        <pt x="144" y="0" on="1"/>
      </contour>
      <contour>
        <pt x="94" y="-151" on="1"/>
        <pt x="94" y="-61" on="1"/>
        <pt x="140" y="-61" on="1"/>
        <pt x="140" y="-151" on="1"/>
      </contour>
    </TTGlyph>
    <TTGlyph name="Igrave" xMin="34" yMin="0" xMax="153" yMax="918">
      <contour>
        <pt x="93" y="0" on="1"/>
        <pt x="93" y="710" on="1"/>
        <pt x="144" y="710" on="1"/>
        <pt x="144" y="0" on="1"/>
      </contour>
      <contour>
        <pt x="34" y="918" on="1"/>
        <pt x="91" y="918" on="1"/>
        <pt x="153" y="833" on="1"/>
        <pt x="119" y="817" on="1"/>
      </contour>
    </TTGlyph>
    <TTGlyph name="Iinvertedbreve" xMin="28" yMin="0" xMax="206" yMax="917">
      <contour>
        <pt x="93" y="0" on="1"/>
        <pt x="93" y="710" on="1"/>
        <pt x="144" y="710" on="1"/>
        <pt x="144" y="0" on="1"/>
      </contour>
      <contour>
        <pt x="117" y="889" on="1"/>
        <pt x="95" y="889" on="0"/>
        <pt x="61" y="850" on="0"/>
        <pt x="61" y="825" on="1"/>
        <pt x="28" y="825" on="1"/>
        <pt x="28" y="844" on="0"/>
        <pt x="42" y="878" on="0"/>
        <pt x="66" y="903" on="0"/>
        <pt x="99" y="917" on="0"/>
        <pt x="117" y="917" on="1"/>
        <pt x="135" y="917" on="0"/>
        <pt x="167" y="903" on="0"/>
        <pt x="192" y="878" on="0"/>
        <pt x="206" y="844" on="0"/>
        <pt x="206" y="825" on="1"/>
        <pt x="173" y="825" on="1"/>
        <pt x="170" y="852" on="0"/>
        <pt x="137" y="889" on="0"/>
      </contour>
    </TTGlyph>
    <TTGlyph name="Imacron" xMin="-24" yMin="0" xMax="261" yMax="896">
      <contour>
        <pt x="93" y="0" on="1"/>
        <pt x="93" y="710" on="1"/>
        <pt x="144" y="710" on="1"/>
        <pt x="144" y="0" on="1"/>
      </contour>
      <contour>
        <pt x="-24" y="859" on="1"/>
        <pt x="-24" y="896" on="1"/>
        <pt x="261" y="896" on="1"/>
        <pt x="261" y="859" on="1"/>
      </contour>
    </TTGlyph>
    <TTGlyph name="Iogonek" xMin="28" yMin="-169" xMax="144" yMax="710">
      <contour>
        <pt x="95" y="-169" on="1"/>
        <pt x="63" y="-162" on="0"/>
        <pt x="28" y="-126" on="0"/>
        <pt x="28" y="-101" on="1"/>
        <pt x="28" y="-76" on="0"/>
        <pt x="63" y="-27" on="0"/>
        <pt x="101" y="0" on="1"/>
        <pt x="93" y="0" on="1"/>
        <pt x="93" y="710" on="1"/>
        <pt x="144" y="710" on="1"/>
        <pt x="144" y="0" on="1"/>
        <pt x="99" y="-29" on="0"/>
        <pt x="62" y="-71" on="0"/>
        <pt x="62" y="-94" on="1"/>
        <pt x="62" y="-132" on="0"/>
        <pt x="111" y="-139" on="1"/>
        <pt x="95" y="-169" on="1"/>
      </contour>
    </TTGlyph>
    <TTGlyph name="Itilde" xMin="-32" yMin="0" xMax="271" yMax="917">
      <contour>
        <pt x="93" y="0" on="1"/>
        <pt x="93" y="710" on="1"/>
        <pt x="144" y="710" on="1"/>
        <pt x="144" y="0" on="1"/>
      </contour>
      <contour>
        <pt x="179" y="834" on="1"/>
        <pt x="157" y="834" on="0"/>
        <pt x="123" y="846" on="0"/>
        <pt x="95" y="861" on="0"/>
        <pt x="68" y="874" on="0"/>
        <pt x="53" y="874" on="1"/>
        <pt x="36" y="874" on="0"/>
        <pt x="16" y="860" on="0"/>
        <pt x="6" y="843" on="0"/>
        <pt x="2" y="828" on="0"/>
        <pt x="2" y="826" on="1"/>
        <pt x="-32" y="826" on="1"/>
        <pt x="-32" y="830" on="0"/>
        <pt x="-26" y="857" on="0"/>
        <pt x="-7" y="886" on="0"/>
        <pt x="26" y="909" on="0"/>
        <pt x="53" y="909" on="1"/>
        <pt x="73" y="909" on="0"/>
        <pt x="104" y="896" on="0"/>
        <pt x="132" y="881" on="0"/>
        <pt x="161" y="869" on="0"/>
        <pt x="180" y="869" on="1"/>
        <pt x="200" y="869" on="0"/>
        <pt x="223" y="883" on="0"/>
        <pt x="234" y="900" on="0"/>
        <pt x="237" y="915" on="0"/>
        <pt x="237" y="917" on="1"/>
        <pt x="271" y="917" on="1"/>
        <pt x="271" y="912" on="0"/>
        <pt x="264" y="885" on="0"/>
        <pt x="245" y="857" on="0"/>
        <pt x="209" y="834" on="0"/>
      </contour>
    </TTGlyph>
    <TTGlyph name="J" xMin="16" yMin="-11" xMax="394" yMax="710">
      <contour>
        <pt x="32" y="74" on="1"/>
        <pt x="57" y="57" on="0"/>
        <pt x="127" y="36" on="0"/>
        <pt x="170" y="36" on="1"/>
        <pt x="228" y="36" on="0"/>
        <pt x="296" y="78" on="0"/>
        <pt x="332" y="158" on="0"/>
        <pt x="343" y="275" on="0"/>
        <pt x="343" y="349" on="1"/>
        <pt x="343" y="710" on="1"/>
        <pt x="394" y="710" on="1"/>
        <pt x="394" y="349" on="1"/>
        <pt x="394" y="268" on="0"/>
        <pt x="380" y="135" on="0"/>
        <pt x="333" y="41" on="0"/>
        <pt x="245" y="-11" on="0"/>
        <pt x="170" y="-11" on="1"/>
        <pt x="80" y="-11" on="0"/>
        <pt x="16" y="33" on="1"/>
      </contour>
    </TTGlyph>
    <TTGlyph name="J.sc" xMin="23" yMin="-8" xMax="340" yMax="544">
      <contour>
        <pt x="38" y="63" on="1"/>
        <pt x="58" y="51" on="0"/>
        <pt x="116" y="34" on="0"/>
        <pt x="152" y="34" on="1"/>
        <pt x="200" y="34" on="0"/>
        <pt x="256" y="65" on="0"/>
        <pt x="285" y="125" on="0"/>
        <pt x="294" y="212" on="0"/>
        <pt x="294" y="268" on="1"/>
        <pt x="294" y="544" on="1"/>
        <pt x="340" y="544" on="1"/>
        <pt x="340" y="268" on="1"/>
        <pt x="340" y="206" on="0"/>
        <pt x="328" y="104" on="0"/>
        <pt x="289" y="32" on="0"/>
        <pt x="215" y="-8" on="0"/>
        <pt x="152" y="-8" on="1"/>
        <pt x="75" y="-8" on="0"/>
        <pt x="23" y="25" on="1"/>
      </contour>
    </TTGlyph>
    <TTGlyph name="Jcircumflex" xMin="16" yMin="-11" xMax="484" yMax="917">
      <contour>
        <pt x="254" y="836" on="1"/>
        <pt x="350" y="917" on="1"/>
        <pt x="387" y="917" on="1"/>
        <pt x="484" y="836" on="1"/>
        <pt x="454" y="819" on="1"/>
        <pt x="369" y="882" on="1"/>
        <pt x="284" y="819" on="1"/>
      </contour>
      <contour>
        <pt x="32" y="74" on="1"/>
        <pt x="57" y="57" on="0"/>
        <pt x="127" y="36" on="0"/>
        <pt x="170" y="36" on="1"/>
        <pt x="228" y="36" on="0"/>
        <pt x="296" y="78" on="0"/>
        <pt x="332" y="158" on="0"/>
        <pt x="343" y="275" on="0"/>
        <pt x="343" y="349" on="1"/>
        <pt x="343" y="710" on="1"/>
        <pt x="394" y="710" on="1"/>
        <pt x="394" y="349" on="1"/>
        <pt x="394" y="268" on="0"/>
        <pt x="380" y="135" on="0"/>
        <pt x="333" y="41" on="0"/>
        <pt x="245" y="-11" on="0"/>
        <pt x="170" y="-11" on="1"/>
        <pt x="80" y="-11" on="0"/>
        <pt x="16" y="33" on="1"/>
      </contour>
    </TTGlyph>
    <TTGlyph name="K" xMin="93" yMin="0" xMax="632" yMax="710">
      <contour>
        <pt x="93" y="0" on="1"/>
        <pt x="93" y="710" on="1"/>
        <pt x="144" y="710" on="1"/>
        <pt x="144" y="279" on="1"/>
        <pt x="558" y="710" on="1"/>
        <pt x="617" y="710" on="1"/>
        <pt x="322" y="399" on="1"/>
        <pt x="632" y="0" on="1"/>
        <pt x="574" y="0" on="1"/>
        <pt x="289" y="368" on="1"/>
        <pt x="144" y="219" on="1"/>
        <pt x="144" y="0" on="1"/>
      </contour>
    </TTGlyph>
    <TTGlyph name="K.sc" xMin="88" yMin="0" xMax="540" yMax="545">
      <contour>
        <pt x="88" y="0" on="1"/>
        <pt x="88" y="544" on="1"/>
        <pt x="134" y="544" on="1"/>
        <pt x="134" y="221" on="1"/>
        <pt x="474" y="545" on="1"/>
        <pt x="528" y="545" on="1"/>
        <pt x="283" y="306" on="1"/>
        <pt x="540" y="0" on="1"/>
        <pt x="488" y="0" on="1"/>
        <pt x="254" y="277" on="1"/>
        <pt x="134" y="168" on="1"/>
        <pt x="134" y="0" on="1"/>
      </contour>
    </TTGlyph>
    <TTGlyph name="Kcommaaccent" xMin="93" yMin="-187" xMax="632" yMax="710">
      <contour>
        <pt x="298" y="-187" on="1"/>
        <pt x="313" y="-119" on="1"/>
        <pt x="297" y="-119" on="1"/>
        <pt x="297" y="-49" on="1"/>
        <pt x="346" y="-49" on="1"/>
        <pt x="346" y="-119" on="1"/>
        <pt x="325" y="-187" on="1"/>
      </contour>
      <contour>
        <pt x="93" y="0" on="1"/>
        <pt x="93" y="710" on="1"/>
        <pt x="144" y="710" on="1"/>
        <pt x="144" y="279" on="1"/>
        <pt x="558" y="710" on="1"/>
        <pt x="617" y="710" on="1"/>
        <pt x="322" y="399" on="1"/>
        <pt x="632" y="0" on="1"/>
        <pt x="574" y="0" on="1"/>
        <pt x="289" y="368" on="1"/>
        <pt x="144" y="219" on="1"/>
        <pt x="144" y="0" on="1"/>
      </contour>
    </TTGlyph>
    <TTGlyph name="L" xMin="93" yMin="0" xMax="568" yMax="710">
      <contour>
        <pt x="93" y="0" on="1"/>
        <pt x="93" y="710" on="1"/>
        <pt x="144" y="710" on="1"/>
        <pt x="144" y="46" on="1"/>
        <pt x="568" y="46" on="1"/>
        <pt x="568" y="0" on="1"/>
      </contour>
    </TTGlyph>
    <TTGlyph name="L.sc" xMin="88" yMin="0" xMax="477" yMax="545">
      <contour>
        <pt x="88" y="0" on="1"/>
        <pt x="88" y="545" on="1"/>
        <pt x="134" y="545" on="1"/>
        <pt x="134" y="42" on="1"/>
        <pt x="477" y="42" on="1"/>
        <pt x="477" y="0" on="1"/>
      </contour>
    </TTGlyph>
    <TTGlyph name="Lacute" xMin="93" yMin="0" xMax="568" yMax="917">
      <contour>
        <pt x="338" y="816" on="1"/>
        <pt x="303" y="832" on="1"/>
        <pt x="364" y="917" on="1"/>
        <pt x="422" y="917" on="1"/>
      </contour>
      <contour>
        <pt x="93" y="0" on="1"/>
        <pt x="93" y="710" on="1"/>
        <pt x="144" y="710" on="1"/>
        <pt x="144" y="46" on="1"/>
        <pt x="568" y="46" on="1"/>
        <pt x="568" y="0" on="1"/>
      </contour>
    </TTGlyph>
    <TTGlyph name="Lcaron" xMin="93" yMin="0" xMax="568" yMax="730">
      <contour>
        <pt x="372" y="629" on="1"/>
        <pt x="337" y="645" on="1"/>
        <pt x="398" y="730" on="1"/>
        <pt x="456" y="730" on="1"/>
      </contour>
      <contour>
        <pt x="93" y="0" on="1"/>
        <pt x="93" y="710" on="1"/>
        <pt x="144" y="710" on="1"/>
        <pt x="144" y="46" on="1"/>
        <pt x="568" y="46" on="1"/>
        <pt x="568" y="0" on="1"/>
      </contour>
    </TTGlyph>
    <TTGlyph name="Lcommaaccent" xMin="93" yMin="-187" xMax="568" yMax="710">
      <contour>
        <pt x="306" y="-187" on="1"/>
        <pt x="321" y="-119" on="1"/>
        <pt x="305" y="-119" on="1"/>
        <pt x="305" y="-49" on="1"/>
        <pt x="354" y="-49" on="1"/>
        <pt x="354" y="-119" on="1"/>
        <pt x="333" y="-187" on="1"/>
      </contour>
      <contour>
        <pt x="93" y="0" on="1"/>
        <pt x="93" y="710" on="1"/>
        <pt x="144" y="710" on="1"/>
        <pt x="144" y="46" on="1"/>
        <pt x="568" y="46" on="1"/>
        <pt x="568" y="0" on="1"/>
      </contour>
    </TTGlyph>
    <TTGlyph name="Ldot" xMin="93" yMin="0" xMax="568" yMax="710">
      <contour>
        <pt x="93" y="0" on="1"/>
        <pt x="93" y="710" on="1"/>
        <pt x="144" y="710" on="1"/>
        <pt x="144" y="46" on="1"/>
        <pt x="568" y="46" on="1"/>
        <pt x="568" y="0" on="1"/>
      </contour>
      <contour>
        <pt x="366" y="353" on="1"/>
        <pt x="366" y="454" on="1"/>
        <pt x="410" y="454" on="1"/>
        <pt x="410" y="353" on="1"/>
      </contour>
    </TTGlyph>
    <TTGlyph name="Lslash" xMin="21" yMin="0" xMax="575" yMax="710">
      <contour>
        <pt x="100" y="0" on="1"/>
        <pt x="100" y="279" on="1"/>
        <pt x="40" y="226" on="1"/>
        <pt x="21" y="257" on="1"/>
        <pt x="100" y="327" on="1"/>
        <pt x="100" y="710" on="1"/>
        <pt x="151" y="710" on="1"/>
        <pt x="151" y="373" on="1"/>
        <pt x="318" y="522" on="1"/>
        <pt x="337" y="492" on="1"/>
        <pt x="151" y="325" on="1"/>
        <pt x="151" y="46" on="1"/>
        <pt x="575" y="46" on="1"/>
        <pt x="575" y="0" on="1"/>
      </contour>
    </TTGlyph>
    <TTGlyph name="M" xMin="93" yMin="0" xMax="787" yMax="710">
      <contour>
        <pt x="736" y="0" on="1"/>
        <pt x="736" y="614" on="1"/>
        <pt x="456" y="135" on="1"/>
        <pt x="424" y="135" on="1"/>
        <pt x="144" y="614" on="1"/>
        <pt x="144" y="0" on="1"/>
        <pt x="93" y="0" on="1"/>
        <pt x="93" y="710" on="1"/>
        <pt x="144" y="710" on="1"/>
        <pt x="440" y="202" on="1"/>
        <pt x="736" y="710" on="1"/>
        <pt x="787" y="710" on="1"/>
        <pt x="787" y="0" on="1"/>
      </contour>
    </TTGlyph>
    <TTGlyph name="M.sc" xMin="88" yMin="0" xMax="668" yMax="545">
      <contour>
        <pt x="621" y="0" on="1"/>
        <pt x="621" y="459" on="1"/>
        <pt x="392" y="102" on="1"/>
        <pt x="364" y="102" on="1"/>
        <pt x="134" y="459" on="1"/>
        <pt x="134" y="0" on="1"/>
        <pt x="88" y="0" on="1"/>
        <pt x="88" y="545" on="1"/>
        <pt x="135" y="545" on="1"/>
        <pt x="378" y="164" on="1"/>
        <pt x="621" y="545" on="1"/>
        <pt x="668" y="545" on="1"/>
        <pt x="668" y="0" on="1"/>
      </contour>
    </TTGlyph>
    <TTGlyph name="N" xMin="93" yMin="0" xMax="681" yMax="710">
      <contour>
        <pt x="144" y="614" on="1"/>
        <pt x="144" y="0" on="1"/>
        <pt x="93" y="0" on="1"/>
        <pt x="93" y="710" on="1"/>
        <pt x="132" y="710" on="1"/>
        <pt x="630" y="85" on="1"/>
        <pt x="630" y="710" on="1"/>
        <pt x="681" y="710" on="1"/>
        <pt x="681" y="0" on="1"/>
        <pt x="634" y="0" on="1"/>
      </contour>
    </TTGlyph>
    <TTGlyph name="N.sc" xMin="88" yMin="0" xMax="579" yMax="545">
      <contour>
        <pt x="134" y="457" on="1"/>
        <pt x="134" y="0" on="1"/>
        <pt x="88" y="0" on="1"/>
        <pt x="88" y="545" on="1"/>
        <pt x="124" y="545" on="1"/>
        <pt x="533" y="80" on="1"/>
        <pt x="533" y="544" on="1"/>
        <pt x="579" y="544" on="1"/>
        <pt x="579" y="0" on="1"/>
        <pt x="537" y="0" on="1"/>
      </contour>
    </TTGlyph>
    <TTGlyph name="Nacute" xMin="93" yMin="0" xMax="681" yMax="917">
      <contour>
        <pt x="389" y="816" on="1"/>
        <pt x="354" y="832" on="1"/>
        <pt x="415" y="917" on="1"/>
        <pt x="473" y="917" on="1"/>
      </contour>
      <contour>
        <pt x="144" y="614" on="1"/>
        <pt x="144" y="0" on="1"/>
        <pt x="93" y="0" on="1"/>
        <pt x="93" y="710" on="1"/>
        <pt x="132" y="710" on="1"/>
        <pt x="630" y="85" on="1"/>
        <pt x="630" y="710" on="1"/>
        <pt x="681" y="710" on="1"/>
        <pt x="681" y="0" on="1"/>
        <pt x="634" y="0" on="1"/>
      </contour>
    </TTGlyph>
    <TTGlyph name="Ncaron" xMin="93" yMin="0" xMax="681" yMax="917">
      <contour>
        <pt x="306" y="917" on="1"/>
        <pt x="391" y="854" on="1"/>
        <pt x="476" y="917" on="1"/>
        <pt x="506" y="900" on="1"/>
        <pt x="409" y="819" on="1"/>
        <pt x="372" y="819" on="1"/>
        <pt x="276" y="900" on="1"/>
      </contour>
      <contour>
        <pt x="144" y="614" on="1"/>
        <pt x="144" y="0" on="1"/>
        <pt x="93" y="0" on="1"/>
        <pt x="93" y="710" on="1"/>
        <pt x="132" y="710" on="1"/>
        <pt x="630" y="85" on="1"/>
        <pt x="630" y="710" on="1"/>
        <pt x="681" y="710" on="1"/>
        <pt x="681" y="0" on="1"/>
        <pt x="634" y="0" on="1"/>
      </contour>
    </TTGlyph>
    <TTGlyph name="Ncommaaccent" xMin="93" yMin="-187" xMax="681" yMax="710">
      <contour>
        <pt x="365" y="-187" on="1"/>
        <pt x="380" y="-119" on="1"/>
        <pt x="364" y="-119" on="1"/>
        <pt x="364" y="-49" on="1"/>
        <pt x="413" y="-49" on="1"/>
        <pt x="413" y="-119" on="1"/>
        <pt x="392" y="-187" on="1"/>
      </contour>
      <contour>
        <pt x="144" y="614" on="1"/>
        <pt x="144" y="0" on="1"/>
        <pt x="93" y="0" on="1"/>
        <pt x="93" y="710" on="1"/>
        <pt x="132" y="710" on="1"/>
        <pt x="630" y="85" on="1"/>
        <pt x="630" y="710" on="1"/>
        <pt x="681" y="710" on="1"/>
        <pt x="681" y="0" on="1"/>
        <pt x="634" y="0" on="1"/>
      </contour>
    </TTGlyph>
    <TTGlyph name="Ndotaccent" xMin="93" yMin="0" xMax="681" yMax="917">
      <contour>
        <pt x="367" y="827" on="1"/>
        <pt x="367" y="917" on="1"/>
        <pt x="413" y="917" on="1"/>
        <pt x="413" y="827" on="1"/>
      </contour>
      <contour>
        <pt x="144" y="614" on="1"/>
        <pt x="144" y="0" on="1"/>
        <pt x="93" y="0" on="1"/>
        <pt x="93" y="710" on="1"/>
        <pt x="132" y="710" on="1"/>
        <pt x="630" y="85" on="1"/>
        <pt x="630" y="710" on="1"/>
        <pt x="681" y="710" on="1"/>
        <pt x="681" y="0" on="1"/>
        <pt x="634" y="0" on="1"/>
      </contour>
    </TTGlyph>
    <TTGlyph name="Ntilde" xMin="93" yMin="0" xMax="681" yMax="917">
      <contour>
        <pt x="144" y="614" on="1"/>
        <pt x="144" y="0" on="1"/>
        <pt x="93" y="0" on="1"/>
        <pt x="93" y="710" on="1"/>
        <pt x="132" y="710" on="1"/>
        <pt x="630" y="85" on="1"/>
        <pt x="630" y="710" on="1"/>
        <pt x="681" y="710" on="1"/>
        <pt x="681" y="0" on="1"/>
        <pt x="634" y="0" on="1"/>
      </contour>
      <contour>
        <pt x="452" y="834" on="1"/>
        <pt x="430" y="834" on="0"/>
        <pt x="396" y="846" on="0"/>
        <pt x="368" y="861" on="0"/>
        <pt x="341" y="874" on="0"/>
        <pt x="326" y="874" on="1"/>
        <pt x="309" y="874" on="0"/>
        <pt x="289" y="860" on="0"/>
        <pt x="279" y="843" on="0"/>
        <pt x="275" y="828" on="0"/>
        <pt x="275" y="826" on="1"/>
        <pt x="241" y="826" on="1"/>
        <pt x="241" y="830" on="0"/>
        <pt x="247" y="857" on="0"/>
        <pt x="266" y="886" on="0"/>
        <pt x="299" y="909" on="0"/>
        <pt x="326" y="909" on="1"/>
        <pt x="346" y="909" on="0"/>
        <pt x="377" y="896" on="0"/>
        <pt x="405" y="881" on="0"/>
        <pt x="434" y="869" on="0"/>
        <pt x="453" y="869" on="1"/>
        <pt x="473" y="869" on="0"/>
        <pt x="496" y="883" on="0"/>
        <pt x="507" y="900" on="0"/>
        <pt x="510" y="915" on="0"/>
        <pt x="510" y="917" on="1"/>
        <pt x="544" y="917" on="1"/>
        <pt x="544" y="912" on="0"/>
        <pt x="537" y="885" on="0"/>
        <pt x="518" y="857" on="0"/>
        <pt x="482" y="834" on="0"/>
      </contour>
    </TTGlyph>
    <TTGlyph name="O" xMin="44" yMin="-5" xMax="709" yMax="715">
      <contour>
        <pt x="376" y="-5" on="1"/>
        <pt x="302" y="-5" on="0"/>
        <pt x="180" y="57" on="0"/>
        <pt x="92" y="157" on="0"/>
        <pt x="44" y="287" on="0"/>
        <pt x="44" y="355" on="1"/>
        <pt x="44" y="426" on="0"/>
        <pt x="95" y="556" on="0"/>
        <pt x="184" y="656" on="0"/>
        <pt x="306" y="715" on="0"/>
        <pt x="377" y="715" on="1"/>
        <pt x="451" y="715" on="0"/>
        <pt x="574" y="652" on="0"/>
        <pt x="661" y="550" on="0"/>
        <pt x="709" y="421" on="0"/>
        <pt x="709" y="355" on="1"/>
        <pt x="709" y="283" on="0"/>
        <pt x="658" y="153" on="0"/>
        <pt x="569" y="54" on="0"/>
        <pt x="447" y="-5" on="0"/>
      </contour>
      <contour>
        <pt x="95" y="355" on="1"/>
        <pt x="95" y="294" on="0"/>
        <pt x="136" y="181" on="0"/>
        <pt x="211" y="94" on="0"/>
        <pt x="315" y="42" on="0"/>
        <pt x="377" y="42" on="1"/>
        <pt x="441" y="42" on="0"/>
        <pt x="544" y="96" on="0"/>
        <pt x="617" y="185" on="0"/>
        <pt x="657" y="297" on="0"/>
        <pt x="657" y="355" on="1"/>
        <pt x="657" y="416" on="0"/>
        <pt x="615" y="529" on="0"/>
        <pt x="540" y="616" on="0"/>
        <pt x="438" y="668" on="0"/>
        <pt x="377" y="668" on="1"/>
        <pt x="313" y="668" on="0"/>
        <pt x="209" y="614" on="0"/>
        <pt x="135" y="525" on="0"/>
        <pt x="95" y="413" on="0"/>
      </contour>
    </TTGlyph>
    <TTGlyph name="O.sc" xMin="47" yMin="-4" xMax="601" yMax="548">
      <contour>
        <pt x="324" y="-4" on="1"/>
        <pt x="262" y="-4" on="0"/>
        <pt x="160" y="43" on="0"/>
        <pt x="87" y="120" on="0"/>
        <pt x="47" y="220" on="0"/>
        <pt x="47" y="273" on="1"/>
        <pt x="47" y="327" on="0"/>
        <pt x="89" y="426" on="0"/>
        <pt x="164" y="503" on="0"/>
        <pt x="265" y="548" on="0"/>
        <pt x="325" y="548" on="1"/>
        <pt x="387" y="548" on="0"/>
        <pt x="489" y="500" on="0"/>
        <pt x="561" y="422" on="0"/>
        <pt x="601" y="323" on="0"/>
        <pt x="601" y="272" on="1"/>
        <pt x="601" y="217" on="0"/>
        <pt x="559" y="117" on="0"/>
        <pt x="485" y="41" on="0"/>
        <pt x="383" y="-4" on="0"/>
      </contour>
      <contour>
        <pt x="94" y="272" on="1"/>
        <pt x="94" y="227" on="0"/>
        <pt x="128" y="142" on="0"/>
        <pt x="189" y="78" on="0"/>
        <pt x="274" y="39" on="0"/>
        <pt x="325" y="39" on="1"/>
        <pt x="377" y="39" on="0"/>
        <pt x="462" y="80" on="0"/>
        <pt x="522" y="146" on="0"/>
        <pt x="554" y="230" on="0"/>
        <pt x="554" y="273" on="1"/>
        <pt x="554" y="318" on="0"/>
        <pt x="520" y="402" on="0"/>
        <pt x="458" y="467" on="0"/>
        <pt x="374" y="505" on="0"/>
        <pt x="324" y="505" on="1"/>
        <pt x="272" y="505" on="0"/>
        <pt x="187" y="465" on="0"/>
        <pt x="127" y="399" on="0"/>
        <pt x="94" y="315" on="0"/>
      </contour>
    </TTGlyph>
    <TTGlyph name="OE" xMin="44" yMin="-5" xMax="1128" yMax="715">
      <contour>
        <pt x="1128" y="46" on="1"/>
        <pt x="1128" y="0" on="1"/>
        <pt x="659" y="0" on="1"/>
        <pt x="659" y="200" on="1"/>
        <pt x="642" y="157" on="0"/>
        <pt x="586" y="82" on="0"/>
        <pt x="513" y="27" on="0"/>
        <pt x="426" y="-5" on="0"/>
        <pt x="378" y="-5" on="1"/>
        <pt x="304" y="-5" on="0"/>
        <pt x="181" y="56" on="0"/>
        <pt x="93" y="157" on="0"/>
        <pt x="44" y="287" on="0"/>
        <pt x="44" y="355" on="1"/>
        <pt x="44" y="426" on="0"/>
        <pt x="95" y="556" on="0"/>
        <pt x="184" y="656" on="0"/>
        <pt x="306" y="715" on="0"/>
        <pt x="377" y="715" on="1"/>
        <pt x="427" y="715" on="0"/>
        <pt x="516" y="682" on="0"/>
        <pt x="588" y="626" on="0"/>
        <pt x="642" y="551" on="0"/>
        <pt x="659" y="509" on="1"/>
        <pt x="659" y="710" on="1"/>
        <pt x="1119" y="710" on="1"/>
        <pt x="1119" y="664" on="1"/>
        <pt x="709" y="664" on="1"/>
        <pt x="709" y="386" on="1"/>
        <pt x="1065" y="386" on="1"/>
        <pt x="1065" y="339" on="1"/>
        <pt x="709" y="339" on="1"/>
        <pt x="709" y="46" on="1"/>
      </contour>
      <contour>
        <pt x="377" y="42" on="1"/>
        <pt x="441" y="42" on="0"/>
        <pt x="544" y="96" on="0"/>
        <pt x="617" y="185" on="0"/>
        <pt x="657" y="297" on="0"/>
        <pt x="657" y="356" on="1"/>
        <pt x="657" y="417" on="0"/>
        <pt x="615" y="529" on="0"/>
        <pt x="540" y="616" on="0"/>
        <pt x="438" y="668" on="0"/>
        <pt x="377" y="668" on="1"/>
        <pt x="313" y="668" on="0"/>
        <pt x="209" y="614" on="0"/>
        <pt x="135" y="525" on="0"/>
        <pt x="95" y="413" on="0"/>
        <pt x="95" y="355" on="1"/>
        <pt x="95" y="294" on="0"/>
        <pt x="136" y="181" on="0"/>
        <pt x="211" y="94" on="0"/>
        <pt x="315" y="42" on="0"/>
      </contour>
    </TTGlyph>
    <TTGlyph name="Oacute" xMin="44" yMin="-5" xMax="709" yMax="917">
      <contour>
        <pt x="376" y="816" on="1"/>
        <pt x="341" y="832" on="1"/>
        <pt x="402" y="917" on="1"/>
        <pt x="460" y="917" on="1"/>
      </contour>
      <contour>
        <pt x="376" y="-5" on="1"/>
        <pt x="302" y="-5" on="0"/>
        <pt x="180" y="57" on="0"/>
        <pt x="92" y="157" on="0"/>
        <pt x="44" y="287" on="0"/>
        <pt x="44" y="355" on="1"/>
        <pt x="44" y="426" on="0"/>
        <pt x="95" y="556" on="0"/>
        <pt x="184" y="656" on="0"/>
        <pt x="306" y="715" on="0"/>
        <pt x="377" y="715" on="1"/>
        <pt x="451" y="715" on="0"/>
        <pt x="574" y="652" on="0"/>
        <pt x="661" y="550" on="0"/>
        <pt x="709" y="421" on="0"/>
        <pt x="709" y="355" on="1"/>
        <pt x="709" y="283" on="0"/>
        <pt x="658" y="153" on="0"/>
        <pt x="569" y="54" on="0"/>
        <pt x="447" y="-5" on="0"/>
      </contour>
      <contour>
        <pt x="95" y="355" on="1"/>
        <pt x="95" y="294" on="0"/>
        <pt x="136" y="181" on="0"/>
        <pt x="211" y="94" on="0"/>
        <pt x="315" y="42" on="0"/>
        <pt x="377" y="42" on="1"/>
        <pt x="441" y="42" on="0"/>
        <pt x="544" y="96" on="0"/>
        <pt x="617" y="185" on="0"/>
        <pt x="657" y="297" on="0"/>
        <pt x="657" y="355" on="1"/>
        <pt x="657" y="416" on="0"/>
        <pt x="615" y="529" on="0"/>
        <pt x="540" y="616" on="0"/>
        <pt x="438" y="668" on="0"/>
        <pt x="377" y="668" on="1"/>
        <pt x="313" y="668" on="0"/>
        <pt x="209" y="614" on="0"/>
        <pt x="135" y="525" on="0"/>
        <pt x="95" y="413" on="0"/>
      </contour>
    </TTGlyph>
    <TTGlyph name="Obreve" xMin="44" yMin="-5" xMax="709" yMax="917">
      <contour>
        <pt x="376" y="-5" on="1"/>
        <pt x="302" y="-5" on="0"/>
        <pt x="180" y="57" on="0"/>
        <pt x="92" y="157" on="0"/>
        <pt x="44" y="287" on="0"/>
        <pt x="44" y="355" on="1"/>
        <pt x="44" y="426" on="0"/>
        <pt x="95" y="556" on="0"/>
        <pt x="184" y="656" on="0"/>
        <pt x="306" y="715" on="0"/>
        <pt x="377" y="715" on="1"/>
        <pt x="451" y="715" on="0"/>
        <pt x="574" y="652" on="0"/>
        <pt x="661" y="550" on="0"/>
        <pt x="709" y="421" on="0"/>
        <pt x="709" y="355" on="1"/>
        <pt x="709" y="283" on="0"/>
        <pt x="658" y="153" on="0"/>
        <pt x="569" y="54" on="0"/>
        <pt x="447" y="-5" on="0"/>
      </contour>
      <contour>
        <pt x="95" y="355" on="1"/>
        <pt x="95" y="294" on="0"/>
        <pt x="136" y="181" on="0"/>
        <pt x="211" y="94" on="0"/>
        <pt x="315" y="42" on="0"/>
        <pt x="377" y="42" on="1"/>
        <pt x="441" y="42" on="0"/>
        <pt x="544" y="96" on="0"/>
        <pt x="617" y="185" on="0"/>
        <pt x="657" y="297" on="0"/>
        <pt x="657" y="355" on="1"/>
        <pt x="657" y="416" on="0"/>
        <pt x="615" y="529" on="0"/>
        <pt x="540" y="616" on="0"/>
        <pt x="438" y="668" on="0"/>
        <pt x="377" y="668" on="1"/>
        <pt x="313" y="668" on="0"/>
        <pt x="209" y="614" on="0"/>
        <pt x="135" y="525" on="0"/>
        <pt x="95" y="413" on="0"/>
      </contour>
      <contour>
        <pt x="378" y="853" on="1"/>
        <pt x="398" y="853" on="0"/>
        <pt x="431" y="890" on="0"/>
        <pt x="434" y="917" on="1"/>
        <pt x="467" y="917" on="1"/>
        <pt x="467" y="898" on="0"/>
        <pt x="453" y="864" on="0"/>
        <pt x="428" y="839" on="0"/>
        <pt x="396" y="825" on="0"/>
        <pt x="378" y="825" on="1"/>
        <pt x="360" y="825" on="0"/>
        <pt x="327" y="839" on="0"/>
        <pt x="303" y="864" on="0"/>
        <pt x="289" y="898" on="0"/>
        <pt x="289" y="917" on="1"/>
        <pt x="322" y="917" on="1"/>
        <pt x="322" y="892" on="0"/>
        <pt x="356" y="853" on="0"/>
      </contour>
    </TTGlyph>
    <TTGlyph name="Ocircumflex" xMin="44" yMin="-5" xMax="709" yMax="917">
      <contour>
        <pt x="262" y="836" on="1"/>
        <pt x="358" y="917" on="1"/>
        <pt x="395" y="917" on="1"/>
        <pt x="492" y="836" on="1"/>
        <pt x="462" y="819" on="1"/>
        <pt x="377" y="882" on="1"/>
        <pt x="292" y="819" on="1"/>
      </contour>
      <contour>
        <pt x="376" y="-5" on="1"/>
        <pt x="302" y="-5" on="0"/>
        <pt x="180" y="57" on="0"/>
        <pt x="92" y="157" on="0"/>
        <pt x="44" y="287" on="0"/>
        <pt x="44" y="355" on="1"/>
        <pt x="44" y="426" on="0"/>
        <pt x="95" y="556" on="0"/>
        <pt x="184" y="656" on="0"/>
        <pt x="306" y="715" on="0"/>
        <pt x="377" y="715" on="1"/>
        <pt x="451" y="715" on="0"/>
        <pt x="574" y="652" on="0"/>
        <pt x="661" y="550" on="0"/>
        <pt x="709" y="421" on="0"/>
        <pt x="709" y="355" on="1"/>
        <pt x="709" y="283" on="0"/>
        <pt x="658" y="153" on="0"/>
        <pt x="569" y="54" on="0"/>
        <pt x="447" y="-5" on="0"/>
      </contour>
      <contour>
        <pt x="95" y="355" on="1"/>
        <pt x="95" y="294" on="0"/>
        <pt x="136" y="181" on="0"/>
        <pt x="211" y="94" on="0"/>
        <pt x="315" y="42" on="0"/>
        <pt x="377" y="42" on="1"/>
        <pt x="441" y="42" on="0"/>
        <pt x="544" y="96" on="0"/>
        <pt x="617" y="185" on="0"/>
        <pt x="657" y="297" on="0"/>
        <pt x="657" y="355" on="1"/>
        <pt x="657" y="416" on="0"/>
        <pt x="615" y="529" on="0"/>
        <pt x="540" y="616" on="0"/>
        <pt x="438" y="668" on="0"/>
        <pt x="377" y="668" on="1"/>
        <pt x="313" y="668" on="0"/>
        <pt x="209" y="614" on="0"/>
        <pt x="135" y="525" on="0"/>
        <pt x="95" y="413" on="0"/>
      </contour>
    </TTGlyph>
    <TTGlyph name="Odblgrave" xMin="44" yMin="-5" xMax="709" yMax="918">
      <contour>
        <pt x="348" y="918" on="1"/>
        <pt x="400" y="918" on="1"/>
        <pt x="460" y="833" on="1"/>
        <pt x="431" y="817" on="1"/>
      </contour>
      <contour>
        <pt x="232" y="918" on="1"/>
        <pt x="285" y="918" on="1"/>
        <pt x="344" y="833" on="1"/>
        <pt x="315" y="817" on="1"/>
      </contour>
      <contour>
        <pt x="376" y="-5" on="1"/>
        <pt x="302" y="-5" on="0"/>
        <pt x="180" y="57" on="0"/>
        <pt x="92" y="157" on="0"/>
        <pt x="44" y="287" on="0"/>
        <pt x="44" y="355" on="1"/>
        <pt x="44" y="426" on="0"/>
        <pt x="95" y="556" on="0"/>
        <pt x="184" y="656" on="0"/>
        <pt x="306" y="715" on="0"/>
        <pt x="377" y="715" on="1"/>
        <pt x="451" y="715" on="0"/>
        <pt x="574" y="652" on="0"/>
        <pt x="661" y="550" on="0"/>
        <pt x="709" y="421" on="0"/>
        <pt x="709" y="355" on="1"/>
        <pt x="709" y="283" on="0"/>
        <pt x="658" y="153" on="0"/>
        <pt x="569" y="54" on="0"/>
        <pt x="447" y="-5" on="0"/>
      </contour>
      <contour>
        <pt x="95" y="355" on="1"/>
        <pt x="95" y="294" on="0"/>
        <pt x="136" y="181" on="0"/>
        <pt x="211" y="94" on="0"/>
        <pt x="315" y="42" on="0"/>
        <pt x="377" y="42" on="1"/>
        <pt x="441" y="42" on="0"/>
        <pt x="544" y="96" on="0"/>
        <pt x="617" y="185" on="0"/>
        <pt x="657" y="297" on="0"/>
        <pt x="657" y="355" on="1"/>
        <pt x="657" y="416" on="0"/>
        <pt x="615" y="529" on="0"/>
        <pt x="540" y="616" on="0"/>
        <pt x="438" y="668" on="0"/>
        <pt x="377" y="668" on="1"/>
        <pt x="313" y="668" on="0"/>
        <pt x="209" y="614" on="0"/>
        <pt x="135" y="525" on="0"/>
        <pt x="95" y="413" on="0"/>
      </contour>
    </TTGlyph>
    <TTGlyph name="Odieresis" xMin="44" yMin="-5" xMax="709" yMax="916">
      <contour>
        <pt x="287" y="828" on="1"/>
        <pt x="287" y="916" on="1"/>
        <pt x="331" y="916" on="1"/>
        <pt x="331" y="828" on="1"/>
      </contour>
      <contour>
        <pt x="423" y="828" on="1"/>
        <pt x="423" y="916" on="1"/>
        <pt x="467" y="916" on="1"/>
        <pt x="467" y="828" on="1"/>
      </contour>
      <contour>
        <pt x="376" y="-5" on="1"/>
        <pt x="302" y="-5" on="0"/>
        <pt x="180" y="57" on="0"/>
        <pt x="92" y="157" on="0"/>
        <pt x="44" y="287" on="0"/>
        <pt x="44" y="355" on="1"/>
        <pt x="44" y="426" on="0"/>
        <pt x="95" y="556" on="0"/>
        <pt x="184" y="656" on="0"/>
        <pt x="306" y="715" on="0"/>
        <pt x="377" y="715" on="1"/>
        <pt x="451" y="715" on="0"/>
        <pt x="574" y="652" on="0"/>
        <pt x="661" y="550" on="0"/>
        <pt x="709" y="421" on="0"/>
        <pt x="709" y="355" on="1"/>
        <pt x="709" y="283" on="0"/>
        <pt x="658" y="153" on="0"/>
        <pt x="569" y="54" on="0"/>
        <pt x="447" y="-5" on="0"/>
      </contour>
      <contour>
        <pt x="95" y="355" on="1"/>
        <pt x="95" y="294" on="0"/>
        <pt x="136" y="181" on="0"/>
        <pt x="211" y="94" on="0"/>
        <pt x="315" y="42" on="0"/>
        <pt x="377" y="42" on="1"/>
        <pt x="441" y="42" on="0"/>
        <pt x="544" y="96" on="0"/>
        <pt x="617" y="185" on="0"/>
        <pt x="657" y="297" on="0"/>
        <pt x="657" y="355" on="1"/>
        <pt x="657" y="416" on="0"/>
        <pt x="615" y="529" on="0"/>
        <pt x="540" y="616" on="0"/>
        <pt x="438" y="668" on="0"/>
        <pt x="377" y="668" on="1"/>
        <pt x="313" y="668" on="0"/>
        <pt x="209" y="614" on="0"/>
        <pt x="135" y="525" on="0"/>
        <pt x="95" y="413" on="0"/>
      </contour>
    </TTGlyph>
    <TTGlyph name="Odotbelow" xMin="44" yMin="-151" xMax="709" yMax="715">
      <contour>
        <pt x="353" y="-151" on="1"/>
        <pt x="353" y="-61" on="1"/>
        <pt x="399" y="-61" on="1"/>
        <pt x="399" y="-151" on="1"/>
      </contour>
      <contour>
        <pt x="376" y="-5" on="1"/>
        <pt x="302" y="-5" on="0"/>
        <pt x="180" y="57" on="0"/>
        <pt x="92" y="157" on="0"/>
        <pt x="44" y="287" on="0"/>
        <pt x="44" y="355" on="1"/>
        <pt x="44" y="426" on="0"/>
        <pt x="95" y="556" on="0"/>
        <pt x="184" y="656" on="0"/>
        <pt x="306" y="715" on="0"/>
        <pt x="377" y="715" on="1"/>
        <pt x="451" y="715" on="0"/>
        <pt x="574" y="652" on="0"/>
        <pt x="661" y="550" on="0"/>
        <pt x="709" y="421" on="0"/>
        <pt x="709" y="355" on="1"/>
        <pt x="709" y="283" on="0"/>
        <pt x="658" y="153" on="0"/>
        <pt x="569" y="54" on="0"/>
        <pt x="447" y="-5" on="0"/>
      </contour>
      <contour>
        <pt x="95" y="355" on="1"/>
        <pt x="95" y="294" on="0"/>
        <pt x="136" y="181" on="0"/>
        <pt x="211" y="94" on="0"/>
        <pt x="315" y="42" on="0"/>
        <pt x="377" y="42" on="1"/>
        <pt x="441" y="42" on="0"/>
        <pt x="544" y="96" on="0"/>
        <pt x="617" y="185" on="0"/>
        <pt x="657" y="297" on="0"/>
        <pt x="657" y="355" on="1"/>
        <pt x="657" y="416" on="0"/>
        <pt x="615" y="529" on="0"/>
        <pt x="540" y="616" on="0"/>
        <pt x="438" y="668" on="0"/>
        <pt x="377" y="668" on="1"/>
        <pt x="313" y="668" on="0"/>
        <pt x="209" y="614" on="0"/>
        <pt x="135" y="525" on="0"/>
        <pt x="95" y="413" on="0"/>
      </contour>
    </TTGlyph>
    <TTGlyph name="Ograve" xMin="44" yMin="-5" xMax="709" yMax="918">
      <contour>
        <pt x="376" y="-5" on="1"/>
        <pt x="302" y="-5" on="0"/>
        <pt x="180" y="57" on="0"/>
        <pt x="92" y="157" on="0"/>
        <pt x="44" y="287" on="0"/>
        <pt x="44" y="355" on="1"/>
        <pt x="44" y="426" on="0"/>
        <pt x="95" y="556" on="0"/>
        <pt x="184" y="656" on="0"/>
        <pt x="306" y="715" on="0"/>
        <pt x="377" y="715" on="1"/>
        <pt x="451" y="715" on="0"/>
        <pt x="574" y="652" on="0"/>
        <pt x="661" y="550" on="0"/>
        <pt x="709" y="421" on="0"/>
        <pt x="709" y="355" on="1"/>
        <pt x="709" y="283" on="0"/>
        <pt x="658" y="153" on="0"/>
        <pt x="569" y="54" on="0"/>
        <pt x="447" y="-5" on="0"/>
      </contour>
      <contour>
        <pt x="95" y="355" on="1"/>
        <pt x="95" y="294" on="0"/>
        <pt x="136" y="181" on="0"/>
        <pt x="211" y="94" on="0"/>
        <pt x="315" y="42" on="0"/>
        <pt x="377" y="42" on="1"/>
        <pt x="441" y="42" on="0"/>
        <pt x="544" y="96" on="0"/>
        <pt x="617" y="185" on="0"/>
        <pt x="657" y="297" on="0"/>
        <pt x="657" y="355" on="1"/>
        <pt x="657" y="416" on="0"/>
        <pt x="615" y="529" on="0"/>
        <pt x="540" y="616" on="0"/>
        <pt x="438" y="668" on="0"/>
        <pt x="377" y="668" on="1"/>
        <pt x="313" y="668" on="0"/>
        <pt x="209" y="614" on="0"/>
        <pt x="135" y="525" on="0"/>
        <pt x="95" y="413" on="0"/>
      </contour>
      <contour>
        <pt x="293" y="918" on="1"/>
        <pt x="350" y="918" on="1"/>
        <pt x="412" y="833" on="1"/>
        <pt x="378" y="817" on="1"/>
      </contour>
    </TTGlyph>
    <TTGlyph name="Ohungarumlaut" xMin="44" yMin="-5" xMax="709" yMax="918">
      <contour>
        <pt x="314" y="817" on="1"/>
        <pt x="285" y="833" on="1"/>
        <pt x="344" y="918" on="1"/>
        <pt x="397" y="918" on="1"/>
      </contour>
      <contour>
        <pt x="430" y="817" on="1"/>
        <pt x="400" y="833" on="1"/>
        <pt x="460" y="918" on="1"/>
        <pt x="513" y="918" on="1"/>
      </contour>
      <contour>
        <pt x="376" y="-5" on="1"/>
        <pt x="302" y="-5" on="0"/>
        <pt x="180" y="57" on="0"/>
        <pt x="92" y="157" on="0"/>
        <pt x="44" y="287" on="0"/>
        <pt x="44" y="355" on="1"/>
        <pt x="44" y="426" on="0"/>
        <pt x="95" y="556" on="0"/>
        <pt x="184" y="656" on="0"/>
        <pt x="306" y="715" on="0"/>
        <pt x="377" y="715" on="1"/>
        <pt x="451" y="715" on="0"/>
        <pt x="574" y="652" on="0"/>
        <pt x="661" y="550" on="0"/>
        <pt x="709" y="421" on="0"/>
        <pt x="709" y="355" on="1"/>
        <pt x="709" y="283" on="0"/>
        <pt x="658" y="153" on="0"/>
        <pt x="569" y="54" on="0"/>
        <pt x="447" y="-5" on="0"/>
      </contour>
      <contour>
        <pt x="95" y="355" on="1"/>
        <pt x="95" y="294" on="0"/>
        <pt x="136" y="181" on="0"/>
        <pt x="211" y="94" on="0"/>
        <pt x="315" y="42" on="0"/>
        <pt x="377" y="42" on="1"/>
        <pt x="441" y="42" on="0"/>
        <pt x="544" y="96" on="0"/>
        <pt x="617" y="185" on="0"/>
        <pt x="657" y="297" on="0"/>
        <pt x="657" y="355" on="1"/>
        <pt x="657" y="416" on="0"/>
        <pt x="615" y="529" on="0"/>
        <pt x="540" y="616" on="0"/>
        <pt x="438" y="668" on="0"/>
        <pt x="377" y="668" on="1"/>
        <pt x="313" y="668" on="0"/>
        <pt x="209" y="614" on="0"/>
        <pt x="135" y="525" on="0"/>
        <pt x="95" y="413" on="0"/>
      </contour>
    </TTGlyph>
    <TTGlyph name="Oinvertedbreve" xMin="44" yMin="-5" xMax="709" yMax="917">
      <contour>
        <pt x="376" y="889" on="1"/>
        <pt x="354" y="889" on="0"/>
        <pt x="320" y="850" on="0"/>
        <pt x="320" y="825" on="1"/>
        <pt x="287" y="825" on="1"/>
        <pt x="287" y="844" on="0"/>
        <pt x="301" y="878" on="0"/>
        <pt x="325" y="903" on="0"/>
        <pt x="358" y="917" on="0"/>
        <pt x="376" y="917" on="1"/>
        <pt x="394" y="917" on="0"/>
        <pt x="426" y="903" on="0"/>
        <pt x="451" y="878" on="0"/>
        <pt x="465" y="844" on="0"/>
        <pt x="465" y="825" on="1"/>
        <pt x="432" y="825" on="1"/>
        <pt x="429" y="852" on="0"/>
        <pt x="396" y="889" on="0"/>
      </contour>
      <contour>
        <pt x="376" y="-5" on="1"/>
        <pt x="302" y="-5" on="0"/>
        <pt x="180" y="57" on="0"/>
        <pt x="92" y="157" on="0"/>
        <pt x="44" y="287" on="0"/>
        <pt x="44" y="355" on="1"/>
        <pt x="44" y="426" on="0"/>
        <pt x="95" y="556" on="0"/>
        <pt x="184" y="656" on="0"/>
        <pt x="306" y="715" on="0"/>
        <pt x="377" y="715" on="1"/>
        <pt x="451" y="715" on="0"/>
        <pt x="574" y="652" on="0"/>
        <pt x="661" y="550" on="0"/>
        <pt x="709" y="421" on="0"/>
        <pt x="709" y="355" on="1"/>
        <pt x="709" y="283" on="0"/>
        <pt x="658" y="153" on="0"/>
        <pt x="569" y="54" on="0"/>
        <pt x="447" y="-5" on="0"/>
      </contour>
      <contour>
        <pt x="95" y="355" on="1"/>
        <pt x="95" y="294" on="0"/>
        <pt x="136" y="181" on="0"/>
        <pt x="211" y="94" on="0"/>
        <pt x="315" y="42" on="0"/>
        <pt x="377" y="42" on="1"/>
        <pt x="441" y="42" on="0"/>
        <pt x="544" y="96" on="0"/>
        <pt x="617" y="185" on="0"/>
        <pt x="657" y="297" on="0"/>
        <pt x="657" y="355" on="1"/>
        <pt x="657" y="416" on="0"/>
        <pt x="615" y="529" on="0"/>
        <pt x="540" y="616" on="0"/>
        <pt x="438" y="668" on="0"/>
        <pt x="377" y="668" on="1"/>
        <pt x="313" y="668" on="0"/>
        <pt x="209" y="614" on="0"/>
        <pt x="135" y="525" on="0"/>
        <pt x="95" y="413" on="0"/>
      </contour>
    </TTGlyph>
    <TTGlyph name="Omacron" xMin="44" yMin="-5" xMax="709" yMax="896">
      <contour>
        <pt x="235" y="859" on="1"/>
        <pt x="235" y="896" on="1"/>
        <pt x="520" y="896" on="1"/>
        <pt x="520" y="859" on="1"/>
      </contour>
      <contour>
        <pt x="376" y="-5" on="1"/>
        <pt x="302" y="-5" on="0"/>
        <pt x="180" y="57" on="0"/>
        <pt x="92" y="157" on="0"/>
        <pt x="44" y="287" on="0"/>
        <pt x="44" y="355" on="1"/>
        <pt x="44" y="426" on="0"/>
        <pt x="95" y="556" on="0"/>
        <pt x="184" y="656" on="0"/>
        <pt x="306" y="715" on="0"/>
        <pt x="377" y="715" on="1"/>
        <pt x="451" y="715" on="0"/>
        <pt x="574" y="652" on="0"/>
        <pt x="661" y="550" on="0"/>
        <pt x="709" y="421" on="0"/>
        <pt x="709" y="355" on="1"/>
        <pt x="709" y="283" on="0"/>
        <pt x="658" y="153" on="0"/>
        <pt x="569" y="54" on="0"/>
        <pt x="447" y="-5" on="0"/>
      </contour>
      <contour>
        <pt x="95" y="355" on="1"/>
        <pt x="95" y="294" on="0"/>
        <pt x="136" y="181" on="0"/>
        <pt x="211" y="94" on="0"/>
        <pt x="315" y="42" on="0"/>
        <pt x="377" y="42" on="1"/>
        <pt x="441" y="42" on="0"/>
        <pt x="544" y="96" on="0"/>
        <pt x="617" y="185" on="0"/>
        <pt x="657" y="297" on="0"/>
        <pt x="657" y="355" on="1"/>
        <pt x="657" y="416" on="0"/>
        <pt x="615" y="529" on="0"/>
        <pt x="540" y="616" on="0"/>
        <pt x="438" y="668" on="0"/>
        <pt x="377" y="668" on="1"/>
        <pt x="313" y="668" on="0"/>
        <pt x="209" y="614" on="0"/>
        <pt x="135" y="525" on="0"/>
        <pt x="95" y="413" on="0"/>
      </contour>
    </TTGlyph>
    <TTGlyph name="Omega" xMin="47" yMin="0" xMax="719" yMax="715">
      <contour>
        <pt x="47" y="47" on="1"/>
        <pt x="248" y="47" on="1"/>
        <pt x="157" y="92" on="0"/>
        <pt x="54" y="262" on="0"/>
        <pt x="54" y="365" on="1"/>
        <pt x="54" y="434" on="0"/>
        <pt x="104" y="561" on="0"/>
        <pt x="192" y="657" on="0"/>
        <pt x="312" y="715" on="0"/>
        <pt x="383" y="715" on="1"/>
        <pt x="454" y="715" on="0"/>
        <pt x="574" y="657" on="0"/>
        <pt x="662" y="561" on="0"/>
        <pt x="712" y="434" on="0"/>
        <pt x="712" y="365" on="1"/>
        <pt x="712" y="314" on="0"/>
        <pt x="685" y="218" on="0"/>
        <pt x="635" y="136" on="0"/>
        <pt x="562" y="69" on="0"/>
        <pt x="517" y="47" on="1"/>
        <pt x="719" y="47" on="1"/>
        <pt x="719" y="0" on="1"/>
        <pt x="430" y="0" on="1"/>
        <pt x="430" y="47" on="1"/>
        <pt x="485" y="60" on="0"/>
        <pt x="571" y="125" on="0"/>
        <pt x="629" y="213" on="0"/>
        <pt x="660" y="315" on="0"/>
        <pt x="660" y="365" on="1"/>
        <pt x="660" y="421" on="0"/>
        <pt x="622" y="530" on="0"/>
        <pt x="550" y="615" on="0"/>
        <pt x="447" y="667" on="0"/>
        <pt x="383" y="667" on="1"/>
        <pt x="319" y="667" on="0"/>
        <pt x="216" y="615" on="0"/>
        <pt x="144" y="530" on="0"/>
        <pt x="106" y="421" on="0"/>
        <pt x="106" y="365" on="1"/>
        <pt x="106" y="315" on="0"/>
        <pt x="137" y="213" on="0"/>
        <pt x="195" y="125" on="0"/>
        <pt x="281" y="60" on="0"/>
        <pt x="336" y="47" on="1"/>
        <pt x="336" y="0" on="1"/>
        <pt x="47" y="0" on="1"/>
      </contour>
    </TTGlyph>
    <TTGlyph name="Oogonek" xMin="44" yMin="-172" xMax="709" yMax="715">
      <contour>
        <pt x="347" y="-172" on="1"/>
        <pt x="315" y="-165" on="0"/>
        <pt x="280" y="-129" on="0"/>
        <pt x="280" y="-104" on="1"/>
        <pt x="280" y="-79" on="0"/>
        <pt x="314" y="-31" on="0"/>
        <pt x="352" y="-4" on="1"/>
        <pt x="283" y="1" on="0"/>
        <pt x="169" y="66" on="0"/>
        <pt x="88" y="165" on="0"/>
        <pt x="44" y="289" on="0"/>
        <pt x="44" y="355" on="1"/>
        <pt x="44" y="426" on="0"/>
        <pt x="95" y="556" on="0"/>
        <pt x="184" y="656" on="0"/>
        <pt x="306" y="715" on="0"/>
        <pt x="377" y="715" on="1"/>
        <pt x="451" y="715" on="0"/>
        <pt x="574" y="652" on="0"/>
        <pt x="661" y="550" on="0"/>
        <pt x="709" y="421" on="0"/>
        <pt x="709" y="355" on="1"/>
        <pt x="709" y="286" on="0"/>
        <pt x="661" y="159" on="0"/>
        <pt x="577" y="61" on="0"/>
        <pt x="461" y="0" on="0"/>
        <pt x="394" y="-4" on="1"/>
        <pt x="349" y="-33" on="0"/>
        <pt x="314" y="-74" on="0"/>
        <pt x="314" y="-97" on="1"/>
        <pt x="314" y="-135" on="0"/>
        <pt x="363" y="-142" on="1"/>
      </contour>
      <contour>
        <pt x="95" y="355" on="1"/>
        <pt x="95" y="294" on="0"/>
        <pt x="136" y="181" on="0"/>
        <pt x="211" y="94" on="0"/>
        <pt x="315" y="42" on="0"/>
        <pt x="377" y="42" on="1"/>
        <pt x="441" y="42" on="0"/>
        <pt x="544" y="96" on="0"/>
        <pt x="617" y="185" on="0"/>
        <pt x="657" y="297" on="0"/>
        <pt x="657" y="355" on="1"/>
        <pt x="657" y="416" on="0"/>
        <pt x="615" y="529" on="0"/>
        <pt x="540" y="616" on="0"/>
        <pt x="438" y="668" on="0"/>
        <pt x="377" y="668" on="1"/>
        <pt x="313" y="668" on="0"/>
        <pt x="209" y="614" on="0"/>
        <pt x="135" y="525" on="0"/>
        <pt x="95" y="413" on="0"/>
      </contour>
    </TTGlyph>
    <TTGlyph name="Oslash" xMin="44" yMin="-5" xMax="709" yMax="715">
      <contour>
        <pt x="639" y="710" on="1"/>
        <pt x="587" y="632" on="1"/>
        <pt x="645" y="579" on="0"/>
        <pt x="709" y="432" on="0"/>
        <pt x="709" y="355" on="1"/>
        <pt x="709" y="283" on="0"/>
        <pt x="658" y="153" on="0"/>
        <pt x="569" y="54" on="0"/>
        <pt x="447" y="-5" on="0"/>
        <pt x="376" y="-5" on="1"/>
        <pt x="327" y="-5" on="0"/>
        <pt x="239" y="23" on="0"/>
        <pt x="203" y="48" on="1"/>
        <pt x="172" y="0" on="1"/>
        <pt x="115" y="0" on="1"/>
        <pt x="165" y="77" on="1"/>
        <pt x="108" y="129" on="0"/>
        <pt x="44" y="275" on="0"/>
        <pt x="44" y="355" on="1"/>
        <pt x="44" y="426" on="0"/>
        <pt x="95" y="556" on="0"/>
        <pt x="184" y="656" on="0"/>
        <pt x="306" y="715" on="0"/>
        <pt x="377" y="715" on="1"/>
        <pt x="426" y="715" on="0"/>
        <pt x="512" y="687" on="0"/>
        <pt x="549" y="662" on="1"/>
        <pt x="581" y="710" on="1"/>
      </contour>
      <contour>
        <pt x="95" y="355" on="1"/>
        <pt x="95" y="286" on="0"/>
        <pt x="146" y="163" on="0"/>
        <pt x="192" y="118" on="1"/>
        <pt x="523" y="622" on="1"/>
        <pt x="491" y="644" on="0"/>
        <pt x="418" y="668" on="0"/>
        <pt x="377" y="668" on="1"/>
        <pt x="313" y="668" on="0"/>
        <pt x="209" y="614" on="0"/>
        <pt x="135" y="525" on="0"/>
        <pt x="95" y="413" on="0"/>
      </contour>
      <contour>
        <pt x="657" y="355" on="1"/>
        <pt x="657" y="423" on="0"/>
        <pt x="605" y="546" on="0"/>
        <pt x="560" y="591" on="1"/>
        <pt x="229" y="87" on="1"/>
        <pt x="261" y="66" on="0"/>
        <pt x="335" y="42" on="0"/>
        <pt x="377" y="42" on="1"/>
        <pt x="441" y="42" on="0"/>
        <pt x="544" y="96" on="0"/>
        <pt x="617" y="185" on="0"/>
        <pt x="657" y="297" on="0"/>
      </contour>
    </TTGlyph>
    <TTGlyph name="Oslashacute" xMin="44" yMin="-5" xMax="709" yMax="917">
      <contour>
        <pt x="639" y="710" on="1"/>
        <pt x="587" y="632" on="1"/>
        <pt x="645" y="579" on="0"/>
        <pt x="709" y="432" on="0"/>
        <pt x="709" y="355" on="1"/>
        <pt x="709" y="283" on="0"/>
        <pt x="658" y="153" on="0"/>
        <pt x="569" y="54" on="0"/>
        <pt x="447" y="-5" on="0"/>
        <pt x="376" y="-5" on="1"/>
        <pt x="327" y="-5" on="0"/>
        <pt x="239" y="23" on="0"/>
        <pt x="203" y="48" on="1"/>
        <pt x="172" y="0" on="1"/>
        <pt x="115" y="0" on="1"/>
        <pt x="165" y="77" on="1"/>
        <pt x="108" y="129" on="0"/>
        <pt x="44" y="275" on="0"/>
        <pt x="44" y="355" on="1"/>
        <pt x="44" y="426" on="0"/>
        <pt x="95" y="556" on="0"/>
        <pt x="184" y="656" on="0"/>
        <pt x="306" y="715" on="0"/>
        <pt x="377" y="715" on="1"/>
        <pt x="426" y="715" on="0"/>
        <pt x="512" y="687" on="0"/>
        <pt x="549" y="662" on="1"/>
        <pt x="581" y="710" on="1"/>
      </contour>
      <contour>
        <pt x="95" y="355" on="1"/>
        <pt x="95" y="286" on="0"/>
        <pt x="146" y="163" on="0"/>
        <pt x="192" y="118" on="1"/>
        <pt x="523" y="622" on="1"/>
        <pt x="491" y="644" on="0"/>
        <pt x="418" y="668" on="0"/>
        <pt x="377" y="668" on="1"/>
        <pt x="313" y="668" on="0"/>
        <pt x="209" y="614" on="0"/>
        <pt x="135" y="525" on="0"/>
        <pt x="95" y="413" on="0"/>
      </contour>
      <contour>
        <pt x="657" y="355" on="1"/>
        <pt x="657" y="423" on="0"/>
        <pt x="605" y="546" on="0"/>
        <pt x="560" y="591" on="1"/>
        <pt x="229" y="87" on="1"/>
        <pt x="261" y="66" on="0"/>
        <pt x="335" y="42" on="0"/>
        <pt x="377" y="42" on="1"/>
        <pt x="441" y="42" on="0"/>
        <pt x="544" y="96" on="0"/>
        <pt x="617" y="185" on="0"/>
        <pt x="657" y="297" on="0"/>
      </contour>
      <contour>
        <pt x="376" y="816" on="1"/>
        <pt x="341" y="832" on="1"/>
        <pt x="402" y="917" on="1"/>
        <pt x="460" y="917" on="1"/>
      </contour>
    </TTGlyph>
    <TTGlyph name="Otilde" xMin="44" yMin="-5" xMax="709" yMax="917">
      <contour>
        <pt x="376" y="-5" on="1"/>
        <pt x="302" y="-5" on="0"/>
        <pt x="180" y="57" on="0"/>
        <pt x="92" y="157" on="0"/>
        <pt x="44" y="287" on="0"/>
        <pt x="44" y="355" on="1"/>
        <pt x="44" y="426" on="0"/>
        <pt x="95" y="556" on="0"/>
        <pt x="184" y="656" on="0"/>
        <pt x="306" y="715" on="0"/>
        <pt x="377" y="715" on="1"/>
        <pt x="451" y="715" on="0"/>
        <pt x="574" y="652" on="0"/>
        <pt x="661" y="550" on="0"/>
        <pt x="709" y="421" on="0"/>
        <pt x="709" y="355" on="1"/>
        <pt x="709" y="283" on="0"/>
        <pt x="658" y="153" on="0"/>
        <pt x="569" y="54" on="0"/>
        <pt x="447" y="-5" on="0"/>
      </contour>
      <contour>
        <pt x="95" y="355" on="1"/>
        <pt x="95" y="294" on="0"/>
        <pt x="136" y="181" on="0"/>
        <pt x="211" y="94" on="0"/>
        <pt x="315" y="42" on="0"/>
        <pt x="377" y="42" on="1"/>
        <pt x="441" y="42" on="0"/>
        <pt x="544" y="96" on="0"/>
        <pt x="617" y="185" on="0"/>
        <pt x="657" y="297" on="0"/>
        <pt x="657" y="355" on="1"/>
        <pt x="657" y="416" on="0"/>
        <pt x="615" y="529" on="0"/>
        <pt x="540" y="616" on="0"/>
        <pt x="438" y="668" on="0"/>
        <pt x="377" y="668" on="1"/>
        <pt x="313" y="668" on="0"/>
        <pt x="209" y="614" on="0"/>
        <pt x="135" y="525" on="0"/>
        <pt x="95" y="413" on="0"/>
      </contour>
      <contour>
        <pt x="438" y="834" on="1"/>
        <pt x="416" y="834" on="0"/>
        <pt x="382" y="846" on="0"/>
        <pt x="354" y="861" on="0"/>
        <pt x="327" y="874" on="0"/>
        <pt x="312" y="874" on="1"/>
        <pt x="295" y="874" on="0"/>
        <pt x="275" y="860" on="0"/>
        <pt x="265" y="843" on="0"/>
        <pt x="261" y="828" on="0"/>
        <pt x="261" y="826" on="1"/>
        <pt x="227" y="826" on="1"/>
        <pt x="227" y="830" on="0"/>
        <pt x="233" y="857" on="0"/>
        <pt x="252" y="886" on="0"/>
        <pt x="285" y="909" on="0"/>
        <pt x="312" y="909" on="1"/>
        <pt x="332" y="909" on="0"/>
        <pt x="363" y="896" on="0"/>
        <pt x="391" y="881" on="0"/>
        <pt x="420" y="869" on="0"/>
        <pt x="439" y="869" on="1"/>
        <pt x="459" y="869" on="0"/>
        <pt x="482" y="883" on="0"/>
        <pt x="493" y="900" on="0"/>
        <pt x="496" y="915" on="0"/>
        <pt x="496" y="917" on="1"/>
        <pt x="530" y="917" on="1"/>
        <pt x="530" y="912" on="0"/>
        <pt x="523" y="885" on="0"/>
        <pt x="504" y="857" on="0"/>
        <pt x="468" y="834" on="0"/>
      </contour>
    </TTGlyph>
    <TTGlyph name="P" xMin="93" yMin="0" xMax="592" yMax="710">
      <contour>
        <pt x="93" y="0" on="1"/>
        <pt x="93" y="710" on="1"/>
        <pt x="385" y="710" on="1"/>
        <pt x="430" y="710" on="0"/>
        <pt x="506" y="672" on="0"/>
        <pt x="561" y="609" on="0"/>
        <pt x="592" y="530" on="0"/>
        <pt x="592" y="490" on="1"/>
        <pt x="592" y="447" on="0"/>
        <pt x="563" y="367" on="0"/>
        <pt x="510" y="305" on="0"/>
        <pt x="436" y="268" on="0"/>
        <pt x="391" y="268" on="1"/>
        <pt x="144" y="268" on="1"/>
        <pt x="144" y="0" on="1"/>
      </contour>
      <contour>
        <pt x="144" y="315" on="1"/>
        <pt x="389" y="315" on="1"/>
        <pt x="424" y="315" on="0"/>
        <pt x="480" y="344" on="0"/>
        <pt x="519" y="393" on="0"/>
        <pt x="540" y="456" on="0"/>
        <pt x="540" y="490" on="1"/>
        <pt x="540" y="525" on="0"/>
        <pt x="515" y="588" on="0"/>
        <pt x="472" y="636" on="0"/>
        <pt x="415" y="664" on="0"/>
        <pt x="383" y="664" on="1"/>
        <pt x="144" y="664" on="1"/>
      </contour>
    </TTGlyph>
    <TTGlyph name="P.sc" xMin="88" yMin="0" xMax="505" yMax="545">
      <contour>
        <pt x="88" y="0" on="1"/>
        <pt x="88" y="545" on="1"/>
        <pt x="332" y="545" on="1"/>
        <pt x="370" y="545" on="0"/>
        <pt x="433" y="515" on="0"/>
        <pt x="479" y="467" on="0"/>
        <pt x="505" y="405" on="0"/>
        <pt x="505" y="374" on="1"/>
        <pt x="505" y="341" on="0"/>
        <pt x="481" y="280" on="0"/>
        <pt x="437" y="232" on="0"/>
        <pt x="375" y="203" on="0"/>
        <pt x="338" y="203" on="1"/>
        <pt x="134" y="203" on="1"/>
        <pt x="134" y="0" on="1"/>
      </contour>
      <contour>
        <pt x="134" y="245" on="1"/>
        <pt x="335" y="245" on="1"/>
        <pt x="363" y="245" on="0"/>
        <pt x="409" y="266" on="0"/>
        <pt x="441" y="302" on="0"/>
        <pt x="458" y="349" on="0"/>
        <pt x="458" y="374" on="1"/>
        <pt x="458" y="400" on="0"/>
        <pt x="438" y="446" on="0"/>
        <pt x="403" y="481" on="0"/>
        <pt x="357" y="502" on="0"/>
        <pt x="330" y="502" on="1"/>
        <pt x="134" y="502" on="1"/>
      </contour>
    </TTGlyph>
    <TTGlyph name="Q" xMin="44" yMin="-5" xMax="709" yMax="715">
      <contour>
        <pt x="576" y="67" on="1"/>
        <pt x="534" y="33" on="0"/>
        <pt x="433" y="-5" on="0"/>
        <pt x="376" y="-5" on="1"/>
        <pt x="302" y="-5" on="0"/>
        <pt x="180" y="57" on="0"/>
        <pt x="92" y="157" on="0"/>
        <pt x="44" y="287" on="0"/>
        <pt x="44" y="355" on="1"/>
        <pt x="44" y="426" on="0"/>
        <pt x="95" y="556" on="0"/>
        <pt x="184" y="656" on="0"/>
        <pt x="306" y="715" on="0"/>
        <pt x="377" y="715" on="1"/>
        <pt x="451" y="715" on="0"/>
        <pt x="574" y="652" on="0"/>
        <pt x="661" y="550" on="0"/>
        <pt x="709" y="421" on="0"/>
        <pt x="709" y="355" on="1"/>
        <pt x="709" y="280" on="0"/>
        <pt x="654" y="146" on="0"/>
        <pt x="606" y="95" on="1"/>
        <pt x="685" y="0" on="1"/>
        <pt x="632" y="0" on="1"/>
      </contour>
      <contour>
        <pt x="377" y="42" on="1"/>
        <pt x="427" y="42" on="0"/>
        <pt x="511" y="75" on="0"/>
        <pt x="545" y="104" on="1"/>
        <pt x="461" y="206" on="1"/>
        <pt x="514" y="206" on="1"/>
        <pt x="574" y="133" on="1"/>
        <pt x="614" y="178" on="0"/>
        <pt x="657" y="294" on="0"/>
        <pt x="657" y="355" on="1"/>
        <pt x="657" y="416" on="0"/>
        <pt x="615" y="529" on="0"/>
        <pt x="540" y="616" on="0"/>
        <pt x="438" y="668" on="0"/>
        <pt x="377" y="668" on="1"/>
        <pt x="313" y="668" on="0"/>
        <pt x="209" y="614" on="0"/>
        <pt x="135" y="525" on="0"/>
        <pt x="95" y="413" on="0"/>
        <pt x="95" y="355" on="1"/>
        <pt x="95" y="294" on="0"/>
        <pt x="136" y="181" on="0"/>
        <pt x="211" y="94" on="0"/>
        <pt x="315" y="42" on="0"/>
      </contour>
    </TTGlyph>
    <TTGlyph name="Q.sc" xMin="47" yMin="-4" xMax="601" yMax="548">
      <contour>
        <pt x="490" y="51" on="1"/>
        <pt x="456" y="25" on="0"/>
        <pt x="372" y="-4" on="0"/>
        <pt x="324" y="-4" on="1"/>
        <pt x="262" y="-4" on="0"/>
        <pt x="160" y="43" on="0"/>
        <pt x="87" y="120" on="0"/>
        <pt x="47" y="220" on="0"/>
        <pt x="47" y="273" on="1"/>
        <pt x="47" y="327" on="0"/>
        <pt x="89" y="426" on="0"/>
        <pt x="164" y="503" on="0"/>
        <pt x="265" y="548" on="0"/>
        <pt x="325" y="548" on="1"/>
        <pt x="387" y="548" on="0"/>
        <pt x="489" y="500" on="0"/>
        <pt x="561" y="422" on="0"/>
        <pt x="601" y="323" on="0"/>
        <pt x="601" y="272" on="1"/>
        <pt x="601" y="215" on="0"/>
        <pt x="556" y="113" on="0"/>
        <pt x="517" y="75" on="1"/>
        <pt x="584" y="0" on="1"/>
        <pt x="536" y="0" on="1"/>
      </contour>
      <contour>
        <pt x="325" y="39" on="1"/>
        <pt x="365" y="39" on="0"/>
        <pt x="433" y="63" on="0"/>
        <pt x="461" y="84" on="1"/>
        <pt x="390" y="164" on="1"/>
        <pt x="438" y="164" on="1"/>
        <pt x="487" y="108" on="1"/>
        <pt x="519" y="142" on="0"/>
        <pt x="554" y="228" on="0"/>
        <pt x="554" y="273" on="1"/>
        <pt x="554" y="318" on="0"/>
        <pt x="520" y="403" on="0"/>
        <pt x="458" y="467" on="0"/>
        <pt x="374" y="506" on="0"/>
        <pt x="324" y="506" on="1"/>
        <pt x="272" y="506" on="0"/>
        <pt x="187" y="465" on="0"/>
        <pt x="127" y="399" on="0"/>
        <pt x="94" y="315" on="0"/>
        <pt x="94" y="272" on="1"/>
        <pt x="94" y="227" on="0"/>
        <pt x="128" y="142" on="0"/>
        <pt x="189" y="78" on="0"/>
        <pt x="274" y="39" on="0"/>
      </contour>
    </TTGlyph>
    <TTGlyph name="R" xMin="93" yMin="0" xMax="605" yMax="710">
      <contour>
        <pt x="93" y="0" on="1"/>
        <pt x="93" y="710" on="1"/>
        <pt x="388" y="710" on="1"/>
        <pt x="433" y="710" on="0"/>
        <pt x="509" y="672" on="0"/>
        <pt x="564" y="609" on="0"/>
        <pt x="595" y="530" on="0"/>
        <pt x="595" y="490" on="1"/>
        <pt x="595" y="451" on="0"/>
        <pt x="571" y="378" on="0"/>
        <pt x="527" y="320" on="0"/>
        <pt x="465" y="282" on="0"/>
        <pt x="428" y="276" on="1"/>
        <pt x="605" y="0" on="1"/>
        <pt x="546" y="0" on="1"/>
        <pt x="374" y="268" on="1"/>
        <pt x="144" y="268" on="1"/>
        <pt x="144" y="0" on="1"/>
      </contour>
      <contour>
        <pt x="144" y="315" on="1"/>
        <pt x="393" y="315" on="1"/>
        <pt x="427" y="315" on="0"/>
        <pt x="483" y="345" on="0"/>
        <pt x="523" y="394" on="0"/>
        <pt x="544" y="457" on="0"/>
        <pt x="544" y="490" on="1"/>
        <pt x="544" y="524" on="0"/>
        <pt x="519" y="587" on="0"/>
        <pt x="476" y="635" on="0"/>
        <pt x="419" y="664" on="0"/>
        <pt x="386" y="664" on="1"/>
        <pt x="144" y="664" on="1"/>
      </contour>
    </TTGlyph>
    <TTGlyph name="R.sc" xMin="88" yMin="0" xMax="518" yMax="545">
      <contour>
        <pt x="88" y="0" on="1"/>
        <pt x="88" y="545" on="1"/>
        <pt x="336" y="545" on="1"/>
        <pt x="373" y="545" on="0"/>
        <pt x="437" y="515" on="0"/>
        <pt x="483" y="467" on="0"/>
        <pt x="509" y="405" on="0"/>
        <pt x="509" y="374" on="1"/>
        <pt x="509" y="344" on="0"/>
        <pt x="489" y="290" on="0"/>
        <pt x="453" y="246" on="0"/>
        <pt x="402" y="216" on="0"/>
        <pt x="372" y="211" on="1"/>
        <pt x="518" y="0" on="1"/>
        <pt x="464" y="0" on="1"/>
        <pt x="323" y="203" on="1"/>
        <pt x="134" y="203" on="1"/>
        <pt x="134" y="0" on="1"/>
      </contour>
      <contour>
        <pt x="134" y="245" on="1"/>
        <pt x="338" y="245" on="1"/>
        <pt x="366" y="245" on="0"/>
        <pt x="412" y="267" on="0"/>
        <pt x="444" y="303" on="0"/>
        <pt x="462" y="349" on="0"/>
        <pt x="462" y="374" on="1"/>
        <pt x="462" y="399" on="0"/>
        <pt x="442" y="446" on="0"/>
        <pt x="407" y="481" on="0"/>
        <pt x="360" y="502" on="0"/>
        <pt x="333" y="502" on="1"/>
        <pt x="134" y="502" on="1"/>
      </contour>
    </TTGlyph>
    <TTGlyph name="Racute" xMin="93" yMin="0" xMax="605" yMax="920">
      <contour>
        <pt x="316" y="819" on="1"/>
        <pt x="281" y="835" on="1"/>
        <pt x="342" y="920" on="1"/>
        <pt x="400" y="920" on="1"/>
      </contour>
      <contour>
        <pt x="93" y="0" on="1"/>
        <pt x="93" y="710" on="1"/>
        <pt x="388" y="710" on="1"/>
        <pt x="433" y="710" on="0"/>
        <pt x="509" y="672" on="0"/>
        <pt x="564" y="609" on="0"/>
        <pt x="595" y="530" on="0"/>
        <pt x="595" y="490" on="1"/>
        <pt x="595" y="451" on="0"/>
        <pt x="571" y="378" on="0"/>
        <pt x="527" y="320" on="0"/>
        <pt x="465" y="282" on="0"/>
        <pt x="428" y="276" on="1"/>
        <pt x="605" y="0" on="1"/>
        <pt x="546" y="0" on="1"/>
        <pt x="374" y="268" on="1"/>
        <pt x="144" y="268" on="1"/>
        <pt x="144" y="0" on="1"/>
      </contour>
      <contour>
        <pt x="144" y="315" on="1"/>
        <pt x="393" y="315" on="1"/>
        <pt x="427" y="315" on="0"/>
        <pt x="483" y="345" on="0"/>
        <pt x="523" y="394" on="0"/>
        <pt x="544" y="457" on="0"/>
        <pt x="544" y="490" on="1"/>
        <pt x="544" y="524" on="0"/>
        <pt x="519" y="587" on="0"/>
        <pt x="476" y="635" on="0"/>
        <pt x="419" y="664" on="0"/>
        <pt x="386" y="664" on="1"/>
        <pt x="144" y="664" on="1"/>
      </contour>
    </TTGlyph>
    <TTGlyph name="Rcaron" xMin="93" yMin="0" xMax="605" yMax="920">
      <contour>
        <pt x="232" y="920" on="1"/>
        <pt x="317" y="857" on="1"/>
        <pt x="402" y="920" on="1"/>
        <pt x="432" y="903" on="1"/>
        <pt x="335" y="822" on="1"/>
        <pt x="298" y="822" on="1"/>
        <pt x="202" y="903" on="1"/>
      </contour>
      <contour>
        <pt x="93" y="0" on="1"/>
        <pt x="93" y="710" on="1"/>
        <pt x="388" y="710" on="1"/>
        <pt x="433" y="710" on="0"/>
        <pt x="509" y="672" on="0"/>
        <pt x="564" y="609" on="0"/>
        <pt x="595" y="530" on="0"/>
        <pt x="595" y="490" on="1"/>
        <pt x="595" y="451" on="0"/>
        <pt x="571" y="378" on="0"/>
        <pt x="527" y="320" on="0"/>
        <pt x="465" y="282" on="0"/>
        <pt x="428" y="276" on="1"/>
        <pt x="605" y="0" on="1"/>
        <pt x="546" y="0" on="1"/>
        <pt x="374" y="268" on="1"/>
        <pt x="144" y="268" on="1"/>
        <pt x="144" y="0" on="1"/>
      </contour>
      <contour>
        <pt x="144" y="315" on="1"/>
        <pt x="393" y="315" on="1"/>
        <pt x="427" y="315" on="0"/>
        <pt x="483" y="345" on="0"/>
        <pt x="523" y="394" on="0"/>
        <pt x="544" y="457" on="0"/>
        <pt x="544" y="490" on="1"/>
        <pt x="544" y="524" on="0"/>
        <pt x="519" y="587" on="0"/>
        <pt x="476" y="635" on="0"/>
        <pt x="419" y="664" on="0"/>
        <pt x="386" y="664" on="1"/>
        <pt x="144" y="664" on="1"/>
      </contour>
    </TTGlyph>
    <TTGlyph name="Rcommaaccent" xMin="93" yMin="-187" xMax="605" yMax="710">
      <contour>
        <pt x="297" y="-187" on="1"/>
        <pt x="312" y="-119" on="1"/>
        <pt x="296" y="-119" on="1"/>
        <pt x="296" y="-49" on="1"/>
        <pt x="345" y="-49" on="1"/>
        <pt x="345" y="-119" on="1"/>
        <pt x="324" y="-187" on="1"/>
      </contour>
      <contour>
        <pt x="93" y="0" on="1"/>
        <pt x="93" y="710" on="1"/>
        <pt x="388" y="710" on="1"/>
        <pt x="433" y="710" on="0"/>
        <pt x="509" y="672" on="0"/>
        <pt x="564" y="609" on="0"/>
        <pt x="595" y="530" on="0"/>
        <pt x="595" y="490" on="1"/>
        <pt x="595" y="451" on="0"/>
        <pt x="571" y="378" on="0"/>
        <pt x="527" y="320" on="0"/>
        <pt x="465" y="282" on="0"/>
        <pt x="428" y="276" on="1"/>
        <pt x="605" y="0" on="1"/>
        <pt x="546" y="0" on="1"/>
        <pt x="374" y="268" on="1"/>
        <pt x="144" y="268" on="1"/>
        <pt x="144" y="0" on="1"/>
      </contour>
      <contour>
        <pt x="144" y="315" on="1"/>
        <pt x="393" y="315" on="1"/>
        <pt x="427" y="315" on="0"/>
        <pt x="483" y="345" on="0"/>
        <pt x="523" y="394" on="0"/>
        <pt x="544" y="457" on="0"/>
        <pt x="544" y="490" on="1"/>
        <pt x="544" y="524" on="0"/>
        <pt x="519" y="587" on="0"/>
        <pt x="476" y="635" on="0"/>
        <pt x="419" y="664" on="0"/>
        <pt x="386" y="664" on="1"/>
        <pt x="144" y="664" on="1"/>
      </contour>
    </TTGlyph>
    <TTGlyph name="Rdblgrave" xMin="93" yMin="0" xMax="605" yMax="918">
      <contour>
        <pt x="296" y="918" on="1"/>
        <pt x="348" y="918" on="1"/>
        <pt x="408" y="833" on="1"/>
        <pt x="379" y="817" on="1"/>
      </contour>
      <contour>
        <pt x="180" y="918" on="1"/>
        <pt x="233" y="918" on="1"/>
        <pt x="292" y="833" on="1"/>
        <pt x="263" y="817" on="1"/>
      </contour>
      <contour>
        <pt x="93" y="0" on="1"/>
        <pt x="93" y="710" on="1"/>
        <pt x="388" y="710" on="1"/>
        <pt x="433" y="710" on="0"/>
        <pt x="509" y="672" on="0"/>
        <pt x="564" y="609" on="0"/>
        <pt x="595" y="530" on="0"/>
        <pt x="595" y="490" on="1"/>
        <pt x="595" y="451" on="0"/>
        <pt x="571" y="378" on="0"/>
        <pt x="527" y="320" on="0"/>
        <pt x="465" y="282" on="0"/>
        <pt x="428" y="276" on="1"/>
        <pt x="605" y="0" on="1"/>
        <pt x="546" y="0" on="1"/>
        <pt x="374" y="268" on="1"/>
        <pt x="144" y="268" on="1"/>
        <pt x="144" y="0" on="1"/>
      </contour>
      <contour>
        <pt x="144" y="315" on="1"/>
        <pt x="393" y="315" on="1"/>
        <pt x="427" y="315" on="0"/>
        <pt x="483" y="345" on="0"/>
        <pt x="523" y="394" on="0"/>
        <pt x="544" y="457" on="0"/>
        <pt x="544" y="490" on="1"/>
        <pt x="544" y="524" on="0"/>
        <pt x="519" y="587" on="0"/>
        <pt x="476" y="635" on="0"/>
        <pt x="419" y="664" on="0"/>
        <pt x="386" y="664" on="1"/>
        <pt x="144" y="664" on="1"/>
      </contour>
    </TTGlyph>
    <TTGlyph name="Rdotbelow" xMin="93" yMin="-151" xMax="605" yMax="710">
      <contour>
        <pt x="93" y="0" on="1"/>
        <pt x="93" y="710" on="1"/>
        <pt x="388" y="710" on="1"/>
        <pt x="433" y="710" on="0"/>
        <pt x="509" y="672" on="0"/>
        <pt x="564" y="609" on="0"/>
        <pt x="595" y="530" on="0"/>
        <pt x="595" y="490" on="1"/>
        <pt x="595" y="451" on="0"/>
        <pt x="571" y="378" on="0"/>
        <pt x="527" y="320" on="0"/>
        <pt x="465" y="282" on="0"/>
        <pt x="428" y="276" on="1"/>
        <pt x="605" y="0" on="1"/>
        <pt x="546" y="0" on="1"/>
        <pt x="374" y="268" on="1"/>
        <pt x="144" y="268" on="1"/>
        <pt x="144" y="0" on="1"/>
      </contour>
      <contour>
        <pt x="144" y="315" on="1"/>
        <pt x="393" y="315" on="1"/>
        <pt x="427" y="315" on="0"/>
        <pt x="483" y="345" on="0"/>
        <pt x="523" y="394" on="0"/>
        <pt x="544" y="457" on="0"/>
        <pt x="544" y="490" on="1"/>
        <pt x="544" y="524" on="0"/>
        <pt x="519" y="587" on="0"/>
        <pt x="476" y="635" on="0"/>
        <pt x="419" y="664" on="0"/>
        <pt x="386" y="664" on="1"/>
        <pt x="144" y="664" on="1"/>
      </contour>
      <contour>
        <pt x="303" y="-151" on="1"/>
        <pt x="303" y="-61" on="1"/>
        <pt x="349" y="-61" on="1"/>
        <pt x="349" y="-151" on="1"/>
      </contour>
    </TTGlyph>
    <TTGlyph name="Rinvertedbreve" xMin="93" yMin="0" xMax="605" yMax="917">
      <contour>
        <pt x="322" y="889" on="1"/>
        <pt x="300" y="889" on="0"/>
        <pt x="266" y="850" on="0"/>
        <pt x="266" y="825" on="1"/>
        <pt x="233" y="825" on="1"/>
        <pt x="233" y="844" on="0"/>
        <pt x="247" y="878" on="0"/>
        <pt x="271" y="903" on="0"/>
        <pt x="304" y="917" on="0"/>
        <pt x="322" y="917" on="1"/>
        <pt x="340" y="917" on="0"/>
        <pt x="372" y="903" on="0"/>
        <pt x="397" y="878" on="0"/>
        <pt x="411" y="844" on="0"/>
        <pt x="411" y="825" on="1"/>
        <pt x="378" y="825" on="1"/>
        <pt x="375" y="852" on="0"/>
        <pt x="342" y="889" on="0"/>
      </contour>
      <contour>
        <pt x="93" y="0" on="1"/>
        <pt x="93" y="710" on="1"/>
        <pt x="388" y="710" on="1"/>
        <pt x="433" y="710" on="0"/>
        <pt x="509" y="672" on="0"/>
        <pt x="564" y="609" on="0"/>
        <pt x="595" y="530" on="0"/>
        <pt x="595" y="490" on="1"/>
        <pt x="595" y="451" on="0"/>
        <pt x="571" y="378" on="0"/>
        <pt x="527" y="320" on="0"/>
        <pt x="465" y="282" on="0"/>
        <pt x="428" y="276" on="1"/>
        <pt x="605" y="0" on="1"/>
        <pt x="546" y="0" on="1"/>
        <pt x="374" y="268" on="1"/>
        <pt x="144" y="268" on="1"/>
        <pt x="144" y="0" on="1"/>
      </contour>
      <contour>
        <pt x="144" y="315" on="1"/>
        <pt x="393" y="315" on="1"/>
        <pt x="427" y="315" on="0"/>
        <pt x="483" y="345" on="0"/>
        <pt x="523" y="394" on="0"/>
        <pt x="544" y="457" on="0"/>
        <pt x="544" y="490" on="1"/>
        <pt x="544" y="524" on="0"/>
        <pt x="519" y="587" on="0"/>
        <pt x="476" y="635" on="0"/>
        <pt x="419" y="664" on="0"/>
        <pt x="386" y="664" on="1"/>
        <pt x="144" y="664" on="1"/>
      </contour>
    </TTGlyph>
    <TTGlyph name="S" xMin="35" yMin="-6" xMax="570" yMax="715">
      <contour>
        <pt x="506" y="592" on="1"/>
        <pt x="437" y="669" on="0"/>
        <pt x="311" y="669" on="1"/>
        <pt x="207" y="669" on="0"/>
        <pt x="112" y="590" on="0"/>
        <pt x="112" y="523" on="1"/>
        <pt x="112" y="489" on="0"/>
        <pt x="136" y="444" on="0"/>
        <pt x="187" y="412" on="0"/>
        <pt x="265" y="390" on="0"/>
        <pt x="320" y="378" on="1"/>
        <pt x="377" y="366" on="0"/>
        <pt x="470" y="337" on="0"/>
        <pt x="535" y="293" on="0"/>
        <pt x="570" y="229" on="0"/>
        <pt x="570" y="182" on="1"/>
        <pt x="570" y="135" on="0"/>
        <pt x="533" y="65" on="0"/>
        <pt x="466" y="18" on="0"/>
        <pt x="373" y="-6" on="0"/>
        <pt x="316" y="-6" on="1"/>
        <pt x="150" y="-6" on="0"/>
        <pt x="35" y="100" on="1"/>
        <pt x="62" y="141" on="1"/>
        <pt x="107" y="94" on="0"/>
        <pt x="237" y="39" on="0"/>
        <pt x="318" y="39" on="1"/>
        <pt x="411" y="39" on="0"/>
        <pt x="516" y="107" on="0"/>
        <pt x="516" y="176" on="1"/>
        <pt x="516" y="211" on="0"/>
        <pt x="488" y="260" on="0"/>
        <pt x="433" y="296" on="0"/>
        <pt x="349" y="322" on="0"/>
        <pt x="293" y="334" on="1"/>
        <pt x="236" y="346" on="0"/>
        <pt x="149" y="373" on="0"/>
        <pt x="90" y="414" on="0"/>
        <pt x="60" y="472" on="0"/>
        <pt x="60" y="516" on="1"/>
        <pt x="60" y="564" on="0"/>
        <pt x="97" y="638" on="0"/>
        <pt x="163" y="689" on="0"/>
        <pt x="255" y="715" on="0"/>
        <pt x="311" y="715" on="1"/>
        <pt x="380" y="715" on="0"/>
        <pt x="488" y="674" on="0"/>
        <pt x="532" y="632" on="1"/>
      </contour>
    </TTGlyph>
    <TTGlyph name="S.sc" xMin="40" yMin="-5" xMax="484" yMax="548">
      <contour>
        <pt x="431" y="448" on="1"/>
        <pt x="372" y="507" on="0"/>
        <pt x="270" y="507" on="1"/>
        <pt x="185" y="507" on="0"/>
        <pt x="109" y="450" on="0"/>
        <pt x="109" y="400" on="1"/>
        <pt x="109" y="375" on="0"/>
        <pt x="129" y="342" on="0"/>
        <pt x="171" y="318" on="0"/>
        <pt x="235" y="301" on="0"/>
        <pt x="279" y="292" on="1"/>
        <pt x="326" y="283" on="0"/>
        <pt x="402" y="261" on="0"/>
        <pt x="455" y="227" on="0"/>
        <pt x="484" y="178" on="0"/>
        <pt x="484" y="141" on="1"/>
        <pt x="484" y="104" on="0"/>
        <pt x="454" y="49" on="0"/>
        <pt x="398" y="13" on="0"/>
        <pt x="321" y="-5" on="0"/>
        <pt x="274" y="-5" on="1"/>
        <pt x="138" y="-5" on="0"/>
        <pt x="40" y="75" on="1"/>
        <pt x="65" y="113" on="1"/>
        <pt x="102" y="78" on="0"/>
        <pt x="208" y="36" on="0"/>
        <pt x="275" y="36" on="1"/>
        <pt x="348" y="36" on="0"/>
        <pt x="435" y="85" on="0"/>
        <pt x="435" y="136" on="1"/>
        <pt x="435" y="162" on="0"/>
        <pt x="412" y="198" on="0"/>
        <pt x="367" y="225" on="0"/>
        <pt x="298" y="244" on="0"/>
        <pt x="252" y="253" on="1"/>
        <pt x="205" y="262" on="0"/>
        <pt x="134" y="284" on="0"/>
        <pt x="86" y="316" on="0"/>
        <pt x="61" y="362" on="0"/>
        <pt x="61" y="396" on="1"/>
        <pt x="61" y="433" on="0"/>
        <pt x="92" y="490" on="0"/>
        <pt x="147" y="528" on="0"/>
        <pt x="224" y="548" on="0"/>
        <pt x="270" y="548" on="1"/>
        <pt x="382" y="548" on="0"/>
        <pt x="453" y="485" on="1"/>
      </contour>
    </TTGlyph>
    <TTGlyph name="Sacute" xMin="35" yMin="-6" xMax="570" yMax="936">
      <contour>
        <pt x="311" y="835" on="1"/>
        <pt x="276" y="851" on="1"/>
        <pt x="337" y="936" on="1"/>
        <pt x="395" y="936" on="1"/>
      </contour>
      <contour>
        <pt x="506" y="592" on="1"/>
        <pt x="437" y="669" on="0"/>
        <pt x="311" y="669" on="1"/>
        <pt x="207" y="669" on="0"/>
        <pt x="112" y="590" on="0"/>
        <pt x="112" y="523" on="1"/>
        <pt x="112" y="489" on="0"/>
        <pt x="136" y="444" on="0"/>
        <pt x="187" y="412" on="0"/>
        <pt x="265" y="390" on="0"/>
        <pt x="320" y="378" on="1"/>
        <pt x="377" y="366" on="0"/>
        <pt x="470" y="337" on="0"/>
        <pt x="535" y="293" on="0"/>
        <pt x="570" y="229" on="0"/>
        <pt x="570" y="182" on="1"/>
        <pt x="570" y="135" on="0"/>
        <pt x="533" y="65" on="0"/>
        <pt x="466" y="18" on="0"/>
        <pt x="373" y="-6" on="0"/>
        <pt x="316" y="-6" on="1"/>
        <pt x="150" y="-6" on="0"/>
        <pt x="35" y="100" on="1"/>
        <pt x="62" y="141" on="1"/>
        <pt x="107" y="94" on="0"/>
        <pt x="237" y="39" on="0"/>
        <pt x="318" y="39" on="1"/>
        <pt x="411" y="39" on="0"/>
        <pt x="516" y="107" on="0"/>
        <pt x="516" y="176" on="1"/>
        <pt x="516" y="211" on="0"/>
        <pt x="488" y="260" on="0"/>
        <pt x="433" y="296" on="0"/>
        <pt x="349" y="322" on="0"/>
        <pt x="293" y="334" on="1"/>
        <pt x="236" y="346" on="0"/>
        <pt x="149" y="373" on="0"/>
        <pt x="90" y="414" on="0"/>
        <pt x="60" y="472" on="0"/>
        <pt x="60" y="516" on="1"/>
        <pt x="60" y="564" on="0"/>
        <pt x="97" y="638" on="0"/>
        <pt x="163" y="689" on="0"/>
        <pt x="255" y="715" on="0"/>
        <pt x="311" y="715" on="1"/>
        <pt x="380" y="715" on="0"/>
        <pt x="488" y="674" on="0"/>
        <pt x="532" y="632" on="1"/>
      </contour>
    </TTGlyph>
    <TTGlyph name="Scaron" xMin="35" yMin="-6" xMax="570" yMax="936">
      <contour>
        <pt x="227" y="936" on="1"/>
        <pt x="312" y="873" on="1"/>
        <pt x="397" y="936" on="1"/>
        <pt x="427" y="919" on="1"/>
        <pt x="330" y="838" on="1"/>
        <pt x="293" y="838" on="1"/>
        <pt x="197" y="919" on="1"/>
      </contour>
      <contour>
        <pt x="506" y="592" on="1"/>
        <pt x="437" y="669" on="0"/>
        <pt x="311" y="669" on="1"/>
        <pt x="207" y="669" on="0"/>
        <pt x="112" y="590" on="0"/>
        <pt x="112" y="523" on="1"/>
        <pt x="112" y="489" on="0"/>
        <pt x="136" y="444" on="0"/>
        <pt x="187" y="412" on="0"/>
        <pt x="265" y="390" on="0"/>
        <pt x="320" y="378" on="1"/>
        <pt x="377" y="366" on="0"/>
        <pt x="470" y="337" on="0"/>
        <pt x="535" y="293" on="0"/>
        <pt x="570" y="229" on="0"/>
        <pt x="570" y="182" on="1"/>
        <pt x="570" y="135" on="0"/>
        <pt x="533" y="65" on="0"/>
        <pt x="466" y="18" on="0"/>
        <pt x="373" y="-6" on="0"/>
        <pt x="316" y="-6" on="1"/>
        <pt x="150" y="-6" on="0"/>
        <pt x="35" y="100" on="1"/>
        <pt x="62" y="141" on="1"/>
        <pt x="107" y="94" on="0"/>
        <pt x="237" y="39" on="0"/>
        <pt x="318" y="39" on="1"/>
        <pt x="411" y="39" on="0"/>
        <pt x="516" y="107" on="0"/>
        <pt x="516" y="176" on="1"/>
        <pt x="516" y="211" on="0"/>
        <pt x="488" y="260" on="0"/>
        <pt x="433" y="296" on="0"/>
        <pt x="349" y="322" on="0"/>
        <pt x="293" y="334" on="1"/>
        <pt x="236" y="346" on="0"/>
        <pt x="149" y="373" on="0"/>
        <pt x="90" y="414" on="0"/>
        <pt x="60" y="472" on="0"/>
        <pt x="60" y="516" on="1"/>
        <pt x="60" y="564" on="0"/>
        <pt x="97" y="638" on="0"/>
        <pt x="163" y="689" on="0"/>
        <pt x="255" y="715" on="0"/>
        <pt x="311" y="715" on="1"/>
        <pt x="380" y="715" on="0"/>
        <pt x="488" y="674" on="0"/>
        <pt x="532" y="632" on="1"/>
      </contour>
    </TTGlyph>
    <TTGlyph name="Schwa" xMin="30" yMin="-8" xMax="693" yMax="715">
      <contour>
        <pt x="365" y="-8" on="1"/>
        <pt x="294" y="-8" on="0"/>
        <pt x="172" y="48" on="0"/>
        <pt x="82" y="146" on="0"/>
        <pt x="30" y="276" on="0"/>
        <pt x="30" y="351" on="1"/>
        <pt x="30" y="356" on="0"/>
        <pt x="31" y="373" on="0"/>
        <pt x="32" y="375" on="1"/>
        <pt x="637" y="375" on="1"/>
        <pt x="632" y="438" on="0"/>
        <pt x="584" y="545" on="0"/>
        <pt x="509" y="623" on="0"/>
        <pt x="412" y="667" on="0"/>
        <pt x="358" y="667" on="1"/>
        <pt x="320" y="667" on="0"/>
        <pt x="249" y="646" on="0"/>
        <pt x="187" y="607" on="0"/>
        <pt x="141" y="554" on="0"/>
        <pt x="129" y="521" on="1"/>
        <pt x="80" y="544" on="1"/>
        <pt x="96" y="581" on="0"/>
        <pt x="155" y="644" on="0"/>
        <pt x="230" y="689" on="0"/>
        <pt x="318" y="715" on="0"/>
        <pt x="363" y="715" on="1"/>
        <pt x="431" y="715" on="0"/>
        <pt x="551" y="657" on="0"/>
        <pt x="641" y="558" on="0"/>
        <pt x="693" y="425" on="0"/>
        <pt x="693" y="349" on="1"/>
        <pt x="693" y="274" on="0"/>
        <pt x="642" y="144" on="0"/>
        <pt x="553" y="48" on="0"/>
        <pt x="434" y="-8" on="0"/>
      </contour>
      <contour>
        <pt x="365" y="40" on="1"/>
        <pt x="420" y="40" on="0"/>
        <pt x="517" y="84" on="0"/>
        <pt x="590" y="161" on="0"/>
        <pt x="635" y="267" on="0"/>
        <pt x="638" y="329" on="1"/>
        <pt x="86" y="329" on="1"/>
        <pt x="90" y="267" on="0"/>
        <pt x="136" y="161" on="0"/>
        <pt x="211" y="84" on="0"/>
        <pt x="309" y="40" on="0"/>
      </contour>
    </TTGlyph>
    <TTGlyph name="Scircumflex" xMin="35" yMin="-6" xMax="570" yMax="936">
      <contour>
        <pt x="197" y="855" on="1"/>
        <pt x="293" y="936" on="1"/>
        <pt x="330" y="936" on="1"/>
        <pt x="427" y="855" on="1"/>
        <pt x="397" y="838" on="1"/>
        <pt x="312" y="901" on="1"/>
        <pt x="227" y="838" on="1"/>
      </contour>
      <contour>
        <pt x="506" y="592" on="1"/>
        <pt x="437" y="669" on="0"/>
        <pt x="311" y="669" on="1"/>
        <pt x="207" y="669" on="0"/>
        <pt x="112" y="590" on="0"/>
        <pt x="112" y="523" on="1"/>
        <pt x="112" y="489" on="0"/>
        <pt x="136" y="444" on="0"/>
        <pt x="187" y="412" on="0"/>
        <pt x="265" y="390" on="0"/>
        <pt x="320" y="378" on="1"/>
        <pt x="377" y="366" on="0"/>
        <pt x="470" y="337" on="0"/>
        <pt x="535" y="293" on="0"/>
        <pt x="570" y="229" on="0"/>
        <pt x="570" y="182" on="1"/>
        <pt x="570" y="135" on="0"/>
        <pt x="533" y="65" on="0"/>
        <pt x="466" y="18" on="0"/>
        <pt x="373" y="-6" on="0"/>
        <pt x="316" y="-6" on="1"/>
        <pt x="150" y="-6" on="0"/>
        <pt x="35" y="100" on="1"/>
        <pt x="62" y="141" on="1"/>
        <pt x="107" y="94" on="0"/>
        <pt x="237" y="39" on="0"/>
        <pt x="318" y="39" on="1"/>
        <pt x="411" y="39" on="0"/>
        <pt x="516" y="107" on="0"/>
        <pt x="516" y="176" on="1"/>
        <pt x="516" y="211" on="0"/>
        <pt x="488" y="260" on="0"/>
        <pt x="433" y="296" on="0"/>
        <pt x="349" y="322" on="0"/>
        <pt x="293" y="334" on="1"/>
        <pt x="236" y="346" on="0"/>
        <pt x="149" y="373" on="0"/>
        <pt x="90" y="414" on="0"/>
        <pt x="60" y="472" on="0"/>
        <pt x="60" y="516" on="1"/>
        <pt x="60" y="564" on="0"/>
        <pt x="97" y="638" on="0"/>
        <pt x="163" y="689" on="0"/>
        <pt x="255" y="715" on="0"/>
        <pt x="311" y="715" on="1"/>
        <pt x="380" y="715" on="0"/>
        <pt x="488" y="674" on="0"/>
        <pt x="532" y="632" on="1"/>
      </contour>
    </TTGlyph>
    <TTGlyph name="Sdotbelow" xMin="35" yMin="-151" xMax="570" yMax="715">
      <contour>
        <pt x="506" y="592" on="1"/>
        <pt x="437" y="669" on="0"/>
        <pt x="311" y="669" on="1"/>
        <pt x="207" y="669" on="0"/>
        <pt x="112" y="590" on="0"/>
        <pt x="112" y="523" on="1"/>
        <pt x="112" y="489" on="0"/>
        <pt x="136" y="444" on="0"/>
        <pt x="187" y="412" on="0"/>
        <pt x="265" y="390" on="0"/>
        <pt x="320" y="378" on="1"/>
        <pt x="377" y="366" on="0"/>
        <pt x="470" y="337" on="0"/>
        <pt x="535" y="293" on="0"/>
        <pt x="570" y="229" on="0"/>
        <pt x="570" y="182" on="1"/>
        <pt x="570" y="135" on="0"/>
        <pt x="533" y="65" on="0"/>
        <pt x="466" y="18" on="0"/>
        <pt x="373" y="-6" on="0"/>
        <pt x="316" y="-6" on="1"/>
        <pt x="150" y="-6" on="0"/>
        <pt x="35" y="100" on="1"/>
        <pt x="62" y="141" on="1"/>
        <pt x="107" y="94" on="0"/>
        <pt x="237" y="39" on="0"/>
        <pt x="318" y="39" on="1"/>
        <pt x="411" y="39" on="0"/>
        <pt x="516" y="107" on="0"/>
        <pt x="516" y="176" on="1"/>
        <pt x="516" y="211" on="0"/>
        <pt x="488" y="260" on="0"/>
        <pt x="433" y="296" on="0"/>
        <pt x="349" y="322" on="0"/>
        <pt x="293" y="334" on="1"/>
        <pt x="236" y="346" on="0"/>
        <pt x="149" y="373" on="0"/>
        <pt x="90" y="414" on="0"/>
        <pt x="60" y="472" on="0"/>
        <pt x="60" y="516" on="1"/>
        <pt x="60" y="564" on="0"/>
        <pt x="97" y="638" on="0"/>
        <pt x="163" y="689" on="0"/>
        <pt x="255" y="715" on="0"/>
        <pt x="311" y="715" on="1"/>
        <pt x="380" y="715" on="0"/>
        <pt x="488" y="674" on="0"/>
        <pt x="532" y="632" on="1"/>
      </contour>
      <contour>
        <pt x="286" y="-151" on="1"/>
        <pt x="286" y="-61" on="1"/>
        <pt x="332" y="-61" on="1"/>
        <pt x="332" y="-151" on="1"/>
      </contour>
    </TTGlyph>
    <TTGlyph name="T" xMin="18" yMin="0" xMax="589" yMax="710">
      <contour>
        <pt x="589" y="664" on="1"/>
        <pt x="329" y="664" on="1"/>
        <pt x="329" y="0" on="1"/>
        <pt x="278" y="0" on="1"/>
        <pt x="278" y="664" on="1"/>
        <pt x="18" y="664" on="1"/>
        <pt x="18" y="710" on="1"/>
        <pt x="589" y="710" on="1"/>
      </contour>
    </TTGlyph>
    <TTGlyph name="T.sc" xMin="24" yMin="0" xMax="501" yMax="545">
      <contour>
        <pt x="501" y="502" on="1"/>
        <pt x="286" y="502" on="1"/>
        <pt x="286" y="0" on="1"/>
        <pt x="240" y="0" on="1"/>
        <pt x="240" y="502" on="1"/>
        <pt x="24" y="502" on="1"/>
        <pt x="24" y="545" on="1"/>
        <pt x="501" y="545" on="1"/>
      </contour>
    </TTGlyph>
    <TTGlyph name="Tbar" xMin="35" yMin="0" xMax="606" yMax="710">
      <contour>
        <pt x="606" y="664" on="1"/>
        <pt x="346" y="664" on="1"/>
        <pt x="346" y="412" on="1"/>
        <pt x="574" y="412" on="1"/>
        <pt x="574" y="380" on="1"/>
        <pt x="346" y="380" on="1"/>
        <pt x="346" y="0" on="1"/>
        <pt x="295" y="0" on="1"/>
        <pt x="295" y="380" on="1"/>
        <pt x="67" y="380" on="1"/>
        <pt x="67" y="412" on="1"/>
        <pt x="295" y="412" on="1"/>
        <pt x="295" y="664" on="1"/>
        <pt x="35" y="664" on="1"/>
        <pt x="35" y="710" on="1"/>
        <pt x="606" y="710" on="1"/>
      </contour>
    </TTGlyph>
    <TTGlyph name="Tcaron" xMin="18" yMin="0" xMax="589" yMax="917">
      <contour>
        <pt x="220" y="917" on="1"/>
        <pt x="305" y="854" on="1"/>
        <pt x="390" y="917" on="1"/>
        <pt x="420" y="900" on="1"/>
        <pt x="323" y="819" on="1"/>
        <pt x="286" y="819" on="1"/>
        <pt x="190" y="900" on="1"/>
      </contour>
      <contour>
        <pt x="589" y="664" on="1"/>
        <pt x="329" y="664" on="1"/>
        <pt x="329" y="0" on="1"/>
        <pt x="278" y="0" on="1"/>
        <pt x="278" y="664" on="1"/>
        <pt x="18" y="664" on="1"/>
        <pt x="18" y="710" on="1"/>
        <pt x="589" y="710" on="1"/>
      </contour>
    </TTGlyph>
    <TTGlyph name="Tdotbelow" xMin="18" yMin="-151" xMax="589" yMax="710">
      <contour>
        <pt x="279" y="-151" on="1"/>
        <pt x="279" y="-61" on="1"/>
        <pt x="325" y="-61" on="1"/>
        <pt x="325" y="-151" on="1"/>
      </contour>
      <contour>
        <pt x="589" y="664" on="1"/>
        <pt x="329" y="664" on="1"/>
        <pt x="329" y="0" on="1"/>
        <pt x="278" y="0" on="1"/>
        <pt x="278" y="664" on="1"/>
        <pt x="18" y="664" on="1"/>
        <pt x="18" y="710" on="1"/>
        <pt x="589" y="710" on="1"/>
      </contour>
    </TTGlyph>
    <TTGlyph name="Thorn" xMin="93" yMin="0" xMax="572" yMax="710">
      <contour>
        <pt x="366" y="566" on="1"/>
        <pt x="411" y="566" on="0"/>
        <pt x="487" y="528" on="0"/>
        <pt x="541" y="465" on="0"/>
        <pt x="572" y="386" on="0"/>
        <pt x="572" y="345" on="1"/>
        <pt x="572" y="302" on="0"/>
        <pt x="543" y="222" on="0"/>
        <pt x="491" y="161" on="0"/>
        <pt x="417" y="124" on="0"/>
        <pt x="372" y="124" on="1"/>
        <pt x="144" y="124" on="1"/>
        <pt x="144" y="0" on="1"/>
        <pt x="93" y="0" on="1"/>
        <pt x="93" y="710" on="1"/>
        <pt x="144" y="710" on="1"/>
        <pt x="144" y="566" on="1"/>
      </contour>
      <contour>
        <pt x="371" y="171" on="1"/>
        <pt x="406" y="171" on="0"/>
        <pt x="462" y="201" on="0"/>
        <pt x="501" y="250" on="0"/>
        <pt x="522" y="312" on="0"/>
        <pt x="522" y="345" on="1"/>
        <pt x="522" y="379" on="0"/>
        <pt x="497" y="442" on="0"/>
        <pt x="454" y="490" on="0"/>
        <pt x="397" y="519" on="0"/>
        <pt x="364" y="519" on="1"/>
        <pt x="144" y="519" on="1"/>
        <pt x="144" y="171" on="1"/>
      </contour>
    </TTGlyph>
    <TTGlyph name="U" xMin="82" yMin="-5" xMax="674" yMax="710">
      <contour>
        <pt x="378" y="42" on="1"/>
        <pt x="450" y="42" on="0"/>
        <pt x="545" y="96" on="0"/>
        <pt x="600" y="184" on="0"/>
        <pt x="623" y="296" on="0"/>
        <pt x="623" y="353" on="1"/>
        <pt x="623" y="710" on="1"/>
        <pt x="674" y="710" on="1"/>
        <pt x="674" y="353" on="1"/>
        <pt x="674" y="282" on="0"/>
        <pt x="643" y="152" on="0"/>
        <pt x="573" y="53" on="0"/>
        <pt x="461" y="-5" on="0"/>
        <pt x="379" y="-5" on="1"/>
        <pt x="294" y="-5" on="0"/>
        <pt x="180" y="56" on="0"/>
        <pt x="111" y="157" on="0"/>
        <pt x="82" y="285" on="0"/>
        <pt x="82" y="353" on="1"/>
        <pt x="82" y="710" on="1"/>
        <pt x="133" y="710" on="1"/>
        <pt x="133" y="353" on="1"/>
        <pt x="133" y="294" on="0"/>
        <pt x="156" y="182" on="0"/>
        <pt x="213" y="95" on="0"/>
        <pt x="307" y="42" on="0"/>
      </contour>
    </TTGlyph>
    <TTGlyph name="U.sc" xMin="79" yMin="-4" xMax="571" yMax="545">
      <contour>
        <pt x="324" y="39" on="1"/>
        <pt x="383" y="39" on="0"/>
        <pt x="460" y="79" on="0"/>
        <pt x="506" y="145" on="0"/>
        <pt x="525" y="228" on="0"/>
        <pt x="525" y="271" on="1"/>
        <pt x="525" y="545" on="1"/>
        <pt x="571" y="545" on="1"/>
        <pt x="571" y="271" on="1"/>
        <pt x="571" y="216" on="0"/>
        <pt x="545" y="116" on="0"/>
        <pt x="487" y="41" on="0"/>
        <pt x="393" y="-4" on="0"/>
        <pt x="325" y="-4" on="1"/>
        <pt x="255" y="-4" on="0"/>
        <pt x="161" y="43" on="0"/>
        <pt x="104" y="120" on="0"/>
        <pt x="79" y="219" on="0"/>
        <pt x="79" y="271" on="1"/>
        <pt x="79" y="545" on="1"/>
        <pt x="125" y="545" on="1"/>
        <pt x="125" y="271" on="1"/>
        <pt x="125" y="227" on="0"/>
        <pt x="144" y="143" on="0"/>
        <pt x="190" y="78" on="0"/>
        <pt x="267" y="39" on="0"/>
      </contour>
    </TTGlyph>
    <TTGlyph name="Uacute" xMin="82" yMin="-5" xMax="674" yMax="917">
      <contour>
        <pt x="378" y="816" on="1"/>
        <pt x="343" y="832" on="1"/>
        <pt x="404" y="917" on="1"/>
        <pt x="462" y="917" on="1"/>
      </contour>
      <contour>
        <pt x="378" y="42" on="1"/>
        <pt x="450" y="42" on="0"/>
        <pt x="545" y="96" on="0"/>
        <pt x="600" y="184" on="0"/>
        <pt x="623" y="296" on="0"/>
        <pt x="623" y="353" on="1"/>
        <pt x="623" y="710" on="1"/>
        <pt x="674" y="710" on="1"/>
        <pt x="674" y="353" on="1"/>
        <pt x="674" y="282" on="0"/>
        <pt x="643" y="152" on="0"/>
        <pt x="573" y="53" on="0"/>
        <pt x="461" y="-5" on="0"/>
        <pt x="379" y="-5" on="1"/>
        <pt x="294" y="-5" on="0"/>
        <pt x="180" y="56" on="0"/>
        <pt x="111" y="157" on="0"/>
        <pt x="82" y="285" on="0"/>
        <pt x="82" y="353" on="1"/>
        <pt x="82" y="710" on="1"/>
        <pt x="133" y="710" on="1"/>
        <pt x="133" y="353" on="1"/>
        <pt x="133" y="294" on="0"/>
        <pt x="156" y="182" on="0"/>
        <pt x="213" y="95" on="0"/>
        <pt x="307" y="42" on="0"/>
      </contour>
    </TTGlyph>
    <TTGlyph name="Ubreve" xMin="82" yMin="-5" xMax="674" yMax="917">
      <contour>
        <pt x="378" y="42" on="1"/>
        <pt x="450" y="42" on="0"/>
        <pt x="545" y="96" on="0"/>
        <pt x="600" y="184" on="0"/>
        <pt x="623" y="296" on="0"/>
        <pt x="623" y="353" on="1"/>
        <pt x="623" y="710" on="1"/>
        <pt x="674" y="710" on="1"/>
        <pt x="674" y="353" on="1"/>
        <pt x="674" y="282" on="0"/>
        <pt x="643" y="152" on="0"/>
        <pt x="573" y="53" on="0"/>
        <pt x="461" y="-5" on="0"/>
        <pt x="379" y="-5" on="1"/>
        <pt x="294" y="-5" on="0"/>
        <pt x="180" y="56" on="0"/>
        <pt x="111" y="157" on="0"/>
        <pt x="82" y="285" on="0"/>
        <pt x="82" y="353" on="1"/>
        <pt x="82" y="710" on="1"/>
        <pt x="133" y="710" on="1"/>
        <pt x="133" y="353" on="1"/>
        <pt x="133" y="294" on="0"/>
        <pt x="156" y="182" on="0"/>
        <pt x="213" y="95" on="0"/>
        <pt x="307" y="42" on="0"/>
      </contour>
      <contour>
        <pt x="379" y="853" on="1"/>
        <pt x="399" y="853" on="0"/>
        <pt x="432" y="890" on="0"/>
        <pt x="435" y="917" on="1"/>
        <pt x="468" y="917" on="1"/>
        <pt x="468" y="898" on="0"/>
        <pt x="454" y="864" on="0"/>
        <pt x="429" y="839" on="0"/>
        <pt x="397" y="825" on="0"/>
        <pt x="379" y="825" on="1"/>
        <pt x="361" y="825" on="0"/>
        <pt x="328" y="839" on="0"/>
        <pt x="304" y="864" on="0"/>
        <pt x="290" y="898" on="0"/>
        <pt x="290" y="917" on="1"/>
        <pt x="323" y="917" on="1"/>
        <pt x="323" y="892" on="0"/>
        <pt x="357" y="853" on="0"/>
      </contour>
    </TTGlyph>
    <TTGlyph name="Ucircumflex" xMin="82" yMin="-5" xMax="674" yMax="917">
      <contour>
        <pt x="264" y="836" on="1"/>
        <pt x="360" y="917" on="1"/>
        <pt x="397" y="917" on="1"/>
        <pt x="494" y="836" on="1"/>
        <pt x="464" y="819" on="1"/>
        <pt x="379" y="882" on="1"/>
        <pt x="294" y="819" on="1"/>
      </contour>
      <contour>
        <pt x="378" y="42" on="1"/>
        <pt x="450" y="42" on="0"/>
        <pt x="545" y="96" on="0"/>
        <pt x="600" y="184" on="0"/>
        <pt x="623" y="296" on="0"/>
        <pt x="623" y="353" on="1"/>
        <pt x="623" y="710" on="1"/>
        <pt x="674" y="710" on="1"/>
        <pt x="674" y="353" on="1"/>
        <pt x="674" y="282" on="0"/>
        <pt x="643" y="152" on="0"/>
        <pt x="573" y="53" on="0"/>
        <pt x="461" y="-5" on="0"/>
        <pt x="379" y="-5" on="1"/>
        <pt x="294" y="-5" on="0"/>
        <pt x="180" y="56" on="0"/>
        <pt x="111" y="157" on="0"/>
        <pt x="82" y="285" on="0"/>
        <pt x="82" y="353" on="1"/>
        <pt x="82" y="710" on="1"/>
        <pt x="133" y="710" on="1"/>
        <pt x="133" y="353" on="1"/>
        <pt x="133" y="294" on="0"/>
        <pt x="156" y="182" on="0"/>
        <pt x="213" y="95" on="0"/>
        <pt x="307" y="42" on="0"/>
      </contour>
    </TTGlyph>
    <TTGlyph name="Udblgrave" xMin="82" yMin="-5" xMax="674" yMax="918">
      <contour>
        <pt x="355" y="918" on="1"/>
        <pt x="407" y="918" on="1"/>
        <pt x="467" y="833" on="1"/>
        <pt x="438" y="817" on="1"/>
      </contour>
      <contour>
        <pt x="239" y="918" on="1"/>
        <pt x="292" y="918" on="1"/>
        <pt x="351" y="833" on="1"/>
        <pt x="322" y="817" on="1"/>
      </contour>
      <contour>
        <pt x="378" y="42" on="1"/>
        <pt x="450" y="42" on="0"/>
        <pt x="545" y="96" on="0"/>
        <pt x="600" y="184" on="0"/>
        <pt x="623" y="296" on="0"/>
        <pt x="623" y="353" on="1"/>
        <pt x="623" y="710" on="1"/>
        <pt x="674" y="710" on="1"/>
        <pt x="674" y="353" on="1"/>
        <pt x="674" y="282" on="0"/>
        <pt x="643" y="152" on="0"/>
        <pt x="573" y="53" on="0"/>
        <pt x="461" y="-5" on="0"/>
        <pt x="379" y="-5" on="1"/>
        <pt x="294" y="-5" on="0"/>
        <pt x="180" y="56" on="0"/>
        <pt x="111" y="157" on="0"/>
        <pt x="82" y="285" on="0"/>
        <pt x="82" y="353" on="1"/>
        <pt x="82" y="710" on="1"/>
        <pt x="133" y="710" on="1"/>
        <pt x="133" y="353" on="1"/>
        <pt x="133" y="294" on="0"/>
        <pt x="156" y="182" on="0"/>
        <pt x="213" y="95" on="0"/>
        <pt x="307" y="42" on="0"/>
      </contour>
    </TTGlyph>
    <TTGlyph name="Udieresis" xMin="82" yMin="-5" xMax="674" yMax="916">
      <contour>
        <pt x="288" y="828" on="1"/>
        <pt x="288" y="916" on="1"/>
        <pt x="332" y="916" on="1"/>
        <pt x="332" y="828" on="1"/>
      </contour>
      <contour>
        <pt x="424" y="828" on="1"/>
        <pt x="424" y="916" on="1"/>
        <pt x="468" y="916" on="1"/>
        <pt x="468" y="828" on="1"/>
      </contour>
      <contour>
        <pt x="378" y="42" on="1"/>
        <pt x="450" y="42" on="0"/>
        <pt x="545" y="96" on="0"/>
        <pt x="600" y="184" on="0"/>
        <pt x="623" y="296" on="0"/>
        <pt x="623" y="353" on="1"/>
        <pt x="623" y="710" on="1"/>
        <pt x="674" y="710" on="1"/>
        <pt x="674" y="353" on="1"/>
        <pt x="674" y="282" on="0"/>
        <pt x="643" y="152" on="0"/>
        <pt x="573" y="53" on="0"/>
        <pt x="461" y="-5" on="0"/>
        <pt x="379" y="-5" on="1"/>
        <pt x="294" y="-5" on="0"/>
        <pt x="180" y="56" on="0"/>
        <pt x="111" y="157" on="0"/>
        <pt x="82" y="285" on="0"/>
        <pt x="82" y="353" on="1"/>
        <pt x="82" y="710" on="1"/>
        <pt x="133" y="710" on="1"/>
        <pt x="133" y="353" on="1"/>
        <pt x="133" y="294" on="0"/>
        <pt x="156" y="182" on="0"/>
        <pt x="213" y="95" on="0"/>
        <pt x="307" y="42" on="0"/>
      </contour>
    </TTGlyph>
    <TTGlyph name="Udotbelow" xMin="82" yMin="-151" xMax="674" yMax="710">
      <contour>
        <pt x="378" y="42" on="1"/>
        <pt x="450" y="42" on="0"/>
        <pt x="545" y="96" on="0"/>
        <pt x="600" y="184" on="0"/>
        <pt x="623" y="296" on="0"/>
        <pt x="623" y="353" on="1"/>
        <pt x="623" y="710" on="1"/>
        <pt x="674" y="710" on="1"/>
        <pt x="674" y="353" on="1"/>
        <pt x="674" y="282" on="0"/>
        <pt x="643" y="152" on="0"/>
        <pt x="573" y="53" on="0"/>
        <pt x="461" y="-5" on="0"/>
        <pt x="379" y="-5" on="1"/>
        <pt x="294" y="-5" on="0"/>
        <pt x="180" y="56" on="0"/>
        <pt x="111" y="157" on="0"/>
        <pt x="82" y="285" on="0"/>
        <pt x="82" y="353" on="1"/>
        <pt x="82" y="710" on="1"/>
        <pt x="133" y="710" on="1"/>
        <pt x="133" y="353" on="1"/>
        <pt x="133" y="294" on="0"/>
        <pt x="156" y="182" on="0"/>
        <pt x="213" y="95" on="0"/>
        <pt x="307" y="42" on="0"/>
      </contour>
      <contour>
        <pt x="358" y="-151" on="1"/>
        <pt x="358" y="-61" on="1"/>
        <pt x="404" y="-61" on="1"/>
        <pt x="404" y="-151" on="1"/>
      </contour>
    </TTGlyph>
    <TTGlyph name="Ugrave" xMin="82" yMin="-5" xMax="674" yMax="918">
      <contour>
        <pt x="378" y="42" on="1"/>
        <pt x="450" y="42" on="0"/>
        <pt x="545" y="96" on="0"/>
        <pt x="600" y="184" on="0"/>
        <pt x="623" y="296" on="0"/>
        <pt x="623" y="353" on="1"/>
        <pt x="623" y="710" on="1"/>
        <pt x="674" y="710" on="1"/>
        <pt x="674" y="353" on="1"/>
        <pt x="674" y="282" on="0"/>
        <pt x="643" y="152" on="0"/>
        <pt x="573" y="53" on="0"/>
        <pt x="461" y="-5" on="0"/>
        <pt x="379" y="-5" on="1"/>
        <pt x="294" y="-5" on="0"/>
        <pt x="180" y="56" on="0"/>
        <pt x="111" y="157" on="0"/>
        <pt x="82" y="285" on="0"/>
        <pt x="82" y="353" on="1"/>
        <pt x="82" y="710" on="1"/>
        <pt x="133" y="710" on="1"/>
        <pt x="133" y="353" on="1"/>
        <pt x="133" y="294" on="0"/>
        <pt x="156" y="182" on="0"/>
        <pt x="213" y="95" on="0"/>
        <pt x="307" y="42" on="0"/>
      </contour>
      <contour>
        <pt x="295" y="918" on="1"/>
        <pt x="352" y="918" on="1"/>
        <pt x="414" y="833" on="1"/>
        <pt x="380" y="817" on="1"/>
      </contour>
    </TTGlyph>
    <TTGlyph name="Uhungarumlaut" xMin="82" yMin="-5" xMax="674" yMax="918">
      <contour>
        <pt x="378" y="42" on="1"/>
        <pt x="450" y="42" on="0"/>
        <pt x="545" y="96" on="0"/>
        <pt x="600" y="184" on="0"/>
        <pt x="623" y="296" on="0"/>
        <pt x="623" y="353" on="1"/>
        <pt x="623" y="710" on="1"/>
        <pt x="674" y="710" on="1"/>
        <pt x="674" y="353" on="1"/>
        <pt x="674" y="282" on="0"/>
        <pt x="643" y="152" on="0"/>
        <pt x="573" y="53" on="0"/>
        <pt x="461" y="-5" on="0"/>
        <pt x="379" y="-5" on="1"/>
        <pt x="294" y="-5" on="0"/>
        <pt x="180" y="56" on="0"/>
        <pt x="111" y="157" on="0"/>
        <pt x="82" y="285" on="0"/>
        <pt x="82" y="353" on="1"/>
        <pt x="82" y="710" on="1"/>
        <pt x="133" y="710" on="1"/>
        <pt x="133" y="353" on="1"/>
        <pt x="133" y="294" on="0"/>
        <pt x="156" y="182" on="0"/>
        <pt x="213" y="95" on="0"/>
        <pt x="307" y="42" on="0"/>
      </contour>
      <contour>
        <pt x="315" y="817" on="1"/>
        <pt x="286" y="833" on="1"/>
        <pt x="345" y="918" on="1"/>
        <pt x="398" y="918" on="1"/>
      </contour>
      <contour>
        <pt x="431" y="817" on="1"/>
        <pt x="401" y="833" on="1"/>
        <pt x="461" y="918" on="1"/>
        <pt x="514" y="918" on="1"/>
      </contour>
    </TTGlyph>
    <TTGlyph name="Uinvertedbreve" xMin="82" yMin="-5" xMax="674" yMax="917">
      <contour>
        <pt x="378" y="889" on="1"/>
        <pt x="356" y="889" on="0"/>
        <pt x="322" y="850" on="0"/>
        <pt x="322" y="825" on="1"/>
        <pt x="289" y="825" on="1"/>
        <pt x="289" y="844" on="0"/>
        <pt x="303" y="878" on="0"/>
        <pt x="327" y="903" on="0"/>
        <pt x="360" y="917" on="0"/>
        <pt x="378" y="917" on="1"/>
        <pt x="396" y="917" on="0"/>
        <pt x="428" y="903" on="0"/>
        <pt x="453" y="878" on="0"/>
        <pt x="467" y="844" on="0"/>
        <pt x="467" y="825" on="1"/>
        <pt x="434" y="825" on="1"/>
        <pt x="431" y="852" on="0"/>
        <pt x="398" y="889" on="0"/>
      </contour>
      <contour>
        <pt x="378" y="42" on="1"/>
        <pt x="450" y="42" on="0"/>
        <pt x="545" y="96" on="0"/>
        <pt x="600" y="184" on="0"/>
        <pt x="623" y="296" on="0"/>
        <pt x="623" y="353" on="1"/>
        <pt x="623" y="710" on="1"/>
        <pt x="674" y="710" on="1"/>
        <pt x="674" y="353" on="1"/>
        <pt x="674" y="282" on="0"/>
        <pt x="643" y="152" on="0"/>
        <pt x="573" y="53" on="0"/>
        <pt x="461" y="-5" on="0"/>
        <pt x="379" y="-5" on="1"/>
        <pt x="294" y="-5" on="0"/>
        <pt x="180" y="56" on="0"/>
        <pt x="111" y="157" on="0"/>
        <pt x="82" y="285" on="0"/>
        <pt x="82" y="353" on="1"/>
        <pt x="82" y="710" on="1"/>
        <pt x="133" y="710" on="1"/>
        <pt x="133" y="353" on="1"/>
        <pt x="133" y="294" on="0"/>
        <pt x="156" y="182" on="0"/>
        <pt x="213" y="95" on="0"/>
        <pt x="307" y="42" on="0"/>
      </contour>
    </TTGlyph>
    <TTGlyph name="Umacron" xMin="82" yMin="-5" xMax="674" yMax="896">
      <contour>
        <pt x="378" y="42" on="1"/>
        <pt x="450" y="42" on="0"/>
        <pt x="545" y="96" on="0"/>
        <pt x="600" y="184" on="0"/>
        <pt x="623" y="296" on="0"/>
        <pt x="623" y="353" on="1"/>
        <pt x="623" y="710" on="1"/>
        <pt x="674" y="710" on="1"/>
        <pt x="674" y="353" on="1"/>
        <pt x="674" y="282" on="0"/>
        <pt x="643" y="152" on="0"/>
        <pt x="573" y="53" on="0"/>
        <pt x="461" y="-5" on="0"/>
        <pt x="379" y="-5" on="1"/>
        <pt x="294" y="-5" on="0"/>
        <pt x="180" y="56" on="0"/>
        <pt x="111" y="157" on="0"/>
        <pt x="82" y="285" on="0"/>
        <pt x="82" y="353" on="1"/>
        <pt x="82" y="710" on="1"/>
        <pt x="133" y="710" on="1"/>
        <pt x="133" y="353" on="1"/>
        <pt x="133" y="294" on="0"/>
        <pt x="156" y="182" on="0"/>
        <pt x="213" y="95" on="0"/>
        <pt x="307" y="42" on="0"/>
      </contour>
      <contour>
        <pt x="236" y="859" on="1"/>
        <pt x="236" y="896" on="1"/>
        <pt x="521" y="896" on="1"/>
        <pt x="521" y="859" on="1"/>
      </contour>
    </TTGlyph>
    <TTGlyph name="Uogonek" xMin="82" yMin="-172" xMax="674" yMax="710">
      <contour>
        <pt x="378" y="42" on="1"/>
        <pt x="450" y="42" on="0"/>
        <pt x="545" y="96" on="0"/>
        <pt x="600" y="184" on="0"/>
        <pt x="623" y="296" on="0"/>
        <pt x="623" y="353" on="1"/>
        <pt x="623" y="710" on="1"/>
        <pt x="674" y="710" on="1"/>
        <pt x="674" y="353" on="1"/>
        <pt x="674" y="283" on="0"/>
        <pt x="644" y="156" on="0"/>
        <pt x="578" y="59" on="0"/>
        <pt x="471" y="-1" on="0"/>
        <pt x="394" y="-4" on="1"/>
        <pt x="350" y="-33" on="0"/>
        <pt x="315" y="-74" on="0"/>
        <pt x="315" y="-97" on="1"/>
        <pt x="315" y="-135" on="0"/>
        <pt x="364" y="-142" on="1"/>
        <pt x="348" y="-172" on="1"/>
        <pt x="316" y="-165" on="0"/>
        <pt x="281" y="-129" on="0"/>
        <pt x="281" y="-104" on="1"/>
        <pt x="281" y="-79" on="0"/>
        <pt x="315" y="-31" on="0"/>
        <pt x="353" y="-4" on="1"/>
        <pt x="276" y="1" on="0"/>
        <pt x="172" y="65" on="0"/>
        <pt x="109" y="164" on="0"/>
        <pt x="82" y="288" on="0"/>
        <pt x="82" y="353" on="1"/>
        <pt x="82" y="710" on="1"/>
        <pt x="133" y="710" on="1"/>
        <pt x="133" y="353" on="1"/>
        <pt x="133" y="294" on="0"/>
        <pt x="156" y="182" on="0"/>
        <pt x="213" y="95" on="0"/>
        <pt x="307" y="42" on="0"/>
      </contour>
    </TTGlyph>
    <TTGlyph name="Uring" xMin="82" yMin="-5" xMax="674" yMax="917">
      <contour>
        <pt x="310" y="855" on="1"/>
        <pt x="310" y="882" on="0"/>
        <pt x="349" y="917" on="0"/>
        <pt x="378" y="917" on="1"/>
        <pt x="407" y="917" on="0"/>
        <pt x="446" y="882" on="0"/>
        <pt x="446" y="855" on="1"/>
        <pt x="446" y="827" on="0"/>
        <pt x="407" y="792" on="0"/>
        <pt x="378" y="792" on="1"/>
        <pt x="349" y="792" on="0"/>
        <pt x="310" y="827" on="0"/>
      </contour>
      <contour>
        <pt x="378" y="894" on="1"/>
        <pt x="361" y="894" on="0"/>
        <pt x="338" y="873" on="0"/>
        <pt x="338" y="855" on="1"/>
        <pt x="338" y="838" on="0"/>
        <pt x="361" y="815" on="0"/>
        <pt x="378" y="815" on="1"/>
        <pt x="394" y="815" on="0"/>
        <pt x="419" y="838" on="0"/>
        <pt x="419" y="855" on="1"/>
        <pt x="419" y="873" on="0"/>
        <pt x="395" y="894" on="0"/>
      </contour>
      <contour>
        <pt x="378" y="42" on="1"/>
        <pt x="450" y="42" on="0"/>
        <pt x="545" y="96" on="0"/>
        <pt x="600" y="184" on="0"/>
        <pt x="623" y="296" on="0"/>
        <pt x="623" y="353" on="1"/>
        <pt x="623" y="710" on="1"/>
        <pt x="674" y="710" on="1"/>
        <pt x="674" y="353" on="1"/>
        <pt x="674" y="282" on="0"/>
        <pt x="643" y="152" on="0"/>
        <pt x="573" y="53" on="0"/>
        <pt x="461" y="-5" on="0"/>
        <pt x="379" y="-5" on="1"/>
        <pt x="294" y="-5" on="0"/>
        <pt x="180" y="56" on="0"/>
        <pt x="111" y="157" on="0"/>
        <pt x="82" y="285" on="0"/>
        <pt x="82" y="353" on="1"/>
        <pt x="82" y="710" on="1"/>
        <pt x="133" y="710" on="1"/>
        <pt x="133" y="353" on="1"/>
        <pt x="133" y="294" on="0"/>
        <pt x="156" y="182" on="0"/>
        <pt x="213" y="95" on="0"/>
        <pt x="307" y="42" on="0"/>
      </contour>
    </TTGlyph>
    <TTGlyph name="Utilde" xMin="82" yMin="-5" xMax="674" yMax="917">
      <contour>
        <pt x="378" y="42" on="1"/>
        <pt x="450" y="42" on="0"/>
        <pt x="545" y="96" on="0"/>
        <pt x="600" y="184" on="0"/>
        <pt x="623" y="296" on="0"/>
        <pt x="623" y="353" on="1"/>
        <pt x="623" y="710" on="1"/>
        <pt x="674" y="710" on="1"/>
        <pt x="674" y="353" on="1"/>
        <pt x="674" y="282" on="0"/>
        <pt x="643" y="152" on="0"/>
        <pt x="573" y="53" on="0"/>
        <pt x="461" y="-5" on="0"/>
        <pt x="379" y="-5" on="1"/>
        <pt x="294" y="-5" on="0"/>
        <pt x="180" y="56" on="0"/>
        <pt x="111" y="157" on="0"/>
        <pt x="82" y="285" on="0"/>
        <pt x="82" y="353" on="1"/>
        <pt x="82" y="710" on="1"/>
        <pt x="133" y="710" on="1"/>
        <pt x="133" y="353" on="1"/>
        <pt x="133" y="294" on="0"/>
        <pt x="156" y="182" on="0"/>
        <pt x="213" y="95" on="0"/>
        <pt x="307" y="42" on="0"/>
      </contour>
      <contour>
        <pt x="440" y="834" on="1"/>
        <pt x="418" y="834" on="0"/>
        <pt x="384" y="846" on="0"/>
        <pt x="356" y="861" on="0"/>
        <pt x="329" y="874" on="0"/>
        <pt x="314" y="874" on="1"/>
        <pt x="297" y="874" on="0"/>
        <pt x="277" y="860" on="0"/>
        <pt x="267" y="843" on="0"/>
        <pt x="263" y="828" on="0"/>
        <pt x="263" y="826" on="1"/>
        <pt x="229" y="826" on="1"/>
        <pt x="229" y="830" on="0"/>
        <pt x="235" y="857" on="0"/>
        <pt x="254" y="886" on="0"/>
        <pt x="287" y="909" on="0"/>
        <pt x="314" y="909" on="1"/>
        <pt x="334" y="909" on="0"/>
        <pt x="365" y="896" on="0"/>
        <pt x="393" y="881" on="0"/>
        <pt x="422" y="869" on="0"/>
        <pt x="441" y="869" on="1"/>
        <pt x="461" y="869" on="0"/>
        <pt x="484" y="883" on="0"/>
        <pt x="495" y="900" on="0"/>
        <pt x="498" y="915" on="0"/>
        <pt x="498" y="917" on="1"/>
        <pt x="532" y="917" on="1"/>
        <pt x="532" y="912" on="0"/>
        <pt x="525" y="885" on="0"/>
        <pt x="506" y="857" on="0"/>
        <pt x="470" y="834" on="0"/>
      </contour>
    </TTGlyph>
    <TTGlyph name="V" xMin="15" yMin="0" xMax="663" yMax="710">
      <contour>
        <pt x="69" y="710" on="1"/>
        <pt x="339" y="64" on="1"/>
        <pt x="609" y="710" on="1"/>
        <pt x="663" y="710" on="1"/>
        <pt x="363" y="0" on="1"/>
        <pt x="316" y="0" on="1"/>
        <pt x="15" y="710" on="1"/>
      </contour>
    </TTGlyph>
    <TTGlyph name="V.sc" xMin="22" yMin="0" xMax="564" yMax="545">
      <contour>
        <pt x="71" y="545" on="1"/>
        <pt x="293" y="64" on="1"/>
        <pt x="514" y="545" on="1"/>
        <pt x="564" y="545" on="1"/>
        <pt x="314" y="0" on="1"/>
        <pt x="272" y="0" on="1"/>
        <pt x="22" y="545" on="1"/>
      </contour>
    </TTGlyph>
    <TTGlyph name="W" xMin="15" yMin="0" xMax="1029" yMax="710">
      <contour>
        <pt x="365" y="705" on="1"/>
        <pt x="415" y="705" on="1"/>
        <pt x="521" y="447" on="1"/>
        <pt x="627" y="705" on="1"/>
        <pt x="677" y="705" on="1"/>
        <pt x="552" y="406" on="1"/>
        <pt x="701" y="60" on="1"/>
        <pt x="973" y="710" on="1"/>
        <pt x="1029" y="710" on="1"/>
        <pt x="725" y="0" on="1"/>
        <pt x="678" y="0" on="1"/>
        <pt x="522" y="365" on="1"/>
        <pt x="365" y="0" on="1"/>
        <pt x="318" y="0" on="1"/>
        <pt x="15" y="710" on="1"/>
        <pt x="70" y="710" on="1"/>
        <pt x="343" y="60" on="1"/>
        <pt x="490" y="406" on="1"/>
      </contour>
    </TTGlyph>
    <TTGlyph name="W.alt" xMin="24" yMin="0" xMax="1025" yMax="710">
      <contour>
        <pt x="1025" y="710" on="1"/>
        <pt x="798" y="0" on="1"/>
        <pt x="744" y="0" on="1"/>
        <pt x="521" y="627" on="1"/>
        <pt x="305" y="0" on="1"/>
        <pt x="251" y="0" on="1"/>
        <pt x="24" y="710" on="1"/>
        <pt x="80" y="710" on="1"/>
        <pt x="282" y="73" on="1"/>
        <pt x="492" y="710" on="1"/>
        <pt x="548" y="710" on="1"/>
        <pt x="767" y="73" on="1"/>
        <pt x="968" y="710" on="1"/>
      </contour>
    </TTGlyph>
    <TTGlyph name="W.sc" xMin="22" yMin="0" xMax="870" yMax="545">
      <contour>
        <pt x="314" y="541" on="1"/>
        <pt x="358" y="541" on="1"/>
        <pt x="445" y="345" on="1"/>
        <pt x="533" y="541" on="1"/>
        <pt x="578" y="541" on="1"/>
        <pt x="473" y="309" on="1"/>
        <pt x="594" y="57" on="1"/>
        <pt x="819" y="545" on="1"/>
        <pt x="870" y="545" on="1"/>
        <pt x="617" y="0" on="1"/>
        <pt x="575" y="0" on="1"/>
        <pt x="446" y="274" on="1"/>
        <pt x="317" y="0" on="1"/>
        <pt x="274" y="0" on="1"/>
        <pt x="22" y="545" on="1"/>
        <pt x="73" y="545" on="1"/>
        <pt x="299" y="57" on="1"/>
        <pt x="417" y="309" on="1"/>
      </contour>
    </TTGlyph>
</ttFont>
